solid m1d omer batterij deksel
facet normal -1.0 0.0 0.0
outer loop
vertex 66.02501970844631 14.859662129420002 3.0
vertex 66.02501970844631 12.859662129419998 1.9999999999999998
vertex 66.02501970844631 12.859662129419998 3.0
endloop
endfacet
facet normal -1.0 0.0 0.0
outer loop
vertex 66.02501970844631 12.859662129419998 1.9999999999999998
vertex 66.02501970844631 14.859662129420002 3.0
vertex 66.02501970844631 14.859662129420002 1.9999999999999998
endloop
endfacet
facet normal 0.4642383454426271 0.8040844011283477 -0.3713906763541036
outer loop
vertex 55.225019708446304 14.474021483364883 1.9999999999999998
vertex 55.40385400020027 13.541440146326227 0.0
vertex 54.825019708446305 13.781201160337341 0.0
endloop
endfacet
facet normal 0.24030745053486657 0.8968396148334853 -0.37139067635410333
outer loop
vertex 55.40385400020027 13.541440146326227 0.0
vertex 55.225019708446304 14.474021483364883 1.9999999999999998
vertex 55.610909236282275 14.31418080735749 1.9999999999999998
endloop
endfacet
facet normal 0.0 -1.0 0.0
outer loop
vertex 87.02501970844632 84.05966212942 3.0
vertex 25.025019708446294 84.05966212942 1.9999999999999998
vertex 87.02501970844632 84.05966212942 1.9999999999999998
endloop
endfacet
facet normal 0.0 -1.0 0.0
outer loop
vertex 25.025019708446294 84.05966212942 1.9999999999999998
vertex 87.02501970844632 84.05966212942 3.0
vertex 25.025019708446294 84.05966212942 3.0
endloop
endfacet
facet normal 0.0 -1.0 0.0
outer loop
vertex 25.025019708446294 84.05966212942 3.0
vertex 87.02501970844632 84.05966212942 3.0
vertex 86.82501970844632 84.05966212942 3.0
endloop
endfacet
facet normal 0.0 -1.0 0.0
outer loop
vertex 25.025019708446294 84.05966212942 3.0
vertex 86.82501970844632 84.05966212942 3.0
vertex 25.225019708446293 84.05966212942 3.0
endloop
endfacet
facet normal 0.0 -1.0 0.0
outer loop
vertex 86.82501970844632 84.05966212942 3.0
vertex 82.82501970844633 84.05966212942 3.9999999999999996
vertex 25.225019708446293 84.05966212942 3.0
endloop
endfacet
facet normal 0.0 -1.0 0.0
outer loop
vertex 82.82501970844633 84.05966212942 3.9999999999999996
vertex 86.82501970844632 84.05966212942 3.0
vertex 86.82501970844632 84.05966212942 6.0
endloop
endfacet
facet normal 0.0 -1.0 0.0
outer loop
vertex 82.82501970844633 84.05966212942 3.9999999999999996
vertex 86.82501970844632 84.05966212942 6.0
vertex 82.82501970844633 84.05966212942 6.0
endloop
endfacet
facet normal 0.0 -1.0 0.0
outer loop
vertex 58.0250197084463 84.05966212942 6.0
vertex 54.02501970844631 84.05966212942 3.9999999999999996
vertex 58.0250197084463 84.05966212942 3.9999999999999996
endloop
endfacet
facet normal 0.0 -1.0 0.0
outer loop
vertex 54.02501970844631 84.05966212942 3.9999999999999996
vertex 58.0250197084463 84.05966212942 6.0
vertex 54.02501970844631 84.05966212942 6.0
endloop
endfacet
facet normal 0.0 -1.0 0.0
outer loop
vertex 25.225019708446293 84.05966212942 3.0
vertex 29.225019708446293 84.05966212942 3.9999999999999996
vertex 25.225019708446293 84.05966212942 6.0
endloop
endfacet
facet normal 0.0 -1.0 0.0
outer loop
vertex 29.225019708446293 84.05966212942 3.9999999999999996
vertex 25.225019708446293 84.05966212942 3.0
vertex 82.82501970844633 84.05966212942 3.9999999999999996
endloop
endfacet
facet normal 0.0 -1.0 0.0
outer loop
vertex 29.225019708446293 84.05966212942 3.9999999999999996
vertex 82.82501970844633 84.05966212942 3.9999999999999996
vertex 58.0250197084463 84.05966212942 3.9999999999999996
endloop
endfacet
facet normal 0.0 -1.0 0.0
outer loop
vertex 29.225019708446293 84.05966212942 3.9999999999999996
vertex 58.0250197084463 84.05966212942 3.9999999999999996
vertex 54.02501970844631 84.05966212942 3.9999999999999996
endloop
endfacet
facet normal 0.0 -1.0 0.0
outer loop
vertex 25.225019708446293 84.05966212942 6.0
vertex 29.225019708446293 84.05966212942 3.9999999999999996
vertex 29.225019708446293 84.05966212942 6.0
endloop
endfacet
facet normal 1.0 0.0 0.0
outer loop
vertex 58.0250197084463 86.05966212942 3.9999999999999996
vertex 58.0250197084463 84.05966212942 6.0
vertex 58.0250197084463 84.05966212942 3.9999999999999996
endloop
endfacet
facet normal 1.0 0.0 0.0
outer loop
vertex 58.0250197084463 84.05966212942 6.0
vertex 58.0250197084463 86.05966212942 3.9999999999999996
vertex 58.0250197084463 87.35966212942 6.0
endloop
endfacet
facet normal 0.0 0.8384436163006376 -0.5449883505954135
outer loop
vertex 54.02501970844631 87.35966212942 6.0
vertex 58.0250197084463 86.05966212942 3.9999999999999996
vertex 54.02501970844631 86.05966212942 3.9999999999999996
endloop
endfacet
facet normal 0.0 0.8384436163006376 -0.5449883505954135
outer loop
vertex 58.0250197084463 86.05966212942 3.9999999999999996
vertex 54.02501970844631 87.35966212942 6.0
vertex 58.0250197084463 87.35966212942 6.0
endloop
endfacet
facet normal 1.0 0.0 0.0
outer loop
vertex 86.82501970844632 86.05966212942 3.0
vertex 86.82501970844632 84.05966212942 6.0
vertex 86.82501970844632 84.05966212942 3.0
endloop
endfacet
facet normal 1.0 0.0 0.0
outer loop
vertex 86.82501970844632 84.05966212942 6.0
vertex 86.82501970844632 86.05966212942 3.0
vertex 86.82501970844632 86.05966212942 3.9999999999999996
endloop
endfacet
facet normal 1.0 0.0 0.0
outer loop
vertex 86.82501970844632 84.05966212942 6.0
vertex 86.82501970844632 86.05966212942 3.9999999999999996
vertex 86.82501970844632 87.35966212942 6.0
endloop
endfacet
facet normal -0.8968396148334852 0.24030745053486727 -0.3713906763541034
outer loop
vertex 57.57050103050881 15.445551657255958 1.9999999999999998
vertex 58.4250197084463 15.859662129419991 0.0
vertex 58.343241691540065 15.238496421173954 0.0
endloop
endfacet
facet normal -0.928476690885259 -3.3063035944555507e-16 -0.37139067635410467
outer loop
vertex 58.4250197084463 15.859662129419991 0.0
vertex 57.57050103050881 15.445551657255958 1.9999999999999998
vertex 57.6250197084463 15.859662129419991 1.9999999999999998
endloop
endfacet
facet normal 0.0 1.0 0.0
outer loop
vertex 25.025019708446294 14.859662129419995 3.0
vertex 46.0250197084463 14.859662129419995 1.9999999999999998
vertex 25.025019708446294 14.859662129419995 1.9999999999999998
endloop
endfacet
facet normal 0.0 1.0 0.0
outer loop
vertex 46.0250197084463 14.859662129419995 1.9999999999999998
vertex 25.025019708446294 14.859662129419995 3.0
vertex 46.0250197084463 14.859662129419995 3.0
endloop
endfacet
facet normal 0.0 0.0 1.0
outer loop
vertex 58.0250197084463 84.05966212942 6.0
vertex 54.02501970844631 87.35966212942 6.0
vertex 54.02501970844631 84.05966212942 6.0
endloop
endfacet
facet normal 0.0 0.0 1.0
outer loop
vertex 54.02501970844631 87.35966212942 6.0
vertex 58.0250197084463 84.05966212942 6.0
vertex 58.0250197084463 87.35966212942 6.0
endloop
endfacet
facet normal 0.6565321642986137 0.6565321642986114 -0.3713906763541045
outer loop
vertex 54.893648858547834 14.728291279521521 1.9999999999999998
vertex 54.825019708446305 13.781201160337341 0.0
vertex 54.327963433598576 14.162605854572286 0.0
endloop
endfacet
facet normal 0.4642383454426275 0.8040844011283476 -0.37139067635410367
outer loop
vertex 54.825019708446305 13.781201160337341 0.0
vertex 54.893648858547834 14.728291279521521 1.9999999999999998
vertex 55.225019708446304 14.474021483364883 1.9999999999999998
endloop
endfacet
facet normal 1.0 0.0 0.0
outer loop
vertex 89.02501970844631 86.05966212942 1.9999999999999998
vertex 89.02501970844631 12.859662129419998 3.0
vertex 89.02501970844631 12.859662129419998 1.9999999999999998
endloop
endfacet
facet normal 1.0 0.0 0.0
outer loop
vertex 89.02501970844631 12.859662129419998 3.0
vertex 89.02501970844631 86.05966212942 1.9999999999999998
vertex 89.02501970844631 86.05966212942 3.0
endloop
endfacet
facet normal -1.0 0.0 0.0
outer loop
vertex 23.025019708446298 86.05966212942 3.0
vertex 23.025019708446298 12.859662129419998 1.9999999999999998
vertex 23.025019708446298 12.859662129419998 3.0
endloop
endfacet
facet normal -1.0 0.0 0.0
outer loop
vertex 23.025019708446298 12.859662129419998 1.9999999999999998
vertex 23.025019708446298 86.05966212942 3.0
vertex 23.025019708446298 86.05966212942 1.9999999999999998
endloop
endfacet
facet normal 0.8968396148334854 -0.24030745053486693 -0.37139067635410333
outer loop
vertex 53.70679772535254 16.480827837666023 0.0
vertex 54.6393790623912 16.659662129419985 1.9999999999999998
vertex 54.4795383863838 16.27377260158402 1.9999999999999998
endloop
endfacet
facet normal 0.8040844011283491 -0.4642383454426245 -0.3713906763541037
outer loop
vertex 54.6393790623912 16.659662129419985 1.9999999999999998
vertex 53.70679772535254 16.480827837666023 0.0
vertex 53.94655873936365 17.059662129419987 0.0
endloop
endfacet
facet normal 0.0 -1.0 0.0
outer loop
vertex 46.0250197084463 12.859662129419998 3.0
vertex 23.025019708446298 12.859662129419998 1.9999999999999998
vertex 46.0250197084463 12.859662129419998 1.9999999999999998
endloop
endfacet
facet normal 0.0 -1.0 0.0
outer loop
vertex 23.025019708446298 12.859662129419998 1.9999999999999998
vertex 46.0250197084463 12.859662129419998 3.0
vertex 23.025019708446298 12.859662129419998 3.0
endloop
endfacet
facet normal 5.180444137879283e-17 0.928476690885259 -0.3713906763541046
outer loop
vertex 56.0250197084463 14.259662129419993 1.9999999999999998
vertex 56.64618541669234 13.541440146326227 0.0
vertex 56.0250197084463 13.459662129419995 0.0
endloop
endfacet
facet normal -0.24030745053486655 0.8968396148334855 -0.37139067635410333
outer loop
vertex 56.64618541669234 13.541440146326227 0.0
vertex 56.0250197084463 14.259662129419993 1.9999999999999998
vertex 56.439130180610334 14.31418080735749 1.9999999999999998
endloop
endfacet
facet normal 0.0 0.0 1.0
outer loop
vertex 82.82501970844633 84.05966212942 3.9999999999999996
vertex 58.0250197084463 86.05966212942 3.9999999999999996
vertex 58.0250197084463 84.05966212942 3.9999999999999996
endloop
endfacet
facet normal 0.0 0.0 1.0
outer loop
vertex 58.0250197084463 86.05966212942 3.9999999999999996
vertex 82.82501970844633 84.05966212942 3.9999999999999996
vertex 82.82501970844633 86.05966212942 3.9999999999999996
endloop
endfacet
facet normal -1.4661944713151546e-17 0.8384436163006376 -0.5449883505954134
outer loop
vertex 25.225019708446293 87.35966212942 6.0
vertex 29.225019708446293 86.05966212942 3.9999999999999996
vertex 25.225019708446293 86.05966212942 3.9999999999999996
endloop
endfacet
facet normal -1.4661944713151546e-17 0.8384436163006376 -0.5449883505954134
outer loop
vertex 29.225019708446293 86.05966212942 3.9999999999999996
vertex 25.225019708446293 87.35966212942 6.0
vertex 29.225019708446293 87.35966212942 6.0
endloop
endfacet
facet normal -0.8040844011283488 0.46423834544262504 -0.37139067635410394
outer loop
vertex 57.41066035450141 15.059662129419992 1.9999999999999998
vertex 58.343241691540065 15.238496421173954 0.0
vertex 58.10348067752896 14.659662129419994 0.0
endloop
endfacet
facet normal -0.8968396148334853 0.2403074505348666 -0.37139067635410333
outer loop
vertex 58.343241691540065 15.238496421173954 0.0
vertex 57.41066035450141 15.059662129419992 1.9999999999999998
vertex 57.57050103050881 15.445551657255958 1.9999999999999998
endloop
endfacet
facet normal 0.0 0.0 1.0
outer loop
vertex 21.0250197084463 10.859662129419977 1.9999999999999998
vertex 23.025019708446298 12.859662129419998 1.9999999999999998
vertex 21.0250197084463 88.25966212941998 1.9999999999999998
endloop
endfacet
facet normal 0.0 0.0 1.0
outer loop
vertex 23.025019708446298 12.859662129419998 1.9999999999999998
vertex 21.0250197084463 10.859662129419977 1.9999999999999998
vertex 91.02501970844628 10.859662129419977 1.9999999999999998
endloop
endfacet
facet normal 0.0 0.0 1.0
outer loop
vertex 23.025019708446298 12.859662129419998 1.9999999999999998
vertex 91.02501970844628 10.859662129419977 1.9999999999999998
vertex 46.0250197084463 12.859662129419998 1.9999999999999998
endloop
endfacet
facet normal 0.0 0.0 1.0
outer loop
vertex 46.0250197084463 12.859662129419998 1.9999999999999998
vertex 91.02501970844628 10.859662129419977 1.9999999999999998
vertex 66.02501970844631 12.859662129419998 1.9999999999999998
endloop
endfacet
facet normal 0.0 0.0 1.0
outer loop
vertex 46.0250197084463 12.859662129419998 1.9999999999999998
vertex 66.02501970844631 12.859662129419998 1.9999999999999998
vertex 46.0250197084463 14.859662129419995 1.9999999999999998
endloop
endfacet
facet normal 0.0 0.0 1.0
outer loop
vertex 46.0250197084463 14.859662129419995 1.9999999999999998
vertex 66.02501970844631 12.859662129419998 1.9999999999999998
vertex 55.610909236282275 14.31418080735749 1.9999999999999998
endloop
endfacet
facet normal 0.0 0.0 1.0
outer loop
vertex 46.0250197084463 14.859662129419995 1.9999999999999998
vertex 55.610909236282275 14.31418080735749 1.9999999999999998
vertex 55.225019708446304 14.474021483364883 1.9999999999999998
endloop
endfacet
facet normal 0.0 0.0 1.0
outer loop
vertex 46.0250197084463 14.859662129419995 1.9999999999999998
vertex 55.225019708446304 14.474021483364883 1.9999999999999998
vertex 54.893648858547834 14.728291279521521 1.9999999999999998
endloop
endfacet
facet normal 0.0 0.0 1.0
outer loop
vertex 46.0250197084463 14.859662129419995 1.9999999999999998
vertex 54.893648858547834 14.728291279521521 1.9999999999999998
vertex 54.6393790623912 15.059662129419992 1.9999999999999998
endloop
endfacet
facet normal 0.0 0.0 1.0
outer loop
vertex 46.0250197084463 14.859662129419995 1.9999999999999998
vertex 54.6393790623912 15.059662129419992 1.9999999999999998
vertex 54.4795383863838 15.445551657255958 1.9999999999999998
endloop
endfacet
facet normal 0.0 0.0 1.0
outer loop
vertex 46.0250197084463 14.859662129419995 1.9999999999999998
vertex 54.4795383863838 15.445551657255958 1.9999999999999998
vertex 54.42501970844631 15.859662129419991 1.9999999999999998
endloop
endfacet
facet normal 0.0 0.0 1.0
outer loop
vertex 55.610909236282275 14.31418080735749 1.9999999999999998
vertex 66.02501970844631 12.859662129419998 1.9999999999999998
vertex 56.0250197084463 14.259662129419993 1.9999999999999998
endloop
endfacet
facet normal 0.0 0.0 1.0
outer loop
vertex 56.0250197084463 14.259662129419993 1.9999999999999998
vertex 66.02501970844631 12.859662129419998 1.9999999999999998
vertex 56.439130180610334 14.31418080735749 1.9999999999999998
endloop
endfacet
facet normal 0.0 0.0 1.0
outer loop
vertex 56.439130180610334 14.31418080735749 1.9999999999999998
vertex 66.02501970844631 12.859662129419998 1.9999999999999998
vertex 56.825019708446305 14.474021483364883 1.9999999999999998
endloop
endfacet
facet normal 0.0 0.0 1.0
outer loop
vertex 56.825019708446305 14.474021483364883 1.9999999999999998
vertex 66.02501970844631 12.859662129419998 1.9999999999999998
vertex 57.156390558344775 14.728291279521521 1.9999999999999998
endloop
endfacet
facet normal 0.0 0.0 1.0
outer loop
vertex 57.156390558344775 14.728291279521521 1.9999999999999998
vertex 66.02501970844631 12.859662129419998 1.9999999999999998
vertex 57.41066035450141 15.059662129419992 1.9999999999999998
endloop
endfacet
facet normal 0.0 0.0 1.0
outer loop
vertex 57.41066035450141 15.059662129419992 1.9999999999999998
vertex 66.02501970844631 12.859662129419998 1.9999999999999998
vertex 57.57050103050881 15.445551657255958 1.9999999999999998
endloop
endfacet
facet normal 0.0 0.0 1.0
outer loop
vertex 57.57050103050881 15.445551657255958 1.9999999999999998
vertex 66.02501970844631 12.859662129419998 1.9999999999999998
vertex 57.6250197084463 15.859662129419991 1.9999999999999998
endloop
endfacet
facet normal 0.0 0.0 1.0
outer loop
vertex 66.02501970844631 12.859662129419998 1.9999999999999998
vertex 91.02501970844628 10.859662129419977 1.9999999999999998
vertex 89.02501970844631 12.859662129419998 1.9999999999999998
endloop
endfacet
facet normal 0.0 0.0 1.0
outer loop
vertex 89.02501970844631 12.859662129419998 1.9999999999999998
vertex 91.02501970844628 10.859662129419977 1.9999999999999998
vertex 89.02501970844631 86.05966212942 1.9999999999999998
endloop
endfacet
facet normal 0.0 0.0 1.0
outer loop
vertex 21.0250197084463 88.25966212941998 1.9999999999999998
vertex 23.025019708446298 86.05966212942 1.9999999999999998
vertex 91.02501970844628 88.25966212941998 1.9999999999999998
endloop
endfacet
facet normal 0.0 0.0 1.0
outer loop
vertex 23.025019708446298 86.05966212942 1.9999999999999998
vertex 21.0250197084463 88.25966212941998 1.9999999999999998
vertex 23.025019708446298 12.859662129419998 1.9999999999999998
endloop
endfacet
facet normal 0.0 0.0 1.0
outer loop
vertex 91.02501970844628 88.25966212941998 1.9999999999999998
vertex 23.025019708446298 86.05966212942 1.9999999999999998
vertex 89.02501970844631 86.05966212942 1.9999999999999998
endloop
endfacet
facet normal 0.0 0.0 1.0
outer loop
vertex 91.02501970844628 88.25966212941998 1.9999999999999998
vertex 89.02501970844631 86.05966212942 1.9999999999999998
vertex 91.02501970844628 10.859662129419977 1.9999999999999998
endloop
endfacet
facet normal 0.0 0.0 1.0
outer loop
vertex 46.0250197084463 14.859662129419995 1.9999999999999998
vertex 25.025019708446294 84.05966212942 1.9999999999999998
vertex 25.025019708446294 14.859662129419995 1.9999999999999998
endloop
endfacet
facet normal 0.0 0.0 1.0
outer loop
vertex 25.025019708446294 84.05966212942 1.9999999999999998
vertex 46.0250197084463 14.859662129419995 1.9999999999999998
vertex 87.02501970844632 84.05966212942 1.9999999999999998
endloop
endfacet
facet normal 0.0 0.0 1.0
outer loop
vertex 87.02501970844632 84.05966212942 1.9999999999999998
vertex 46.0250197084463 14.859662129419995 1.9999999999999998
vertex 54.6393790623912 16.659662129419985 1.9999999999999998
endloop
endfacet
facet normal 0.0 0.0 1.0
outer loop
vertex 54.6393790623912 16.659662129419985 1.9999999999999998
vertex 46.0250197084463 14.859662129419995 1.9999999999999998
vertex 54.4795383863838 16.27377260158402 1.9999999999999998
endloop
endfacet
facet normal 0.0 0.0 1.0
outer loop
vertex 54.4795383863838 16.27377260158402 1.9999999999999998
vertex 46.0250197084463 14.859662129419995 1.9999999999999998
vertex 54.42501970844631 15.859662129419991 1.9999999999999998
endloop
endfacet
facet normal 0.0 0.0 1.0
outer loop
vertex 87.02501970844632 84.05966212942 1.9999999999999998
vertex 54.6393790623912 16.659662129419985 1.9999999999999998
vertex 54.893648858547834 16.99103297931846 1.9999999999999998
endloop
endfacet
facet normal 0.0 0.0 1.0
outer loop
vertex 87.02501970844632 84.05966212942 1.9999999999999998
vertex 54.893648858547834 16.99103297931846 1.9999999999999998
vertex 55.225019708446304 17.24530277547507 1.9999999999999998
endloop
endfacet
facet normal 0.0 0.0 1.0
outer loop
vertex 87.02501970844632 84.05966212942 1.9999999999999998
vertex 55.225019708446304 17.24530277547507 1.9999999999999998
vertex 55.610909236282275 17.405143451482488 1.9999999999999998
endloop
endfacet
facet normal 0.0 0.0 1.0
outer loop
vertex 87.02501970844632 84.05966212942 1.9999999999999998
vertex 55.610909236282275 17.405143451482488 1.9999999999999998
vertex 56.0250197084463 17.459662129419986 1.9999999999999998
endloop
endfacet
facet normal 0.0 0.0 1.0
outer loop
vertex 87.02501970844632 84.05966212942 1.9999999999999998
vertex 56.0250197084463 17.459662129419986 1.9999999999999998
vertex 56.439130180610334 17.405143451482488 1.9999999999999998
endloop
endfacet
facet normal 0.0 0.0 1.0
outer loop
vertex 87.02501970844632 84.05966212942 1.9999999999999998
vertex 56.439130180610334 17.405143451482488 1.9999999999999998
vertex 56.825019708446305 17.24530277547507 1.9999999999999998
endloop
endfacet
facet normal 0.0 0.0 1.0
outer loop
vertex 87.02501970844632 84.05966212942 1.9999999999999998
vertex 56.825019708446305 17.24530277547507 1.9999999999999998
vertex 57.156390558344775 16.99103297931846 1.9999999999999998
endloop
endfacet
facet normal 0.0 0.0 1.0
outer loop
vertex 87.02501970844632 84.05966212942 1.9999999999999998
vertex 57.156390558344775 16.99103297931846 1.9999999999999998
vertex 57.41066035450141 16.659662129419985 1.9999999999999998
endloop
endfacet
facet normal 0.0 0.0 1.0
outer loop
vertex 87.02501970844632 84.05966212942 1.9999999999999998
vertex 57.41066035450141 16.659662129419985 1.9999999999999998
vertex 57.57050103050881 16.27377260158402 1.9999999999999998
endloop
endfacet
facet normal 0.0 0.0 1.0
outer loop
vertex 87.02501970844632 84.05966212942 1.9999999999999998
vertex 57.57050103050881 16.27377260158402 1.9999999999999998
vertex 57.6250197084463 15.859662129419991 1.9999999999999998
endloop
endfacet
facet normal 0.0 0.0 1.0
outer loop
vertex 87.02501970844632 84.05966212942 1.9999999999999998
vertex 57.6250197084463 15.859662129419991 1.9999999999999998
vertex 66.02501970844631 14.859662129420002 1.9999999999999998
endloop
endfacet
facet normal 0.0 0.0 1.0
outer loop
vertex 66.02501970844631 14.859662129420002 1.9999999999999998
vertex 57.6250197084463 15.859662129419991 1.9999999999999998
vertex 66.02501970844631 12.859662129419998 1.9999999999999998
endloop
endfacet
facet normal 0.0 0.0 1.0
outer loop
vertex 87.02501970844632 84.05966212942 1.9999999999999998
vertex 66.02501970844631 14.859662129420002 1.9999999999999998
vertex 87.02501970844632 14.859662129420002 1.9999999999999998
endloop
endfacet
facet normal 0.0 1.0 0.0
outer loop
vertex 66.02501970844631 14.859662129420002 3.0
vertex 87.02501970844632 14.859662129420002 1.9999999999999998
vertex 66.02501970844631 14.859662129420002 1.9999999999999998
endloop
endfacet
facet normal 0.0 1.0 0.0
outer loop
vertex 87.02501970844632 14.859662129420002 1.9999999999999998
vertex 66.02501970844631 14.859662129420002 3.0
vertex 87.02501970844632 14.859662129420002 3.0
endloop
endfacet
facet normal -1.0 0.0 0.0
outer loop
vertex 82.82501970844633 87.35966212942 6.0
vertex 82.82501970844633 84.05966212942 3.9999999999999996
vertex 82.82501970844633 84.05966212942 6.0
endloop
endfacet
facet normal -1.0 0.0 0.0
outer loop
vertex 82.82501970844633 84.05966212942 3.9999999999999996
vertex 82.82501970844633 87.35966212942 6.0
vertex 82.82501970844633 86.05966212942 3.9999999999999996
endloop
endfacet
facet normal 0.0 0.0 1.0
outer loop
vertex 29.225019708446293 84.05966212942 6.0
vertex 25.225019708446293 87.35966212942 6.0
vertex 25.225019708446293 84.05966212942 6.0
endloop
endfacet
facet normal 0.0 0.0 1.0
outer loop
vertex 25.225019708446293 87.35966212942 6.0
vertex 29.225019708446293 84.05966212942 6.0
vertex 29.225019708446293 87.35966212942 6.0
endloop
endfacet
facet normal 1.0 0.0 0.0
outer loop
vertex 29.225019708446293 86.05966212942 3.9999999999999996
vertex 29.225019708446293 84.05966212942 6.0
vertex 29.225019708446293 84.05966212942 3.9999999999999996
endloop
endfacet
facet normal 1.0 0.0 0.0
outer loop
vertex 29.225019708446293 84.05966212942 6.0
vertex 29.225019708446293 86.05966212942 3.9999999999999996
vertex 29.225019708446293 87.35966212942 6.0
endloop
endfacet
facet normal 1.0 0.0 0.0
outer loop
vertex 46.0250197084463 14.859662129419995 1.9999999999999998
vertex 46.0250197084463 12.859662129419998 3.0
vertex 46.0250197084463 12.859662129419998 1.9999999999999998
endloop
endfacet
facet normal 1.0 0.0 0.0
outer loop
vertex 46.0250197084463 12.859662129419998 3.0
vertex 46.0250197084463 14.859662129419995 1.9999999999999998
vertex 46.0250197084463 14.859662129419995 3.0
endloop
endfacet
facet normal 0.0 0.0 -1.0
outer loop
vertex 91.02501970844628 88.25966212941998 0.0
vertex 21.0250197084463 10.859662129419977 0.0
vertex 21.0250197084463 88.25966212941998 0.0
endloop
endfacet
facet normal 0.0 0.0 -1.0
outer loop
vertex 21.0250197084463 10.859662129419977 0.0
vertex 91.02501970844628 88.25966212941998 0.0
vertex 53.94655873936365 17.059662129419987 0.0
endloop
endfacet
facet normal 0.0 0.0 -1.0
outer loop
vertex 21.0250197084463 10.859662129419977 0.0
vertex 53.94655873936365 17.059662129419987 0.0
vertex 53.70679772535254 16.480827837666023 0.0
endloop
endfacet
facet normal 0.0 0.0 -1.0
outer loop
vertex 21.0250197084463 10.859662129419977 0.0
vertex 53.70679772535254 16.480827837666023 0.0
vertex 53.62501970844631 15.859662129419991 0.0
endloop
endfacet
facet normal 0.0 0.0 -1.0
outer loop
vertex 53.94655873936365 17.059662129419987 0.0
vertex 91.02501970844628 88.25966212941998 0.0
vertex 54.327963433598576 17.55671840426769 0.0
endloop
endfacet
facet normal 0.0 0.0 -1.0
outer loop
vertex 54.327963433598576 17.55671840426769 0.0
vertex 91.02501970844628 88.25966212941998 0.0
vertex 54.825019708446305 17.938123098502636 0.0
endloop
endfacet
facet normal 0.0 0.0 -1.0
outer loop
vertex 54.825019708446305 17.938123098502636 0.0
vertex 91.02501970844628 88.25966212941998 0.0
vertex 55.40385400020027 18.177884112513752 0.0
endloop
endfacet
facet normal 0.0 0.0 -1.0
outer loop
vertex 55.40385400020027 18.177884112513752 0.0
vertex 91.02501970844628 88.25966212941998 0.0
vertex 56.0250197084463 18.259662129419983 0.0
endloop
endfacet
facet normal 0.0 0.0 -1.0
outer loop
vertex 56.0250197084463 18.259662129419983 0.0
vertex 91.02501970844628 88.25966212941998 0.0
vertex 56.64618541669234 18.177884112513752 0.0
endloop
endfacet
facet normal 0.0 0.0 -1.0
outer loop
vertex 56.64618541669234 18.177884112513752 0.0
vertex 91.02501970844628 88.25966212941998 0.0
vertex 57.225019708446304 17.938123098502636 0.0
endloop
endfacet
facet normal 0.0 0.0 -1.0
outer loop
vertex 57.225019708446304 17.938123098502636 0.0
vertex 91.02501970844628 88.25966212941998 0.0
vertex 57.72207598329403 17.55671840426769 0.0
endloop
endfacet
facet normal 0.0 0.0 -1.0
outer loop
vertex 57.72207598329403 17.55671840426769 0.0
vertex 91.02501970844628 88.25966212941998 0.0
vertex 58.10348067752896 17.059662129419987 0.0
endloop
endfacet
facet normal 0.0 0.0 -1.0
outer loop
vertex 58.10348067752896 17.059662129419987 0.0
vertex 91.02501970844628 88.25966212941998 0.0
vertex 58.343241691540065 16.480827837666023 0.0
endloop
endfacet
facet normal 0.0 0.0 -1.0
outer loop
vertex 58.343241691540065 16.480827837666023 0.0
vertex 91.02501970844628 88.25966212941998 0.0
vertex 58.4250197084463 15.859662129419991 0.0
endloop
endfacet
facet normal 0.0 0.0 -1.0
outer loop
vertex 21.0250197084463 10.859662129419977 0.0
vertex 56.0250197084463 13.459662129419995 0.0
vertex 91.02501970844628 10.859662129419977 0.0
endloop
endfacet
facet normal 0.0 0.0 -1.0
outer loop
vertex 56.0250197084463 13.459662129419995 0.0
vertex 21.0250197084463 10.859662129419977 0.0
vertex 55.40385400020027 13.541440146326227 0.0
endloop
endfacet
facet normal 0.0 0.0 -1.0
outer loop
vertex 55.40385400020027 13.541440146326227 0.0
vertex 21.0250197084463 10.859662129419977 0.0
vertex 54.825019708446305 13.781201160337341 0.0
endloop
endfacet
facet normal 0.0 0.0 -1.0
outer loop
vertex 54.825019708446305 13.781201160337341 0.0
vertex 21.0250197084463 10.859662129419977 0.0
vertex 54.327963433598576 14.162605854572286 0.0
endloop
endfacet
facet normal 0.0 0.0 -1.0
outer loop
vertex 54.327963433598576 14.162605854572286 0.0
vertex 21.0250197084463 10.859662129419977 0.0
vertex 53.94655873936365 14.659662129419994 0.0
endloop
endfacet
facet normal 0.0 0.0 -1.0
outer loop
vertex 53.94655873936365 14.659662129419994 0.0
vertex 21.0250197084463 10.859662129419977 0.0
vertex 53.70679772535254 15.23849642117393 0.0
endloop
endfacet
facet normal 0.0 0.0 -1.0
outer loop
vertex 53.70679772535254 15.23849642117393 0.0
vertex 21.0250197084463 10.859662129419977 0.0
vertex 53.62501970844631 15.859662129419991 0.0
endloop
endfacet
facet normal 0.0 0.0 -1.0
outer loop
vertex 91.02501970844628 10.859662129419977 0.0
vertex 56.0250197084463 13.459662129419995 0.0
vertex 56.64618541669234 13.541440146326227 0.0
endloop
endfacet
facet normal 0.0 0.0 -1.0
outer loop
vertex 91.02501970844628 10.859662129419977 0.0
vertex 56.64618541669234 13.541440146326227 0.0
vertex 57.225019708446304 13.781201160337341 0.0
endloop
endfacet
facet normal 0.0 0.0 -1.0
outer loop
vertex 91.02501970844628 10.859662129419977 0.0
vertex 57.225019708446304 13.781201160337341 0.0
vertex 57.72207598329403 14.162605854572286 0.0
endloop
endfacet
facet normal 0.0 0.0 -1.0
outer loop
vertex 91.02501970844628 10.859662129419977 0.0
vertex 57.72207598329403 14.162605854572286 0.0
vertex 58.10348067752896 14.659662129419994 0.0
endloop
endfacet
facet normal 0.0 0.0 -1.0
outer loop
vertex 91.02501970844628 10.859662129419977 0.0
vertex 58.10348067752896 14.659662129419994 0.0
vertex 58.343241691540065 15.238496421173954 0.0
endloop
endfacet
facet normal 0.0 0.0 -1.0
outer loop
vertex 91.02501970844628 10.859662129419977 0.0
vertex 58.343241691540065 15.238496421173954 0.0
vertex 58.4250197084463 15.859662129419991 0.0
endloop
endfacet
facet normal 0.0 0.0 -1.0
outer loop
vertex 91.02501970844628 10.859662129419977 0.0
vertex 58.4250197084463 15.859662129419991 0.0
vertex 91.02501970844628 88.25966212941998 0.0
endloop
endfacet
facet normal 0.0 -1.0 0.0
outer loop
vertex 91.02501970844628 10.859662129419977 1.9999999999999998
vertex 21.0250197084463 10.859662129419977 0.0
vertex 91.02501970844628 10.859662129419977 0.0
endloop
endfacet
facet normal 0.0 -1.0 0.0
outer loop
vertex 21.0250197084463 10.859662129419977 0.0
vertex 91.02501970844628 10.859662129419977 1.9999999999999998
vertex 21.0250197084463 10.859662129419977 1.9999999999999998
endloop
endfacet
facet normal 0.0 1.0 0.0
outer loop
vertex 21.0250197084463 88.25966212941998 1.9999999999999998
vertex 91.02501970844628 88.25966212941998 0.0
vertex 21.0250197084463 88.25966212941998 0.0
endloop
endfacet
facet normal 0.0 1.0 0.0
outer loop
vertex 91.02501970844628 88.25966212941998 0.0
vertex 21.0250197084463 88.25966212941998 1.9999999999999998
vertex 91.02501970844628 88.25966212941998 1.9999999999999998
endloop
endfacet
facet normal -1.466194471313126e-17 0.8384436163006376 -0.5449883505954134
outer loop
vertex 82.82501970844633 87.35966212942 6.0
vertex 86.82501970844632 86.05966212942 3.9999999999999996
vertex 82.82501970844633 86.05966212942 3.9999999999999996
endloop
endfacet
facet normal -1.466194471313126e-17 0.8384436163006376 -0.5449883505954134
outer loop
vertex 86.82501970844632 86.05966212942 3.9999999999999996
vertex 82.82501970844633 87.35966212942 6.0
vertex 86.82501970844632 87.35966212942 6.0
endloop
endfacet
facet normal 0.0 0.0 1.0
outer loop
vertex 89.02501970844631 12.859662129419998 3.0
vertex 66.02501970844631 14.859662129420002 3.0
vertex 66.02501970844631 12.859662129419998 3.0
endloop
endfacet
facet normal 0.0 0.0 1.0
outer loop
vertex 66.02501970844631 14.859662129420002 3.0
vertex 89.02501970844631 12.859662129419998 3.0
vertex 87.02501970844632 14.859662129420002 3.0
endloop
endfacet
facet normal 0.0 0.0 1.0
outer loop
vertex 87.02501970844632 14.859662129420002 3.0
vertex 89.02501970844631 12.859662129419998 3.0
vertex 87.02501970844632 84.05966212942 3.0
endloop
endfacet
facet normal 0.0 0.0 1.0
outer loop
vertex 87.02501970844632 84.05966212942 3.0
vertex 86.82501970844632 86.05966212942 3.0
vertex 86.82501970844632 84.05966212942 3.0
endloop
endfacet
facet normal 0.0 0.0 1.0
outer loop
vertex 86.82501970844632 86.05966212942 3.0
vertex 87.02501970844632 84.05966212942 3.0
vertex 89.02501970844631 86.05966212942 3.0
endloop
endfacet
facet normal 0.0 0.0 1.0
outer loop
vertex 89.02501970844631 86.05966212942 3.0
vertex 87.02501970844632 84.05966212942 3.0
vertex 89.02501970844631 12.859662129419998 3.0
endloop
endfacet
facet normal -0.6565321642986138 0.6565321642986114 -0.37139067635410455
outer loop
vertex 57.156390558344775 14.728291279521521 1.9999999999999998
vertex 58.10348067752896 14.659662129419994 0.0
vertex 57.72207598329403 14.162605854572286 0.0
endloop
endfacet
facet normal -0.8040844011283487 0.46423834544262543 -0.37139067635410383
outer loop
vertex 58.10348067752896 14.659662129419994 0.0
vertex 57.156390558344775 14.728291279521521 1.9999999999999998
vertex 57.41066035450141 15.059662129419992 1.9999999999999998
endloop
endfacet
facet normal -0.8968396148334851 -0.24030745053486754 -0.3713906763541034
outer loop
vertex 57.57050103050881 16.27377260158402 1.9999999999999998
vertex 58.4250197084463 15.859662129419991 0.0
vertex 57.6250197084463 15.859662129419991 1.9999999999999998
endloop
endfacet
facet normal -0.928476690885259 -3.3063035944555507e-16 -0.37139067635410467
outer loop
vertex 58.4250197084463 15.859662129419991 0.0
vertex 57.57050103050881 16.27377260158402 1.9999999999999998
vertex 58.343241691540065 16.480827837666023 0.0
endloop
endfacet
facet normal 0.896839614833484 0.24030745053486985 -0.37139067635410483
outer loop
vertex 53.70679772535254 15.23849642117393 0.0
vertex 54.6393790623912 15.059662129419992 1.9999999999999998
vertex 53.94655873936365 14.659662129419994 0.0
endloop
endfacet
facet normal 0.8040844011283464 0.4642383454426289 -0.37139067635410455
outer loop
vertex 54.6393790623912 15.059662129419992 1.9999999999999998
vertex 53.70679772535254 15.23849642117393 0.0
vertex 54.4795383863838 15.445551657255958 1.9999999999999998
endloop
endfacet
facet normal -0.24030745053486716 0.8968396148334852 -0.3713906763541033
outer loop
vertex 56.439130180610334 14.31418080735749 1.9999999999999998
vertex 57.225019708446304 13.781201160337341 0.0
vertex 56.64618541669234 13.541440146326227 0.0
endloop
endfacet
facet normal -0.4642383454426274 0.8040844011283476 -0.37139067635410367
outer loop
vertex 57.225019708446304 13.781201160337341 0.0
vertex 56.439130180610334 14.31418080735749 1.9999999999999998
vertex 56.825019708446305 14.474021483364883 1.9999999999999998
endloop
endfacet
facet normal 0.0 0.0 1.0
outer loop
vertex 23.025019708446298 12.859662129419998 3.0
vertex 25.025019708446294 14.859662129419995 3.0
vertex 23.025019708446298 86.05966212942 3.0
endloop
endfacet
facet normal 0.0 0.0 1.0
outer loop
vertex 25.025019708446294 14.859662129419995 3.0
vertex 23.025019708446298 12.859662129419998 3.0
vertex 46.0250197084463 12.859662129419998 3.0
endloop
endfacet
facet normal 0.0 0.0 1.0
outer loop
vertex 25.025019708446294 14.859662129419995 3.0
vertex 46.0250197084463 12.859662129419998 3.0
vertex 46.0250197084463 14.859662129419995 3.0
endloop
endfacet
facet normal 0.0 0.0 1.0
outer loop
vertex 23.025019708446298 86.05966212942 3.0
vertex 25.025019708446294 84.05966212942 3.0
vertex 25.225019708446293 86.05966212942 3.0
endloop
endfacet
facet normal 0.0 0.0 1.0
outer loop
vertex 25.025019708446294 84.05966212942 3.0
vertex 23.025019708446298 86.05966212942 3.0
vertex 25.025019708446294 14.859662129419995 3.0
endloop
endfacet
facet normal 0.0 0.0 1.0
outer loop
vertex 25.225019708446293 86.05966212942 3.0
vertex 25.025019708446294 84.05966212942 3.0
vertex 25.225019708446293 84.05966212942 3.0
endloop
endfacet
facet normal 1.0 0.0 0.0
outer loop
vertex 91.02501970844628 88.25966212941998 0.0
vertex 91.02501970844628 10.859662129419977 1.9999999999999998
vertex 91.02501970844628 10.859662129419977 0.0
endloop
endfacet
facet normal 1.0 0.0 0.0
outer loop
vertex 91.02501970844628 10.859662129419977 1.9999999999999998
vertex 91.02501970844628 88.25966212941998 0.0
vertex 91.02501970844628 88.25966212941998 1.9999999999999998
endloop
endfacet
facet normal -1.0 0.0 0.0
outer loop
vertex 21.0250197084463 88.25966212941998 1.9999999999999998
vertex 21.0250197084463 10.859662129419977 0.0
vertex 21.0250197084463 10.859662129419977 1.9999999999999998
endloop
endfacet
facet normal -1.0 0.0 0.0
outer loop
vertex 21.0250197084463 10.859662129419977 0.0
vertex 21.0250197084463 88.25966212941998 1.9999999999999998
vertex 21.0250197084463 88.25966212941998 0.0
endloop
endfacet
facet normal 0.0 0.0 1.0
outer loop
vertex 86.82501970844632 84.05966212942 6.0
vertex 82.82501970844633 87.35966212942 6.0
vertex 82.82501970844633 84.05966212942 6.0
endloop
endfacet
facet normal 0.0 0.0 1.0
outer loop
vertex 82.82501970844633 87.35966212942 6.0
vertex 86.82501970844632 84.05966212942 6.0
vertex 86.82501970844632 87.35966212942 6.0
endloop
endfacet
facet normal -1.0 0.0 0.0
outer loop
vertex 25.225019708446293 87.35966212942 6.0
vertex 25.225019708446293 84.05966212942 3.0
vertex 25.225019708446293 84.05966212942 6.0
endloop
endfacet
facet normal -1.0 0.0 0.0
outer loop
vertex 25.225019708446293 84.05966212942 3.0
vertex 25.225019708446293 87.35966212942 6.0
vertex 25.225019708446293 86.05966212942 3.9999999999999996
endloop
endfacet
facet normal -1.0 0.0 0.0
outer loop
vertex 25.225019708446293 86.05966212942 3.0
vertex 25.225019708446293 84.05966212942 3.0
vertex 25.225019708446293 86.05966212942 3.9999999999999996
endloop
endfacet
facet normal 0.8968396148334854 -0.24030745053486693 -0.37139067635410333
outer loop
vertex 53.70679772535254 16.480827837666023 0.0
vertex 54.42501970844631 15.859662129419991 1.9999999999999998
vertex 53.62501970844631 15.859662129419991 0.0
endloop
endfacet
facet normal 0.9284766908852589 -1.8131554482577483e-15 -0.37139067635410505
outer loop
vertex 54.42501970844631 15.859662129419991 1.9999999999999998
vertex 53.70679772535254 16.480827837666023 0.0
vertex 54.4795383863838 16.27377260158402 1.9999999999999998
endloop
endfacet
facet normal -1.0 0.0 0.0
outer loop
vertex 54.02501970844631 87.35966212942 6.0
vertex 54.02501970844631 84.05966212942 3.9999999999999996
vertex 54.02501970844631 84.05966212942 6.0
endloop
endfacet
facet normal -1.0 0.0 0.0
outer loop
vertex 54.02501970844631 84.05966212942 3.9999999999999996
vertex 54.02501970844631 87.35966212942 6.0
vertex 54.02501970844631 86.05966212942 3.9999999999999996
endloop
endfacet
facet normal 0.928476690885259 -1.7266252104378978e-15 -0.37139067635410494
outer loop
vertex 53.62501970844631 15.859662129419991 0.0
vertex 54.4795383863838 15.445551657255958 1.9999999999999998
vertex 53.70679772535254 15.23849642117393 0.0
endloop
endfacet
facet normal 0.8968396148334842 0.24030745053486907 -0.37139067635410483
outer loop
vertex 54.4795383863838 15.445551657255958 1.9999999999999998
vertex 53.62501970844631 15.859662129419991 0.0
vertex 54.42501970844631 15.859662129419991 1.9999999999999998
endloop
endfacet
facet normal -0.4642383454426271 0.8040844011283477 -0.37139067635410367
outer loop
vertex 56.825019708446305 14.474021483364883 1.9999999999999998
vertex 57.72207598329403 14.162605854572286 0.0
vertex 57.225019708446304 13.781201160337341 0.0
endloop
endfacet
facet normal -0.6565321642986145 0.6565321642986107 -0.37139067635410444
outer loop
vertex 57.72207598329403 14.162605854572286 0.0
vertex 56.825019708446305 14.474021483364883 1.9999999999999998
vertex 57.156390558344775 14.728291279521521 1.9999999999999998
endloop
endfacet
facet normal 0.0 0.0 1.0
outer loop
vertex 54.02501970844631 84.05966212942 3.9999999999999996
vertex 29.225019708446293 86.05966212942 3.9999999999999996
vertex 29.225019708446293 84.05966212942 3.9999999999999996
endloop
endfacet
facet normal 0.0 0.0 1.0
outer loop
vertex 29.225019708446293 86.05966212942 3.9999999999999996
vertex 54.02501970844631 84.05966212942 3.9999999999999996
vertex 54.02501970844631 86.05966212942 3.9999999999999996
endloop
endfacet
facet normal 2.590222068939638e-17 -0.9284766908852589 -0.3713906763541053
outer loop
vertex 56.0250197084463 17.459662129419986 1.9999999999999998
vertex 55.40385400020027 18.177884112513752 0.0
vertex 56.0250197084463 18.259662129419983 0.0
endloop
endfacet
facet normal 0.24030745053487376 -0.8968396148334822 -0.3713906763541065
outer loop
vertex 55.40385400020027 18.177884112513752 0.0
vertex 56.0250197084463 17.459662129419986 1.9999999999999998
vertex 55.610909236282275 17.405143451482488 1.9999999999999998
endloop
endfacet
facet normal -0.6565321642986077 -0.6565321642986164 -0.37139067635410655
outer loop
vertex 57.156390558344775 16.99103297931846 1.9999999999999998
vertex 57.225019708446304 17.938123098502636 0.0
vertex 57.72207598329403 17.55671840426769 0.0
endloop
endfacet
facet normal -0.4642383454426257 -0.8040844011283469 -0.3713906763541074
outer loop
vertex 57.225019708446304 17.938123098502636 0.0
vertex 57.156390558344775 16.99103297931846 1.9999999999999998
vertex 56.825019708446305 17.24530277547507 1.9999999999999998
endloop
endfacet
facet normal 0.24030745053486724 0.8968396148334852 -0.37139067635410333
outer loop
vertex 55.610909236282275 14.31418080735749 1.9999999999999998
vertex 56.0250197084463 13.459662129419995 0.0
vertex 55.40385400020027 13.541440146326227 0.0
endloop
endfacet
facet normal 4.59208832563271e-17 0.9284766908852591 -0.37139067635410455
outer loop
vertex 56.0250197084463 13.459662129419995 0.0
vertex 55.610909236282275 14.31418080735749 1.9999999999999998
vertex 56.0250197084463 14.259662129419993 1.9999999999999998
endloop
endfacet
facet normal -0.8040844011283492 -0.46423834544262443 -0.37139067635410367
outer loop
vertex 57.41066035450141 16.659662129419985 1.9999999999999998
vertex 58.343241691540065 16.480827837666023 0.0
vertex 57.57050103050881 16.27377260158402 1.9999999999999998
endloop
endfacet
facet normal -0.8968396148334854 -0.24030745053486696 -0.3713906763541034
outer loop
vertex 58.343241691540065 16.480827837666023 0.0
vertex 57.41066035450141 16.659662129419985 1.9999999999999998
vertex 58.10348067752896 17.059662129419987 0.0
endloop
endfacet
facet normal 0.0 -1.0 0.0
outer loop
vertex 89.02501970844631 12.859662129419998 3.0
vertex 66.02501970844631 12.859662129419998 1.9999999999999998
vertex 89.02501970844631 12.859662129419998 1.9999999999999998
endloop
endfacet
facet normal 0.0 -1.0 0.0
outer loop
vertex 66.02501970844631 12.859662129419998 1.9999999999999998
vertex 89.02501970844631 12.859662129419998 3.0
vertex 66.02501970844631 12.859662129419998 3.0
endloop
endfacet
facet normal -1.0 0.0 0.0
outer loop
vertex 87.02501970844632 84.05966212942 3.0
vertex 87.02501970844632 14.859662129420002 1.9999999999999998
vertex 87.02501970844632 14.859662129420002 3.0
endloop
endfacet
facet normal -1.0 0.0 0.0
outer loop
vertex 87.02501970844632 14.859662129420002 1.9999999999999998
vertex 87.02501970844632 84.05966212942 3.0
vertex 87.02501970844632 84.05966212942 1.9999999999999998
endloop
endfacet
facet normal 0.8040844011283461 0.464238345442629 -0.37139067635410455
outer loop
vertex 53.94655873936365 14.659662129419994 0.0
vertex 54.893648858547834 14.728291279521521 1.9999999999999998
vertex 54.327963433598576 14.162605854572286 0.0
endloop
endfacet
facet normal 0.6565321642986137 0.6565321642986114 -0.3713906763541045
outer loop
vertex 54.893648858547834 14.728291279521521 1.9999999999999998
vertex 53.94655873936365 14.659662129419994 0.0
vertex 54.6393790623912 15.059662129419992 1.9999999999999998
endloop
endfacet
facet normal -0.6565321642986077 -0.6565321642986164 -0.37139067635410655
outer loop
vertex 57.156390558344775 16.99103297931846 1.9999999999999998
vertex 58.10348067752896 17.059662129419987 0.0
vertex 57.41066035450141 16.659662129419985 1.9999999999999998
endloop
endfacet
facet normal -0.8040844011283489 -0.464238345442625 -0.3713906763541037
outer loop
vertex 58.10348067752896 17.059662129419987 0.0
vertex 57.156390558344775 16.99103297931846 1.9999999999999998
vertex 57.72207598329403 17.55671840426769 0.0
endloop
endfacet
facet normal 0.0 1.0 0.0
outer loop
vertex 25.225019708446293 86.05966212942 3.9999999999999996
vertex 86.82501970844632 86.05966212942 3.0
vertex 25.225019708446293 86.05966212942 3.0
endloop
endfacet
facet normal 0.0 1.0 0.0
outer loop
vertex 86.82501970844632 86.05966212942 3.0
vertex 25.225019708446293 86.05966212942 3.9999999999999996
vertex 86.82501970844632 86.05966212942 3.9999999999999996
endloop
endfacet
facet normal 0.0 1.0 0.0
outer loop
vertex 86.82501970844632 86.05966212942 3.9999999999999996
vertex 25.225019708446293 86.05966212942 3.9999999999999996
vertex 29.225019708446293 86.05966212942 3.9999999999999996
endloop
endfacet
facet normal 0.0 1.0 0.0
outer loop
vertex 86.82501970844632 86.05966212942 3.9999999999999996
vertex 29.225019708446293 86.05966212942 3.9999999999999996
vertex 54.02501970844631 86.05966212942 3.9999999999999996
endloop
endfacet
facet normal 0.0 1.0 0.0
outer loop
vertex 86.82501970844632 86.05966212942 3.9999999999999996
vertex 54.02501970844631 86.05966212942 3.9999999999999996
vertex 58.0250197084463 86.05966212942 3.9999999999999996
endloop
endfacet
facet normal 0.0 1.0 0.0
outer loop
vertex 86.82501970844632 86.05966212942 3.9999999999999996
vertex 58.0250197084463 86.05966212942 3.9999999999999996
vertex 82.82501970844633 86.05966212942 3.9999999999999996
endloop
endfacet
facet normal 0.0 1.0 0.0
outer loop
vertex 23.025019708446298 86.05966212942 3.0
vertex 89.02501970844631 86.05966212942 1.9999999999999998
vertex 23.025019708446298 86.05966212942 1.9999999999999998
endloop
endfacet
facet normal 0.0 1.0 0.0
outer loop
vertex 89.02501970844631 86.05966212942 1.9999999999999998
vertex 23.025019708446298 86.05966212942 3.0
vertex 89.02501970844631 86.05966212942 3.0
endloop
endfacet
facet normal 0.0 1.0 0.0
outer loop
vertex 89.02501970844631 86.05966212942 3.0
vertex 23.025019708446298 86.05966212942 3.0
vertex 25.225019708446293 86.05966212942 3.0
endloop
endfacet
facet normal 0.0 1.0 0.0
outer loop
vertex 89.02501970844631 86.05966212942 3.0
vertex 25.225019708446293 86.05966212942 3.0
vertex 86.82501970844632 86.05966212942 3.0
endloop
endfacet
facet normal 0.46423834544262593 -0.8040844011283466 -0.37139067635410744
outer loop
vertex 55.225019708446304 17.24530277547507 1.9999999999999998
vertex 54.327963433598576 17.55671840426769 0.0
vertex 54.825019708446305 17.938123098502636 0.0
endloop
endfacet
facet normal 0.656532164298609 -0.6565321642986152 -0.3713906763541066
outer loop
vertex 54.327963433598576 17.55671840426769 0.0
vertex 55.225019708446304 17.24530277547507 1.9999999999999998
vertex 54.893648858547834 16.99103297931846 1.9999999999999998
endloop
endfacet
facet normal 0.8040844011283489 -0.4642383454426251 -0.37139067635410367
outer loop
vertex 53.94655873936365 17.059662129419987 0.0
vertex 54.893648858547834 16.99103297931846 1.9999999999999998
vertex 54.6393790623912 16.659662129419985 1.9999999999999998
endloop
endfacet
facet normal 0.6565321642986076 -0.6565321642986164 -0.37139067635410655
outer loop
vertex 54.893648858547834 16.99103297931846 1.9999999999999998
vertex 53.94655873936365 17.059662129419987 0.0
vertex 54.327963433598576 17.55671840426769 0.0
endloop
endfacet
facet normal -0.4642383454426261 -0.8040844011283467 -0.3713906763541074
outer loop
vertex 56.825019708446305 17.24530277547507 1.9999999999999998
vertex 56.64618541669234 18.177884112513752 0.0
vertex 57.225019708446304 17.938123098502636 0.0
endloop
endfacet
facet normal -0.24030745053487385 -0.8968396148334822 -0.37139067635410655
outer loop
vertex 56.64618541669234 18.177884112513752 0.0
vertex 56.825019708446305 17.24530277547507 1.9999999999999998
vertex 56.439130180610334 17.405143451482488 1.9999999999999998
endloop
endfacet
facet normal 1.0 0.0 0.0
outer loop
vertex 25.025019708446294 84.05966212942 1.9999999999999998
vertex 25.025019708446294 14.859662129419995 3.0
vertex 25.025019708446294 14.859662129419995 1.9999999999999998
endloop
endfacet
facet normal 1.0 0.0 0.0
outer loop
vertex 25.025019708446294 14.859662129419995 3.0
vertex 25.025019708446294 84.05966212942 1.9999999999999998
vertex 25.025019708446294 84.05966212942 3.0
endloop
endfacet
facet normal 0.24030745053487515 -0.8968396148334817 -0.3713906763541065
outer loop
vertex 55.610909236282275 17.405143451482488 1.9999999999999998
vertex 54.825019708446305 17.938123098502636 0.0
vertex 55.40385400020027 18.177884112513752 0.0
endloop
endfacet
facet normal 0.4642383454426257 -0.8040844011283469 -0.3713906763541075
outer loop
vertex 54.825019708446305 17.938123098502636 0.0
vertex 55.610909236282275 17.405143451482488 1.9999999999999998
vertex 55.225019708446304 17.24530277547507 1.9999999999999998
endloop
endfacet
facet normal -0.24030745053487526 -0.8968396148334817 -0.3713906763541065
outer loop
vertex 56.439130180610334 17.405143451482488 1.9999999999999998
vertex 56.0250197084463 18.259662129419983 0.0
vertex 56.64618541669234 18.177884112513752 0.0
endloop
endfacet
facet normal 2.7552529953796262e-17 -0.9284766908852589 -0.3713906763541053
outer loop
vertex 56.0250197084463 18.259662129419983 0.0
vertex 56.439130180610334 17.405143451482488 1.9999999999999998
vertex 56.0250197084463 17.459662129419986 1.9999999999999998
endloop
endfacet
endsolid m1d omer batterij deksel
