solid m1d omer sniffer deksel
facet normal 0.0 0.0 -1.0
outer loop
vertex 34.61743850517985 103.25275435080194 0.0
vertex 49.51743850517985 88.35275435080193 0.0
vertex 34.61743850517985 33.25275435080192 0.0
endloop
endfacet
facet normal 0.0 0.0 -1.0
outer loop
vertex 49.51743850517985 88.35275435080193 0.0
vertex 34.61743850517985 103.25275435080194 0.0
vertex 104.61743850517985 103.25275435080194 0.0
endloop
endfacet
facet normal 0.0 0.0 -1.0
outer loop
vertex 49.51743850517985 88.35275435080193 0.0
vertex 104.61743850517985 103.25275435080194 0.0
vertex 89.71743850517986 88.35275435080193 0.0
endloop
endfacet
facet normal 0.0 0.0 -1.0
outer loop
vertex 89.71743850517986 88.35275435080193 0.0
vertex 104.61743850517985 103.25275435080194 0.0
vertex 89.71743850517986 48.15275435080192 0.0
endloop
endfacet
facet normal 0.0 0.0 -1.0
outer loop
vertex 34.61743850517985 33.25275435080192 0.0
vertex 49.51743850517985 48.15275435080192 0.0
vertex 104.61743850517985 33.25275435080192 0.0
endloop
endfacet
facet normal 0.0 0.0 -1.0
outer loop
vertex 49.51743850517985 48.15275435080192 0.0
vertex 34.61743850517985 33.25275435080192 0.0
vertex 49.51743850517985 88.35275435080193 0.0
endloop
endfacet
facet normal 0.0 0.0 -1.0
outer loop
vertex 104.61743850517985 33.25275435080192 0.0
vertex 49.51743850517985 48.15275435080192 0.0
vertex 89.71743850517986 48.15275435080192 0.0
endloop
endfacet
facet normal 0.0 0.0 -1.0
outer loop
vertex 104.61743850517985 33.25275435080192 0.0
vertex 89.71743850517986 48.15275435080192 0.0
vertex 104.61743850517985 103.25275435080194 0.0
endloop
endfacet
facet normal -1.0 0.0 0.0
outer loop
vertex 89.71743850517986 88.35275435080193 1.9999999999999998
vertex 89.71743850517986 48.15275435080192 0.0
vertex 89.71743850517986 48.15275435080192 1.9999999999999998
endloop
endfacet
facet normal -1.0 0.0 0.0
outer loop
vertex 89.71743850517986 48.15275435080192 0.0
vertex 89.71743850517986 88.35275435080193 1.9999999999999998
vertex 89.71743850517986 88.35275435080193 0.0
endloop
endfacet
facet normal -0.0 -1.0 -0.0
outer loop
vertex 104.61743850517985 33.25275435080192 1.9999999999999962
vertex 34.61743850517985 33.25275435080192 0.0
vertex 104.61743850517985 33.25275435080192 0.0
endloop
endfacet
facet normal -0.0 -1.0 -0.0
outer loop
vertex 34.61743850517985 33.25275435080192 0.0
vertex 104.61743850517985 33.25275435080192 1.9999999999999962
vertex 34.61743850517985 33.25275435080192 1.9999999999999962
endloop
endfacet
facet normal 0.0 0.0 1.0
outer loop
vertex 34.61743850517985 33.25275435080192 1.9999999999999962
vertex 49.51743850517985 48.15275435080192 1.9999999999999998
vertex 34.61743850517985 103.25275435080194 1.9999999999999962
endloop
endfacet
facet normal 0.0 0.0 1.0
outer loop
vertex 49.51743850517985 48.15275435080192 1.9999999999999998
vertex 34.61743850517985 33.25275435080192 1.9999999999999962
vertex 104.61743850517985 33.25275435080192 1.9999999999999962
endloop
endfacet
facet normal 0.0 0.0 1.0
outer loop
vertex 49.51743850517985 48.15275435080192 1.9999999999999998
vertex 104.61743850517985 33.25275435080192 1.9999999999999962
vertex 89.71743850517986 48.15275435080192 1.9999999999999998
endloop
endfacet
facet normal 0.0 0.0 1.0
outer loop
vertex 89.71743850517986 48.15275435080192 1.9999999999999998
vertex 104.61743850517985 33.25275435080192 1.9999999999999962
vertex 89.71743850517986 88.35275435080193 1.9999999999999998
endloop
endfacet
facet normal 0.0 0.0 1.0
outer loop
vertex 34.61743850517985 103.25275435080194 1.9999999999999962
vertex 49.51743850517985 88.35275435080193 1.9999999999999998
vertex 104.61743850517985 103.25275435080194 1.9999999999999962
endloop
endfacet
facet normal 0.0 0.0 1.0
outer loop
vertex 49.51743850517985 88.35275435080193 1.9999999999999998
vertex 34.61743850517985 103.25275435080194 1.9999999999999962
vertex 49.51743850517985 48.15275435080192 1.9999999999999998
endloop
endfacet
facet normal 0.0 0.0 1.0
outer loop
vertex 104.61743850517985 103.25275435080194 1.9999999999999962
vertex 49.51743850517985 88.35275435080193 1.9999999999999998
vertex 89.71743850517986 88.35275435080193 1.9999999999999998
endloop
endfacet
facet normal 0.0 0.0 1.0
outer loop
vertex 104.61743850517985 103.25275435080194 1.9999999999999962
vertex 89.71743850517986 88.35275435080193 1.9999999999999998
vertex 104.61743850517985 33.25275435080192 1.9999999999999962
endloop
endfacet
facet normal 1.0 0.0 0.0
outer loop
vertex 104.61743850517985 103.25275435080194 0.0
vertex 104.61743850517985 33.25275435080192 1.9999999999999962
vertex 104.61743850517985 33.25275435080192 0.0
endloop
endfacet
facet normal 1.0 0.0 0.0
outer loop
vertex 104.61743850517985 33.25275435080192 1.9999999999999962
vertex 104.61743850517985 103.25275435080194 0.0
vertex 104.61743850517985 103.25275435080194 1.9999999999999962
endloop
endfacet
facet normal -0.0 -1.0 -0.0
outer loop
vertex 89.71743850517986 88.35275435080193 1.9999999999999998
vertex 49.51743850517985 88.35275435080193 0.0
vertex 89.71743850517986 88.35275435080193 0.0
endloop
endfacet
facet normal -0.0 -1.0 -0.0
outer loop
vertex 49.51743850517985 88.35275435080193 0.0
vertex 89.71743850517986 88.35275435080193 1.9999999999999998
vertex 49.51743850517985 88.35275435080193 1.9999999999999998
endloop
endfacet
facet normal -1.0 0.0 0.0
outer loop
vertex 34.61743850517985 103.25275435080194 1.9999999999999962
vertex 34.61743850517985 33.25275435080192 0.0
vertex 34.61743850517985 33.25275435080192 1.9999999999999962
endloop
endfacet
facet normal -1.0 0.0 0.0
outer loop
vertex 34.61743850517985 33.25275435080192 0.0
vertex 34.61743850517985 103.25275435080194 1.9999999999999962
vertex 34.61743850517985 103.25275435080194 0.0
endloop
endfacet
facet normal 0.0 1.0 0.0
outer loop
vertex 34.61743850517985 103.25275435080194 1.9999999999999962
vertex 104.61743850517985 103.25275435080194 0.0
vertex 34.61743850517985 103.25275435080194 0.0
endloop
endfacet
facet normal 0.0 1.0 0.0
outer loop
vertex 104.61743850517985 103.25275435080194 0.0
vertex 34.61743850517985 103.25275435080194 1.9999999999999962
vertex 104.61743850517985 103.25275435080194 1.9999999999999962
endloop
endfacet
facet normal 0.0 1.0 0.0
outer loop
vertex 49.51743850517985 48.15275435080192 1.9999999999999998
vertex 89.71743850517986 48.15275435080192 0.0
vertex 49.51743850517985 48.15275435080192 0.0
endloop
endfacet
facet normal 0.0 1.0 0.0
outer loop
vertex 89.71743850517986 48.15275435080192 0.0
vertex 49.51743850517985 48.15275435080192 1.9999999999999998
vertex 89.71743850517986 48.15275435080192 1.9999999999999998
endloop
endfacet
facet normal 1.0 0.0 0.0
outer loop
vertex 49.51743850517985 88.35275435080193 0.0
vertex 49.51743850517985 48.15275435080192 1.9999999999999998
vertex 49.51743850517985 48.15275435080192 0.0
endloop
endfacet
facet normal 1.0 0.0 0.0
outer loop
vertex 49.51743850517985 48.15275435080192 1.9999999999999998
vertex 49.51743850517985 88.35275435080193 0.0
vertex 49.51743850517985 88.35275435080193 1.9999999999999998
endloop
endfacet
endsolid m1d omer sniffer deksel
