solid m1d omer batterij houder wand
facet normal 0.0 0.0 -1.0
outer loop
vertex 121.25950111816917 44.768141492957064 0.0
vertex 47.65950111816918 19.768141492957064 0.0
vertex 47.65950111816918 44.768141492957064 0.0
endloop
endfacet
facet normal 0.0 0.0 -1.0
outer loop
vertex 47.65950111816918 19.768141492957064 0.0
vertex 121.25950111816917 44.768141492957064 0.0
vertex 121.25950111816917 19.768141492957064 0.0
endloop
endfacet
facet normal -0.0 -0.0 1.0
outer loop
vertex 121.25950111816917 19.768141492957064 1.7999999999999998
vertex 47.65950111816918 44.768141492957064 1.7999999999999998
vertex 47.65950111816918 19.768141492957064 1.7999999999999998
endloop
endfacet
facet normal -0.0 -0.0 1.0
outer loop
vertex 47.65950111816918 44.768141492957064 1.7999999999999998
vertex 121.25950111816917 19.768141492957064 1.7999999999999998
vertex 121.25950111816917 44.768141492957064 1.7999999999999998
endloop
endfacet
facet normal 1.0 0.0 0.0
outer loop
vertex 121.25950111816917 44.768141492957064 0.0
vertex 121.25950111816917 19.768141492957064 1.7999999999999998
vertex 121.25950111816917 19.768141492957064 0.0
endloop
endfacet
facet normal 1.0 0.0 0.0
outer loop
vertex 121.25950111816917 19.768141492957064 1.7999999999999998
vertex 121.25950111816917 44.768141492957064 0.0
vertex 121.25950111816917 44.768141492957064 1.7999999999999998
endloop
endfacet
facet normal -0.0 -1.0 -0.0
outer loop
vertex 121.25950111816917 19.768141492957064 1.7999999999999998
vertex 47.65950111816918 19.768141492957064 0.0
vertex 121.25950111816917 19.768141492957064 0.0
endloop
endfacet
facet normal -0.0 -1.0 -0.0
outer loop
vertex 47.65950111816918 19.768141492957064 0.0
vertex 121.25950111816917 19.768141492957064 1.7999999999999998
vertex 47.65950111816918 19.768141492957064 1.7999999999999998
endloop
endfacet
facet normal -1.0 0.0 0.0
outer loop
vertex 47.65950111816918 44.768141492957064 1.7999999999999998
vertex 47.65950111816918 19.768141492957064 0.0
vertex 47.65950111816918 19.768141492957064 1.7999999999999998
endloop
endfacet
facet normal -1.0 0.0 0.0
outer loop
vertex 47.65950111816918 19.768141492957064 0.0
vertex 47.65950111816918 44.768141492957064 1.7999999999999998
vertex 47.65950111816918 44.768141492957064 0.0
endloop
endfacet
facet normal -0.0 1.0 0.0
outer loop
vertex 47.65950111816918 44.768141492957064 1.7999999999999998
vertex 121.25950111816917 44.768141492957064 0.0
vertex 47.65950111816918 44.768141492957064 0.0
endloop
endfacet
facet normal -0.0 1.0 0.0
outer loop
vertex 121.25950111816917 44.768141492957064 0.0
vertex 47.65950111816918 44.768141492957064 1.7999999999999998
vertex 121.25950111816917 44.768141492957064 1.7999999999999998
endloop
endfacet
endsolid m1d omer batterij houder wand
