  0
SECTION
  2
HEADER
  9
$ACADVER
  1
AC1014
  9
$HANDSEED
  5
FFFF
  9
$MEASUREMENT
 70
     1
  0
ENDSEC
  0
SECTION
  2
TABLES
  0
TABLE
  2
VPORT
  5
8
330
0
100
AcDbSymbolTable
 70
     4
  0
VPORT
  5
2E
330
8
100
AcDbSymbolTableRecord
100
AcDbViewportTableRecord
  2
*ACTIVE
 70
     0
 10
0.0
 20
0.0
 11
1.0
 21
1.0
 12
210.0
 22
148.5
 13
0.0
 23
0.0
 14
10.0
 24
10.0
 15
10.0
 25
10.0
 16
0.0
 26
0.0
 36
1.0
 17
0.0
 27
0.0
 37
0.0
 40
341.0
 41
1.24
 42
50.0
 43
0.0
 44
0.0
 50
0.0
 51
0.0
 71
     0
 72
   100
 73
     1
 74
     3
 75
     0
 76
     0
 77
     0
 78
     0
  0
ENDTAB
  0
TABLE
  2
LTYPE
  5
5
330
0
100
AcDbSymbolTable
 70
     1
  0
LTYPE
  5
14
330
5
100
AcDbSymbolTableRecord
100
AcDbLinetypeTableRecord
  2
BYBLOCK
 70
     0
  3

 72
    65
 73
     0
 40
0.0
  0
LTYPE
  5
15
330
5
100
AcDbSymbolTableRecord
100
AcDbLinetypeTableRecord
  2
BYLAYER
 70
     0
  3

 72
    65
 73
     0
 40
0.0
  0
LTYPE
  5
16
330
5
100
AcDbSymbolTableRecord
100
AcDbLinetypeTableRecord
  2
CONTINUOUS
 70
     0
  3
Solid line
 72
    65
 73
     0
 40
0.0
  0
ENDTAB
  0
TABLE
  2
LAYER
  5
2
100
AcDbSymbolTable
 70
2
  0
LAYER
  5
50
100
AcDbSymbolTableRecord
100
AcDbLayerTableRecord
  2
0
 70
0
  6
CONTINUOUS
  0
LAYER
  5
51
100
AcDbSymbolTableRecord
100
AcDbLayerTableRecord
  2
Laag_1
 70
0
  6
CONTINUOUS
  0
ENDTAB
  0
TABLE
  2
STYLE
  5
3
330
0
100
AcDbSymbolTable
 70
     1
  0
STYLE
  5
11
330
3
100
AcDbSymbolTableRecord
100
AcDbTextStyleTableRecord
  2
STANDARD
 70
     0
 40
0.0
 41
1.0
 50
0.0
 71
     0
 42
2.5
  3
txt
  4

  0
ENDTAB
  0
TABLE
  2
VIEW
  5
6
330
0
100
AcDbSymbolTable
 70
     0
  0
ENDTAB
  0
TABLE
  2
UCS
  5
7
330
0
100
AcDbSymbolTable
 70
     0
  0
ENDTAB
  0
TABLE
  2
APPID
  5
9
330
0
100
AcDbSymbolTable
 70
     2
  0
APPID
  5
12
330
9
100
AcDbSymbolTableRecord
100
AcDbRegAppTableRecord
  2
ACAD
 70
     0
  0
ENDTAB
  0
TABLE
  2
DIMSTYLE
  5
A
330
0
100
AcDbSymbolTable
 70
     1
  0
DIMSTYLE
105
27
330
A
100
AcDbSymbolTableRecord
100
AcDbDimStyleTableRecord
  2
ISO-25
 70
     0
  3

  4

  5

  6

  7

 40
1.0
 41
2.5
 42
0.625
 43
3.75
 44
1.25
 45
0.0
 46
0.0
 47
0.0
 48
0.0
140
2.5
141
2.5
142
0.0
143
0.03937007874016
144
1.0
145
0.0
146
1.0
147
0.625
 71
     0
 72
     0
 73
     0
 74
     0
 75
     0
 76
     0
 77
     1
 78
     8
170
     0
171
     3
172
     1
173
     0
174
     0
175
     0
176
     0
177
     0
178
     0
270
     2
271
     2
272
     2
273
     2
274
     3
340
11
275
     0
280
     0
281
     0
282
     0
283
     0
284
     8
285
     0
286
     0
287
     3
288
     0
  0
ENDTAB
  0
TABLE
  2
BLOCK_RECORD
  5
1
330
0
100
AcDbSymbolTable
 70
     1
  0
BLOCK_RECORD
  5
1F
330
1
100
AcDbSymbolTableRecord
100
AcDbBlockTableRecord
  2
*MODEL_SPACE
  0
BLOCK_RECORD
  5
1B
330
1
100
AcDbSymbolTableRecord
100
AcDbBlockTableRecord
  2
*PAPER_SPACE
  0
ENDTAB
  0
ENDSEC
  0
SECTION
  2
BLOCKS
  0
BLOCK
  5
20
330
1F
100
AcDbEntity
  8
0
100
AcDbBlockBegin
  2
*MODEL_SPACE
 70
     0
 10
0.0
 20
0.0
 30
0.0
  3
*MODEL_SPACE
  1

  0
ENDBLK
  5
21
330
1F
100
AcDbEntity
  8
0
100
AcDbBlockEnd
  0
BLOCK
  5
1C
330
1B
100
AcDbEntity
 67
     1
  8
0
100
AcDbBlockBegin
  2
*PAPER_SPACE
  1

  0
ENDBLK
  5
1D
330
1B
100
AcDbEntity
 67
     1
  8
0
100
AcDbBlockEnd
  0
ENDSEC
  0
SECTION
  2
ENTITIES
  0
SPLINE
  5
100
100
AcDbEntity
  8
Laag_1
 62
7
100
AcDbSpline
 70
8
 71
3
 72
8
 73
4
 74
0
 40
0
 40
0
 40
0
 40
0
 40
1
 40
1
 40
1
 40
1
 10
180.768619
 20
283.155072
 30
0.0
 10
182.088639
 20
281.152986
 30
0.0
 10
183.096792
 20
278.700445
 30
0.0
 10
183.793067
 20
275.797449
 30
0.0
  0
SPLINE
  5
101
100
AcDbEntity
  8
Laag_1
 62
7
100
AcDbSpline
 70
8
 71
3
 72
8
 73
4
 74
0
 40
0
 40
0
 40
0
 40
0
 40
1
 40
1
 40
1
 40
1
 10
183.793067
 20
275.797449
 30
0.0
 10
184.503848
 20
272.894391
 30
0.0
 10
184.859236
 20
269.600927
 30
0.0
 10
184.859236
 20
265.917117
 30
0.0
  0
SPLINE
  5
102
100
AcDbEntity
  8
Laag_1
 62
7
100
AcDbSpline
 70
8
 71
3
 72
8
 73
4
 74
0
 40
0
 40
0
 40
0
 40
0
 40
1
 40
1
 40
1
 40
1
 10
184.859236
 20
265.917117
 30
0.0
 10
184.859236
 20
262.233306
 30
0.0
 10
184.496604
 20
258.929844
 30
0.0
 10
183.771305
 20
256.006791
 30
0.0
  0
SPLINE
  5
103
100
AcDbEntity
  8
Laag_1
 62
7
100
AcDbSpline
 70
8
 71
3
 72
8
 73
4
 74
0
 40
0
 40
0
 40
0
 40
0
 40
1
 40
1
 40
1
 40
1
 10
183.771305
 20
256.006791
 30
0.0
 10
183.060524
 20
253.103794
 30
0.0
 10
182.059629
 20
250.681247
 30
0.0
 10
180.768619
 20
248.739210
 30
0.0
  0
SPLINE
  5
104
100
AcDbEntity
  8
Laag_1
 62
7
100
AcDbSpline
 70
8
 71
3
 72
8
 73
4
 74
0
 40
0
 40
0
 40
0
 40
0
 40
1
 40
1
 40
1
 40
1
 10
180.768619
 20
248.739210
 30
0.0
 10
179.434089
 20
246.717129
 30
0.0
 10
177.852965
 20
245.195493
 30
0.0
 10
176.025243
 20
244.174424
 30
0.0
  0
SPLINE
  5
105
100
AcDbEntity
  8
Laag_1
 62
7
100
AcDbSpline
 70
8
 71
3
 72
8
 73
4
 74
0
 40
0
 40
0
 40
0
 40
0
 40
1
 40
1
 40
1
 40
1
 10
176.025243
 20
244.174424
 30
0.0
 10
174.212025
 20
243.153354
 30
0.0
 10
172.137704
 20
242.642850
 30
0.0
 10
169.802279
 20
242.642850
 30
0.0
  0
SPLINE
  5
106
100
AcDbEntity
  8
Laag_1
 62
7
100
AcDbSpline
 70
8
 71
3
 72
8
 73
4
 74
0
 40
0
 40
0
 40
0
 40
0
 40
1
 40
1
 40
1
 40
1
 10
169.802279
 20
242.642850
 30
0.0
 10
167.524879
 20
242.642850
 30
0.0
 10
165.450558
 20
243.163474
 30
0.0
 10
163.579315
 20
244.204478
 30
0.0
  0
SPLINE
  5
107
100
AcDbEntity
  8
Laag_1
 62
7
100
AcDbSpline
 70
8
 71
3
 72
8
 73
4
 74
0
 40
0
 40
0
 40
0
 40
0
 40
1
 40
1
 40
1
 40
1
 10
163.579315
 20
244.204478
 30
0.0
 10
161.722582
 20
245.245543
 30
0.0
 10
160.141453
 20
246.757120
 30
0.0
 10
158.835939
 20
248.739210
 30
0.0
  0
SPLINE
  5
108
100
AcDbEntity
  8
Laag_1
 62
7
100
AcDbSpline
 70
8
 71
3
 72
8
 73
4
 74
0
 40
0
 40
0
 40
0
 40
0
 40
1
 40
1
 40
1
 40
1
 10
158.835939
 20
248.739210
 30
0.0
 10
157.530424
 20
250.721300
 30
0.0
 10
156.522276
 20
253.153845
 30
0.0
 10
155.811495
 20
256.036845
 30
0.0
  0
SPLINE
  5
109
100
AcDbEntity
  8
Laag_1
 62
7
100
AcDbSpline
 70
8
 71
3
 72
8
 73
4
 74
0
 40
0
 40
0
 40
0
 40
0
 40
1
 40
1
 40
1
 40
1
 10
155.811495
 20
256.036845
 30
0.0
 10
155.115219
 20
258.919846
 30
0.0
 10
154.767080
 20
262.213249
 30
0.0
 10
154.767080
 20
265.917117
 30
0.0
  0
SPLINE
  5
10a
100
AcDbEntity
  8
Laag_1
 62
7
100
AcDbSpline
 70
8
 71
3
 72
8
 73
4
 74
0
 40
0
 40
0
 40
0
 40
0
 40
1
 40
1
 40
1
 40
1
 10
154.767080
 20
265.917117
 30
0.0
 10
154.767080
 20
269.560935
 30
0.0
 10
155.115224
 20
272.824345
 30
0.0
 10
155.811495
 20
275.707346
 30
0.0
  0
SPLINE
  5
10b
100
AcDbEntity
  8
Laag_1
 62
7
100
AcDbSpline
 70
8
 71
3
 72
8
 73
4
 74
0
 40
0
 40
0
 40
0
 40
0
 40
1
 40
1
 40
1
 40
1
 10
155.811495
 20
275.707346
 30
0.0
 10
156.507770
 20
278.610342
 30
0.0
 10
157.523171
 20
281.092938
 30
0.0
 10
158.857696
 20
283.155072
 30
0.0
  0
SPLINE
  5
10c
100
AcDbEntity
  8
Laag_1
 62
7
100
AcDbSpline
 70
8
 71
3
 72
8
 73
4
 74
0
 40
0
 40
0
 40
0
 40
0
 40
1
 40
1
 40
1
 40
1
 10
158.857696
 20
283.155072
 30
0.0
 10
160.134201
 20
285.117165
 30
0.0
 10
161.715329
 20
286.618745
 30
0.0
 10
163.601077
 20
287.659810
 30
0.0
  0
SPLINE
  5
10d
100
AcDbEntity
  8
Laag_1
 62
7
100
AcDbSpline
 70
8
 71
3
 72
8
 73
4
 74
0
 40
0
 40
0
 40
0
 40
0
 40
1
 40
1
 40
1
 40
1
 10
163.601077
 20
287.659810
 30
0.0
 10
165.501326
 20
288.700875
 30
0.0
 10
167.568395
 20
289.221438
 30
0.0
 10
169.802279
 20
289.221438
 30
0.0
  0
SPLINE
  5
10e
100
AcDbEntity
  8
Laag_1
 62
7
100
AcDbSpline
 70
8
 71
3
 72
8
 73
4
 74
0
 40
0
 40
0
 40
0
 40
0
 40
1
 40
1
 40
1
 40
1
 10
169.802279
 20
289.221438
 30
0.0
 10
172.123199
 20
289.221438
 30
0.0
 10
174.204773
 20
288.691060
 30
0.0
 10
176.047000
 20
287.629755
 30
0.0
  0
SPLINE
  5
10f
100
AcDbEntity
  8
Laag_1
 62
7
100
AcDbSpline
 70
8
 71
3
 72
8
 73
4
 74
0
 40
0
 40
0
 40
0
 40
0
 40
1
 40
1
 40
1
 40
1
 10
176.047000
 20
287.629755
 30
0.0
 10
178.725058
 20
286.809803
 30
0.0
 10
231.126904
 20
315.330300
 30
0.0
 10
180.768619
 20
283.155072
 30
0.0
  0
SPLINE
  5
110
100
AcDbEntity
  8
Laag_1
 62
7
100
AcDbSpline
 70
8
 71
3
 72
8
 73
4
 74
0
 40
0
 40
0
 40
0
 40
0
 40
1
 40
1
 40
1
 40
1
 10
180.376968
 20
265.917117
 30
0.0
 10
180.376968
 20
271.723171
 30
0.0
 10
179.434094
 20
276.197854
 30
0.0
 10
177.548350
 20
279.341105
 30
0.0
  0
SPLINE
  5
111
100
AcDbEntity
  8
Laag_1
 62
7
100
AcDbSpline
 70
8
 71
3
 72
8
 73
4
 74
0
 40
0
 40
0
 40
0
 40
0
 40
1
 40
1
 40
1
 40
1
 10
177.548350
 20
279.341105
 30
0.0
 10
175.662602
 20
282.504414
 30
0.0
 10
173.087831
 20
284.086098
 30
0.0
 10
169.824041
 20
284.086098
 30
0.0
  0
SPLINE
  5
112
100
AcDbEntity
  8
Laag_1
 62
7
100
AcDbSpline
 70
8
 71
3
 72
8
 73
4
 74
0
 40
0
 40
0
 40
0
 40
0
 40
1
 40
1
 40
1
 40
1
 10
169.824041
 20
284.086098
 30
0.0
 10
166.531241
 20
284.086098
 30
0.0
 10
163.941965
 20
282.504414
 30
0.0
 10
162.056217
 20
279.341105
 30
0.0
  0
SPLINE
  5
113
100
AcDbEntity
  8
Laag_1
 62
7
100
AcDbSpline
 70
8
 71
3
 72
8
 73
4
 74
0
 40
0
 40
0
 40
0
 40
0
 40
1
 40
1
 40
1
 40
1
 10
162.056217
 20
279.341105
 30
0.0
 10
160.184978
 20
276.197854
 30
0.0
 10
159.249357
 20
271.723171
 30
0.0
 10
159.249357
 20
265.917117
 30
0.0
  0
SPLINE
  5
114
100
AcDbEntity
  8
Laag_1
 62
7
100
AcDbSpline
 70
8
 71
3
 72
8
 73
4
 74
0
 40
0
 40
0
 40
0
 40
0
 40
1
 40
1
 40
1
 40
1
 10
159.249357
 20
265.917117
 30
0.0
 10
159.249357
 20
260.051014
 30
0.0
 10
160.206736
 20
255.556335
 30
0.0
 10
162.121495
 20
252.433079
 30
0.0
  0
SPLINE
  5
115
100
AcDbEntity
  8
Laag_1
 62
7
100
AcDbSpline
 70
8
 71
3
 72
8
 73
4
 74
0
 40
0
 40
0
 40
0
 40
0
 40
1
 40
1
 40
1
 40
1
 10
162.121495
 20
252.433079
 30
0.0
 10
164.036254
 20
249.329819
 30
0.0
 10
166.603767
 20
247.778190
 30
0.0
 10
169.824041
 20
247.778190
 30
0.0
  0
SPLINE
  5
116
100
AcDbEntity
  8
Laag_1
 62
7
100
AcDbSpline
 70
8
 71
3
 72
8
 73
4
 74
0
 40
0
 40
0
 40
0
 40
0
 40
1
 40
1
 40
1
 40
1
 10
169.824041
 20
247.778190
 30
0.0
 10
173.044315
 20
247.778190
 30
0.0
 10
175.604581
 20
249.329819
 30
0.0
 10
177.504830
 20
252.433079
 30
0.0
  0
SPLINE
  5
117
100
AcDbEntity
  8
Laag_1
 62
7
100
AcDbSpline
 70
8
 71
3
 72
8
 73
4
 74
0
 40
0
 40
0
 40
0
 40
0
 40
1
 40
1
 40
1
 40
1
 10
177.504830
 20
252.433079
 30
0.0
 10
179.419588
 20
255.556335
 30
0.0
 10
180.376968
 20
260.051014
 30
0.0
 10
180.376968
 20
265.917117
 30
0.0
  0
LWPOLYLINE
  5
118
100
AcDbEntity
  8
Laag_1
 62
7
100
AcDbPolyline
 90
1
 70
1
 10
180.768619
 20
283.155072
 30
0.0
  0
LWPOLYLINE
  5
119
100
AcDbEntity
  8
Laag_1
 62
7
100
AcDbPolyline
 90
1
 70
1
 10
180.376968
 20
265.917117
 30
0.0
  0
SPLINE
  5
11a
100
AcDbEntity
  8
Laag_1
 62
7
100
AcDbSpline
 70
8
 71
3
 72
8
 73
4
 74
0
 40
0
 40
0
 40
0
 40
0
 40
1
 40
1
 40
1
 40
1
 10
253.725233
 20
257.328163
 30
0.0
 10
253.725233
 20
255.105880
 30
0.0
 10
253.420595
 20
253.143786
 30
0.0
 10
252.811374
 20
251.442004
 30
0.0
  0
SPLINE
  5
11b
100
AcDbEntity
  8
Laag_1
 62
7
100
AcDbSpline
 70
8
 71
3
 72
8
 73
4
 74
0
 40
0
 40
0
 40
0
 40
0
 40
1
 40
1
 40
1
 40
1
 10
252.811374
 20
251.442004
 30
0.0
 10
252.202130
 20
249.740222
 30
0.0
 10
251.382555
 20
248.338805
 30
0.0
 10
250.352649
 20
247.237631
 30
0.0
  0
SPLINE
  5
11c
100
AcDbEntity
  8
Laag_1
 62
7
100
AcDbSpline
 70
8
 71
3
 72
8
 73
4
 74
0
 40
0
 40
0
 40
0
 40
0
 40
1
 40
1
 40
1
 40
1
 10
250.352649
 20
247.237631
 30
0.0
 10
249.134166
 20
245.916258
 30
0.0
 10
247.792388
 20
244.975294
 30
0.0
 10
246.327306
 20
244.414679
 30
0.0
  0
SPLINE
  5
11d
100
AcDbEntity
  8
Laag_1
 62
7
100
AcDbSpline
 70
8
 71
3
 72
8
 73
4
 74
0
 40
0
 40
0
 40
0
 40
0
 40
1
 40
1
 40
1
 40
1
 10
246.327306
 20
244.414679
 30
0.0
 10
244.876734
 20
243.853819
 30
0.0
 10
243.027253
 20
243.573816
 30
0.0
 10
240.778860
 20
243.573816
 30
0.0
  0
LWPOLYLINE
  5
11e
100
AcDbEntity
  8
Laag_1
 62
7
100
AcDbPolyline
 90
13
 70
1
 10
220.543355
 20
243.573816
 30
0.0
 10
216.235150
 20
243.573816
 30
0.0
 10
216.235150
 20
282.104009
 30
0.0
 10
207.227088
 20
255.886633
 30
0.0
 10
204.659570
 20
255.886633
 30
0.0
 10
195.716782
 20
282.104009
 30
0.0
 10
195.716782
 20
243.573816
 30
0.0
 10
191.691439
 20
243.573816
 30
0.0
 10
191.691439
 20
288.290472
 30
0.0
 10
197.566263
 20
288.290472
 30
0.0
 10
206.204431
 20
263.394468
 30
0.0
 10
214.559737
 20
288.290472
 30
0.0
 10
220.543355
 20
288.290472
 30
0.0
  0
SPLINE
  5
11f
100
AcDbEntity
  8
Laag_1
 62
7
100
AcDbSpline
 70
8
 71
3
 72
8
 73
4
 74
0
 40
0
 40
0
 40
0
 40
0
 40
1
 40
1
 40
1
 40
1
 10
238.885864
 20
288.290472
 30
0.0
 10
241.250299
 20
288.290472
 30
0.0
 10
243.019996
 20
288.170375
 30
0.0
 10
244.194964
 20
287.930181
 30
0.0
  0
SPLINE
  5
120
100
AcDbEntity
  8
Laag_1
 62
7
100
AcDbSpline
 70
8
 71
3
 72
8
 73
4
 74
0
 40
0
 40
0
 40
0
 40
0
 40
1
 40
1
 40
1
 40
1
 10
244.194964
 20
287.930181
 30
0.0
 10
245.369931
 20
287.689986
 30
0.0
 10
265.055676
 20
299.474985
 30
0.0
 10
266.129102
 20
298.714167
 30
0.0
  0
SPLINE
  5
121
100
AcDbEntity
  8
Laag_1
 62
7
100
AcDbSpline
 70
8
 71
3
 72
8
 73
4
 74
0
 40
0
 40
0
 40
0
 40
0
 40
1
 40
1
 40
1
 40
1
 10
266.129102
 20
298.714167
 30
0.0
 10
267.318570
 20
297.853248
 30
0.0
 10
249.620111
 20
284.456571
 30
0.0
 10
250.156824
 20
283.095145
 30
0.0
  0
SPLINE
  5
122
100
AcDbEntity
  8
Laag_1
 62
7
100
AcDbSpline
 70
8
 71
3
 72
8
 73
4
 74
0
 40
0
 40
0
 40
0
 40
0
 40
1
 40
1
 40
1
 40
1
 10
250.156824
 20
283.095145
 30
0.0
 10
250.693537
 20
281.753777
 30
0.0
 10
250.961893
 20
280.142098
 30
0.0
 10
250.961893
 20
278.260110
 30
0.0
  0
SPLINE
  5
123
100
AcDbEntity
  8
Laag_1
 62
7
100
AcDbSpline
 70
8
 71
3
 72
8
 73
4
 74
0
 40
0
 40
0
 40
0
 40
0
 40
1
 40
1
 40
1
 40
1
 10
250.961893
 20
278.260110
 30
0.0
 10
250.961893
 20
276.137927
 30
0.0
 10
250.570242
 20
274.326046
 30
0.0
 10
249.786926
 20
272.824467
 30
0.0
  0
SPLINE
  5
124
100
AcDbEntity
  8
Laag_1
 62
7
100
AcDbSpline
 70
8
 71
3
 72
8
 73
4
 74
0
 40
0
 40
0
 40
0
 40
0
 40
1
 40
1
 40
1
 40
1
 10
249.786926
 20
272.824467
 30
0.0
 10
249.003619
 20
271.342883
 30
0.0
 10
247.959203
 20
270.151667
 30
0.0
 10
246.653688
 20
269.250695
 30
0.0
  0
LWPOLYLINE
  5
125
100
AcDbEntity
  8
Laag_1
 62
7
100
AcDbPolyline
 90
4
 70
0
 10
240.778860
 20
243.573816
 30
0.0
 10
229.290316
 20
243.573816
 30
0.0
 10
229.290316
 20
288.290472
 30
0.0
 10
238.885864
 20
288.290472
 30
0.0
  0
SPLINE
  5
126
100
AcDbEntity
  8
Laag_1
 62
7
100
AcDbSpline
 70
8
 71
3
 72
8
 73
4
 74
0
 40
0
 40
0
 40
0
 40
0
 40
1
 40
1
 40
1
 40
1
 10
246.653688
 20
269.010500
 30
0.0
 10
248.844052
 20
268.389836
 30
0.0
 10
250.570237
 20
267.058466
 30
0.0
 10
251.832236
 20
265.016388
 30
0.0
  0
SPLINE
  5
127
100
AcDbEntity
  8
Laag_1
 62
7
100
AcDbSpline
 70
8
 71
3
 72
8
 73
4
 74
0
 40
0
 40
0
 40
0
 40
0
 40
1
 40
1
 40
1
 40
1
 10
251.832236
 20
265.016388
 30
0.0
 10
253.094235
 20
262.994246
 30
0.0
 10
253.725233
 20
260.431545
 30
0.0
 10
253.725233
 20
257.328346
 30
0.0
  0
LWPOLYLINE
  5
128
100
AcDbEntity
  8
Laag_1
 62
7
100
AcDbPolyline
 90
2
 70
0
 10
246.653688
 20
269.250695
 30
0.0
 10
246.653688
 20
269.010500
 30
0.0
  0
SPLINE
  5
129
100
AcDbEntity
  8
Laag_1
 62
7
100
AcDbSpline
 70
8
 71
3
 72
8
 73
4
 74
0
 40
0
 40
0
 40
0
 40
0
 40
1
 40
1
 40
1
 40
1
 10
246.479616
 20
277.479174
 30
0.0
 10
246.479616
 20
278.560291
 30
0.0
 10
246.349051
 20
279.471261
 30
0.0
 10
246.087965
 20
280.212023
 30
0.0
  0
SPLINE
  5
12a
100
AcDbEntity
  8
Laag_1
 62
7
100
AcDbSpline
 70
8
 71
3
 72
8
 73
4
 74
0
 40
0
 40
0
 40
0
 40
0
 40
1
 40
1
 40
1
 40
1
 10
246.087965
 20
280.212023
 30
0.0
 10
245.826878
 20
280.952784
 30
0.0
 10
245.406194
 20
281.553452
 30
0.0
 10
244.825961
 20
282.013906
 30
0.0
  0
SPLINE
  5
12b
100
AcDbEntity
  8
Laag_1
 62
7
100
AcDbSpline
 70
8
 71
3
 72
8
 73
4
 74
0
 40
0
 40
0
 40
0
 40
0
 40
1
 40
1
 40
1
 40
1
 10
244.825961
 20
282.013906
 30
0.0
 10
244.144191
 20
282.554647
 30
0.0
 10
243.317368
 20
282.884823
 30
0.0
 10
242.345483
 20
283.004920
 30
0.0
  0
SPLINE
  5
12c
100
AcDbEntity
  8
Laag_1
 62
7
100
AcDbSpline
 70
8
 71
3
 72
8
 73
4
 74
0
 40
0
 40
0
 40
0
 40
0
 40
1
 40
1
 40
1
 40
1
 10
242.345483
 20
283.004920
 30
0.0
 10
241.373599
 20
283.145135
 30
0.0
 10
240.169621
 20
283.215242
 30
0.0
 10
238.733554
 20
283.215242
 30
0.0
  0
LWPOLYLINE
  5
12d
100
AcDbEntity
  8
Laag_1
 62
7
100
AcDbPolyline
 90
2
 70
0
 10
253.725233
 20
257.328346
 30
0.0
 10
253.725233
 20
257.328163
 30
0.0
  0
SPLINE
  5
12e
100
AcDbEntity
  8
Laag_1
 62
7
100
AcDbSpline
 70
8
 71
3
 72
8
 73
4
 74
0
 40
0
 40
0
 40
0
 40
0
 40
1
 40
1
 40
1
 40
1
 10
239.168725
 20
270.301758
 30
0.0
 10
240.517756
 20
270.301758
 30
0.0
 10
241.591182
 20
270.391983
 30
0.0
 10
242.388999
 20
270.571824
 30
0.0
  0
SPLINE
  5
12f
100
AcDbEntity
  8
Laag_1
 62
7
100
AcDbSpline
 70
8
 71
3
 72
8
 73
4
 74
0
 40
0
 40
0
 40
0
 40
0
 40
1
 40
1
 40
1
 40
1
 10
242.388999
 20
270.571824
 30
0.0
 10
243.186816
 20
270.772392
 30
0.0
 10
243.926607
 20
271.172919
 30
0.0
 10
244.608377
 20
271.773099
 30
0.0
  0
SPLINE
  5
130
100
AcDbEntity
  8
Laag_1
 62
7
100
AcDbSpline
 70
8
 71
3
 72
8
 73
4
 74
0
 40
0
 40
0
 40
0
 40
0
 40
1
 40
1
 40
1
 40
1
 10
244.608377
 20
271.773099
 30
0.0
 10
245.290148
 20
272.373585
 30
0.0
 10
245.768835
 20
273.144584
 30
0.0
 10
246.044444
 20
274.085547
 30
0.0
  0
SPLINE
  5
131
100
AcDbEntity
  8
Laag_1
 62
7
100
AcDbSpline
 70
8
 71
3
 72
8
 73
4
 74
0
 40
0
 40
0
 40
0
 40
0
 40
1
 40
1
 40
1
 40
1
 10
246.044444
 20
274.085547
 30
0.0
 10
246.334550
 20
275.046507
 30
0.0
 10
246.479603
 20
276.177675
 30
0.0
 10
246.479603
 20
277.479052
 30
0.0
  0
LWPOLYLINE
  5
132
100
AcDbEntity
  8
Laag_1
 62
7
100
AcDbPolyline
 90
4
 70
0
 10
238.733554
 20
283.215242
 30
0.0
 10
233.598521
 20
283.215242
 30
0.0
 10
233.598521
 20
270.301758
 30
0.0
 10
239.168725
 20
270.301758
 30
0.0
  0
SPLINE
  5
133
100
AcDbEntity
  8
Laag_1
 62
7
100
AcDbSpline
 70
8
 71
3
 72
8
 73
4
 74
0
 40
0
 40
0
 40
0
 40
0
 40
1
 40
1
 40
1
 40
1
 10
249.242960
 20
257.087908
 30
0.0
 10
249.242960
 20
258.889791
 30
0.0
 10
249.047112
 20
260.321263
 30
0.0
 10
248.655479
 20
261.382385
 30
0.0
  0
SPLINE
  5
134
100
AcDbEntity
  8
Laag_1
 62
7
100
AcDbSpline
 70
8
 71
3
 72
8
 73
4
 74
0
 40
0
 40
0
 40
0
 40
0
 40
1
 40
1
 40
1
 40
1
 10
248.655479
 20
261.382385
 30
0.0
 10
248.263827
 20
262.443507
 30
0.0
 10
247.553042
 20
263.344479
 30
0.0
 10
246.523136
 20
264.085240
 30
0.0
  0
SPLINE
  5
135
100
AcDbEntity
  8
Laag_1
 62
7
100
AcDbSpline
 70
8
 71
3
 72
8
 73
4
 74
0
 40
0
 40
0
 40
0
 40
0
 40
1
 40
1
 40
1
 40
1
 10
246.523136
 20
264.085240
 30
0.0
 10
245.826861
 20
264.585746
 30
0.0
 10
244.978271
 20
264.906045
 30
0.0
 10
243.977376
 20
265.046199
 30
0.0
  0
SPLINE
  5
136
100
AcDbEntity
  8
Laag_1
 62
7
100
AcDbSpline
 70
8
 71
3
 72
8
 73
4
 74
0
 40
0
 40
0
 40
0
 40
0
 40
1
 40
1
 40
1
 40
1
 10
243.977376
 20
265.046199
 30
0.0
 10
242.990986
 20
265.206532
 30
0.0
 10
241.787012
 20
265.286394
 30
0.0
 10
240.365446
 20
265.286394
 30
0.0
  0
LWPOLYLINE
  5
137
100
AcDbEntity
  8
Laag_1
 62
7
100
AcDbPolyline
 90
2
 70
0
 10
246.479603
 20
277.479052
 30
0.0
 10
246.479616
 20
277.479174
 30
0.0
  0
SPLINE
  5
138
100
AcDbEntity
  8
Laag_1
 62
7
100
AcDbSpline
 70
8
 71
3
 72
8
 73
4
 74
0
 40
0
 40
0
 40
0
 40
0
 40
1
 40
1
 40
1
 40
1
 10
239.299277
 20
248.649046
 30
0.0
 10
241.185021
 20
248.649046
 30
0.0
 10
242.729882
 20
248.778897
 30
0.0
 10
243.933860
 20
249.039209
 30
0.0
  0
SPLINE
  5
139
100
AcDbEntity
  8
Laag_1
 62
7
100
AcDbSpline
 70
8
 71
3
 72
8
 73
4
 74
0
 40
0
 40
0
 40
0
 40
0
 40
1
 40
1
 40
1
 40
1
 10
243.933860
 20
249.039209
 30
0.0
 10
245.137838
 20
249.319639
 30
0.0
 10
246.124228
 20
249.820145
 30
0.0
 10
246.893030
 20
250.540788
 30
0.0
  0
SPLINE
  5
13a
100
AcDbEntity
  8
Laag_1
 62
7
100
AcDbSpline
 70
8
 71
3
 72
8
 73
4
 74
0
 40
0
 40
0
 40
0
 40
0
 40
1
 40
1
 40
1
 40
1
 10
246.893030
 20
250.540788
 30
0.0
 10
247.705352
 20
251.321602
 30
0.0
 10
248.300086
 20
252.212515
 30
0.0
 10
248.677236
 20
253.213588
 30
0.0
  0
SPLINE
  5
13b
100
AcDbEntity
  8
Laag_1
 62
7
100
AcDbSpline
 70
8
 71
3
 72
8
 73
4
 74
0
 40
0
 40
0
 40
0
 40
0
 40
1
 40
1
 40
1
 40
1
 10
248.677236
 20
253.213588
 30
0.0
 10
249.054400
 20
254.214601
 30
0.0
 10
249.242960
 20
255.505919
 30
0.0
 10
249.242960
 20
257.087603
 30
0.0
  0
LWPOLYLINE
  5
13c
100
AcDbEntity
  8
Laag_1
 62
7
100
AcDbPolyline
 90
4
 70
0
 10
240.365446
 20
265.286394
 30
0.0
 10
233.598521
 20
265.286394
 30
0.0
 10
233.598521
 20
248.649046
 30
0.0
 10
239.299277
 20
248.649046
 30
0.0
  0
LWPOLYLINE
  5
13d
100
AcDbEntity
  8
Laag_1
 62
7
100
AcDbPolyline
 90
2
 70
0
 10
249.242960
 20
257.087603
 30
0.0
 10
249.242960
 20
257.087908
 30
0.0
  0
LWPOLYLINE
  5
13e
100
AcDbEntity
  8
Laag_1
 62
7
100
AcDbPolyline
 90
12
 70
1
 10
281.184597
 20
243.573816
 30
0.0
 10
259.839402
 20
243.573816
 30
0.0
 10
259.839402
 20
288.290472
 30
0.0
 10
281.184597
 20
288.290472
 30
0.0
 10
281.184597
 20
283.004920
 30
0.0
 10
264.147607
 20
283.004920
 30
0.0
 10
264.147607
 20
270.752152
 30
0.0
 10
281.184597
 20
270.752152
 30
0.0
 10
281.184597
 20
265.466661
 30
0.0
 10
264.147607
 20
265.466661
 30
0.0
 10
264.147607
 20
248.859307
 30
0.0
 10
281.184597
 20
248.859307
 30
0.0
  0
SPLINE
  5
13f
100
AcDbEntity
  8
Laag_1
 62
7
100
AcDbSpline
 70
8
 71
3
 72
8
 73
4
 74
0
 40
0
 40
0
 40
0
 40
0
 40
1
 40
1
 40
1
 40
1
 10
297.111898
 20
288.290472
 30
0.0
 10
299.070172
 20
288.290472
 30
0.0
 10
300.702068
 20
288.110225
 30
0.0
 10
302.007584
 20
287.749730
 30
0.0
  0
SPLINE
  5
140
100
AcDbEntity
  8
Laag_1
 62
7
100
AcDbSpline
 70
8
 71
3
 72
8
 73
4
 74
0
 40
0
 40
0
 40
0
 40
0
 40
1
 40
1
 40
1
 40
1
 10
302.007584
 20
287.749730
 30
0.0
 10
303.313101
 20
287.409557
 30
0.0
 10
304.488066
 20
286.788892
 30
0.0
 10
305.532482
 20
285.887738
 30
0.0
  0
SPLINE
  5
141
100
AcDbEntity
  8
Laag_1
 62
7
100
AcDbSpline
 70
8
 71
3
 72
8
 73
4
 74
0
 40
0
 40
0
 40
0
 40
0
 40
1
 40
1
 40
1
 40
1
 10
305.532482
 20
285.887738
 30
0.0
 10
306.707445
 20
284.866689
 30
0.0
 10
307.621305
 20
283.575351
 30
0.0
 10
308.274064
 20
282.013723
 30
0.0
  0
SPLINE
  5
142
100
AcDbEntity
  8
Laag_1
 62
7
100
AcDbSpline
 70
8
 71
3
 72
8
 73
4
 74
0
 40
0
 40
0
 40
0
 40
0
 40
1
 40
1
 40
1
 40
1
 10
308.274064
 20
282.013723
 30
0.0
 10
308.941327
 20
280.472131
 30
0.0
 10
309.274959
 20
278.510078
 30
0.0
 10
309.274959
 20
276.127563
 30
0.0
  0
SPLINE
  5
143
100
AcDbEntity
  8
Laag_1
 62
7
100
AcDbSpline
 70
8
 71
3
 72
8
 73
4
 74
0
 40
0
 40
0
 40
0
 40
0
 40
1
 40
1
 40
1
 40
1
 10
309.274959
 20
276.127563
 30
0.0
 10
309.274959
 20
272.904206
 30
0.0
 10
308.687477
 20
270.201392
 30
0.0
 10
307.512514
 20
268.019120
 30
0.0
  0
SPLINE
  5
144
100
AcDbEntity
  8
Laag_1
 62
7
100
AcDbSpline
 70
8
 71
3
 72
8
 73
4
 74
0
 40
0
 40
0
 40
0
 40
0
 40
1
 40
1
 40
1
 40
1
 10
307.512514
 20
268.019120
 30
0.0
 10
306.337548
 20
265.856885
 30
0.0
 10
304.720158
 20
264.225191
 30
0.0
 10
302.660344
 20
263.124036
 30
0.0
  0
LWPOLYLINE
  5
145
100
AcDbEntity
  8
Laag_1
 62
7
100
AcDbPolyline
 90
8
 70
0
 10
314.845163
 20
243.573816
 30
0.0
 10
309.253201
 20
243.573816
 30
0.0
 10
298.417413
 20
261.352330
 30
0.0
 10
292.346763
 20
261.352330
 30
0.0
 10
292.346763
 20
243.573816
 30
0.0
 10
288.038558
 20
243.573816
 30
0.0
 10
288.038558
 20
288.290472
 30
0.0
 10
297.111898
 20
288.290472
 30
0.0
  0
SPLINE
  5
146
100
AcDbEntity
  8
Laag_1
 62
7
100
AcDbSpline
 70
8
 71
3
 72
8
 73
4
 74
0
 40
0
 40
0
 40
0
 40
0
 40
1
 40
1
 40
1
 40
1
 10
304.770928
 20
275.707346
 30
0.0
 10
304.770928
 20
276.988666
 30
0.0
 10
304.604112
 20
278.119834
 30
0.0
 10
304.270478
 20
279.100850
 30
0.0
  0
SPLINE
  5
147
100
AcDbEntity
  8
Laag_1
 62
7
100
AcDbSpline
 70
8
 71
3
 72
8
 73
4
 74
0
 40
0
 40
0
 40
0
 40
0
 40
1
 40
1
 40
1
 40
1
 10
304.270478
 20
279.100850
 30
0.0
 10
303.951353
 20
280.101903
 30
0.0
 10
303.414642
 20
280.942786
 30
0.0
 10
302.660344
 20
281.623499
 30
0.0
  0
SPLINE
  5
148
100
AcDbEntity
  8
Laag_1
 62
7
100
AcDbSpline
 70
8
 71
3
 72
8
 73
4
 74
0
 40
0
 40
0
 40
0
 40
0
 40
1
 40
1
 40
1
 40
1
 10
302.660344
 20
281.623499
 30
0.0
 10
302.036596
 20
282.204110
 30
0.0
 10
301.296803
 20
282.604535
 30
0.0
 10
300.440965
 20
282.824774
 30
0.0
  0
SPLINE
  5
149
100
AcDbEntity
  8
Laag_1
 62
7
100
AcDbSpline
 70
8
 71
3
 72
8
 73
4
 74
0
 40
0
 40
0
 40
0
 40
0
 40
1
 40
1
 40
1
 40
1
 10
300.440965
 20
282.824774
 30
0.0
 10
299.585127
 20
283.064968
 30
0.0
 10
298.576978
 20
283.185066
 30
0.0
 10
297.416517
 20
283.185066
 30
0.0
  0
LWPOLYLINE
  5
14a
100
AcDbEntity
  8
Laag_1
 62
7
100
AcDbPolyline
 90
2
 70
0
 10
302.660344
 20
263.124036
 30
0.0
 10
314.845163
 20
243.573816
 30
0.0
  0
SPLINE
  5
14b
100
AcDbEntity
  8
Laag_1
 62
7
100
AcDbSpline
 70
8
 71
3
 72
8
 73
4
 74
0
 40
0
 40
0
 40
0
 40
0
 40
1
 40
1
 40
1
 40
1
 10
296.698484
 20
266.307463
 30
0.0
 10
298.062024
 20
266.307463
 30
0.0
 10
299.251496
 20
266.467592
 30
0.0
 10
300.266898
 20
266.787851
 30
0.0
  0
SPLINE
  5
14c
100
AcDbEntity
  8
Laag_1
 62
7
100
AcDbSpline
 70
8
 71
3
 72
8
 73
4
 74
0
 40
0
 40
0
 40
0
 40
0
 40
1
 40
1
 40
1
 40
1
 10
300.266898
 20
266.787851
 30
0.0
 10
301.282300
 20
267.128024
 30
0.0
 10
302.145390
 20
267.748668
 30
0.0
 10
302.856169
 20
268.649783
 30
0.0
  0
SPLINE
  5
14d
100
AcDbEntity
  8
Laag_1
 62
7
100
AcDbSpline
 70
8
 71
3
 72
8
 73
4
 74
0
 40
0
 40
0
 40
0
 40
0
 40
1
 40
1
 40
1
 40
1
 10
302.856169
 20
268.649783
 30
0.0
 10
303.508928
 20
269.490665
 30
0.0
 10
303.987618
 20
270.451666
 30
0.0
 10
304.292241
 20
271.532783
 30
0.0
  0
SPLINE
  5
14e
100
AcDbEntity
  8
Laag_1
 62
7
100
AcDbSpline
 70
8
 71
3
 72
8
 73
4
 74
0
 40
0
 40
0
 40
0
 40
0
 40
1
 40
1
 40
1
 40
1
 10
304.292241
 20
271.532783
 30
0.0
 10
304.611366
 20
272.633937
 30
0.0
 10
304.770928
 20
274.025397
 30
0.0
 10
304.770928
 20
275.707163
 30
0.0
  0
LWPOLYLINE
  5
14f
100
AcDbEntity
  8
Laag_1
 62
7
100
AcDbPolyline
 90
4
 70
0
 10
297.416517
 20
283.185066
 30
0.0
 10
292.346763
 20
283.185066
 30
0.0
 10
292.346763
 20
266.307463
 30
0.0
 10
296.698484
 20
266.307463
 30
0.0
  0
SPLINE
  5
150
100
AcDbEntity
  8
Laag_1
 62
7
100
AcDbSpline
 70
8
 71
3
 72
8
 73
4
 74
0
 40
0
 40
0
 40
0
 40
0
 40
1
 40
1
 40
1
 40
1
 10
346.395157
 20
265.887062
 30
0.0
 10
346.395157
 20
261.822842
 30
0.0
 10
345.749664
 20
258.138971
 30
0.0
 10
344.458632
 20
254.835570
 30
0.0
  0
SPLINE
  5
151
100
AcDbEntity
  8
Laag_1
 62
7
100
AcDbSpline
 70
8
 71
3
 72
8
 73
4
 74
0
 40
0
 40
0
 40
0
 40
0
 40
1
 40
1
 40
1
 40
1
 10
344.458632
 20
254.835570
 30
0.0
 10
343.182132
 20
251.532107
 30
0.0
 10
341.477718
 20
248.969406
 30
0.0
 10
339.345344
 20
247.147527
 30
0.0
  0
SPLINE
  5
152
100
AcDbEntity
  8
Laag_1
 62
7
100
AcDbSpline
 70
8
 71
3
 72
8
 73
4
 74
0
 40
0
 40
0
 40
0
 40
0
 40
1
 40
1
 40
1
 40
1
 10
339.345344
 20
247.147527
 30
0.0
 10
337.865797
 20
245.886264
 30
0.0
 10
336.212133
 20
244.975294
 30
0.0
 10
334.384397
 20
244.414679
 30
0.0
  0
SPLINE
  5
153
100
AcDbEntity
  8
Laag_1
 62
7
100
AcDbSpline
 70
8
 71
3
 72
8
 73
4
 74
0
 40
0
 40
0
 40
0
 40
0
 40
1
 40
1
 40
1
 40
1
 10
334.384397
 20
244.414679
 30
0.0
 10
332.571193
 20
243.853819
 30
0.0
 10
330.177734
 20
243.573816
 30
0.0
 10
327.204063
 20
243.573816
 30
0.0
  0
LWPOLYLINE
  5
154
100
AcDbEntity
  8
Laag_1
 62
7
100
AcDbPolyline
 90
2
 70
0
 10
304.770928
 20
275.707163
 30
0.0
 10
304.770928
 20
275.707346
 30
0.0
  0
SPLINE
  5
155
100
AcDbEntity
  8
Laag_1
 62
7
100
AcDbSpline
 70
8
 71
3
 72
8
 73
4
 74
0
 40
0
 40
0
 40
0
 40
0
 40
1
 40
1
 40
1
 40
1
 10
348.536320
 20
298.460439
 30
0.0
 10
351.506590
 20
299.483947
 30
0.0
 10
332.788772
 20
287.970111
 30
0.0
 10
334.645483
 20
287.329451
 30
0.0
  0
SPLINE
  5
156
100
AcDbEntity
  8
Laag_1
 62
7
100
AcDbSpline
 70
8
 71
3
 72
8
 73
4
 74
0
 40
0
 40
0
 40
0
 40
0
 40
1
 40
1
 40
1
 40
1
 10
334.645483
 20
287.329451
 30
0.0
 10
336.516726
 20
286.708787
 30
0.0
 10
338.097864
 20
285.847929
 30
0.0
 10
339.388895
 20
284.746754
 30
0.0
  0
SPLINE
  5
157
100
AcDbEntity
  8
Laag_1
 62
7
100
AcDbSpline
 70
8
 71
3
 72
8
 73
4
 74
0
 40
0
 40
0
 40
0
 40
0
 40
1
 40
1
 40
1
 40
1
 10
339.388895
 20
284.746754
 30
0.0
 10
341.593751
 20
282.844770
 30
0.0
 10
343.312697
 20
280.312124
 30
0.0
 10
344.545690
 20
277.148815
 30
0.0
  0
SPLINE
  5
158
100
AcDbEntity
  8
Laag_1
 62
7
100
AcDbSpline
 70
8
 71
3
 72
8
 73
4
 74
0
 40
0
 40
0
 40
0
 40
0
 40
1
 40
1
 40
1
 40
1
 10
344.545690
 20
277.148815
 30
0.0
 10
345.778683
 20
273.985507
 30
0.0
 10
346.395157
 20
270.231589
 30
0.0
 10
346.395157
 20
265.887062
 30
0.0
  0
LWPOLYLINE
  5
159
100
AcDbEntity
  8
Laag_1
 62
7
100
AcDbPolyline
 90
4
 70
0
 10
327.204063
 20
243.573816
 30
0.0
 10
319.022803
 20
243.573816
 30
0.0
 10
319.022803
 20
288.290472
 30
0.0
 10
348.536320
 20
298.460439
 30
0.0
  0
SPLINE
  5
15a
100
AcDbEntity
  8
Laag_1
 62
7
100
AcDbSpline
 70
8
 71
3
 72
8
 73
4
 74
0
 40
0
 40
0
 40
0
 40
0
 40
1
 40
1
 40
1
 40
1
 10
341.891100
 20
265.977287
 30
0.0
 10
341.891100
 20
269.480952
 30
0.0
 10
341.448698
 20
272.434060
 30
0.0
 10
340.563850
 20
274.836550
 30
0.0
  0
SPLINE
  5
15b
100
AcDbEntity
  8
Laag_1
 62
7
100
AcDbSpline
 70
8
 71
3
 72
8
 73
4
 74
0
 40
0
 40
0
 40
0
 40
0
 40
1
 40
1
 40
1
 40
1
 10
340.563850
 20
274.836550
 30
0.0
 10
339.679001
 20
277.239041
 30
0.0
 10
338.358950
 20
279.131027
 30
0.0
 10
336.603785
 20
280.512448
 30
0.0
  0
SPLINE
  5
15c
100
AcDbEntity
  8
Laag_1
 62
7
100
AcDbSpline
 70
8
 71
3
 72
8
 73
4
 74
0
 40
0
 40
0
 40
0
 40
0
 40
1
 40
1
 40
1
 40
1
 10
336.603785
 20
280.512448
 30
0.0
 10
335.327285
 20
281.513521
 30
0.0
 10
333.971014
 20
282.204232
 30
0.0
 10
332.534930
 20
282.584641
 30
0.0
  0
SPLINE
  5
15d
100
AcDbEntity
  8
Laag_1
 62
7
100
AcDbSpline
 70
8
 71
3
 72
8
 73
4
 74
0
 40
0
 40
0
 40
0
 40
0
 40
1
 40
1
 40
1
 40
1
 10
332.534930
 20
282.584641
 30
0.0
 10
331.098845
 20
282.985168
 30
0.0
 10
329.379943
 20
283.185126
 30
0.0
 10
327.378135
 20
283.185126
 30
0.0
  0
LWPOLYLINE
  5
15e
100
AcDbEntity
  8
Laag_1
 62
7
100
AcDbPolyline
 90
1
 70
1
 10
346.395157
 20
265.887062
 30
0.0
  0
SPLINE
  5
15f
100
AcDbEntity
  8
Laag_1
 62
7
100
AcDbSpline
 70
8
 71
3
 72
8
 73
4
 74
0
 40
0
 40
0
 40
0
 40
0
 40
1
 40
1
 40
1
 40
1
 10
327.378135
 20
248.679162
 30
0.0
 10
329.452470
 20
248.679162
 30
0.0
 10
331.258430
 20
248.889484
 30
0.0
 10
332.796016
 20
249.309824
 30
0.0
  0
SPLINE
  5
160
100
AcDbEntity
  8
Laag_1
 62
7
100
AcDbSpline
 70
8
 71
3
 72
8
 73
4
 74
0
 40
0
 40
0
 40
0
 40
0
 40
1
 40
1
 40
1
 40
1
 10
332.796016
 20
249.309824
 30
0.0
 10
334.348134
 20
249.730468
 30
0.0
 10
335.769687
 20
250.511099
 30
0.0
 10
337.060719
 20
251.652265
 30
0.0
  0
SPLINE
  5
161
100
AcDbEntity
  8
Laag_1
 62
7
100
AcDbSpline
 70
8
 71
3
 72
8
 73
4
 74
0
 40
0
 40
0
 40
0
 40
0
 40
1
 40
1
 40
1
 40
1
 10
337.060719
 20
251.652265
 30
0.0
 10
338.670831
 20
253.073739
 30
0.0
 10
339.874805
 20
254.945669
 30
0.0
 10
340.672639
 20
257.268115
 30
0.0
  0
SPLINE
  5
162
100
AcDbEntity
  8
Laag_1
 62
7
100
AcDbSpline
 70
8
 71
3
 72
8
 73
4
 74
0
 40
0
 40
0
 40
0
 40
0
 40
1
 40
1
 40
1
 40
1
 10
340.672639
 20
257.268115
 30
0.0
 10
341.484961
 20
259.590500
 30
0.0
 10
341.891100
 20
262.493557
 30
0.0
 10
341.891100
 20
265.977165
 30
0.0
  0
LWPOLYLINE
  5
163
100
AcDbEntity
  8
Laag_1
 62
7
100
AcDbPolyline
 90
4
 70
0
 10
327.378135
 20
283.185126
 30
0.0
 10
323.331012
 20
283.185126
 30
0.0
 10
323.331012
 20
248.679162
 30
0.0
 10
327.378135
 20
248.679162
 30
0.0
  0
LWPOLYLINE
  5
164
100
AcDbEntity
  8
Laag_1
 62
7
100
AcDbPolyline
 90
2
 70
0
 10
341.891100
 20
265.977165
 30
0.0
 10
341.891100
 20
265.977287
 30
0.0
  0
LWPOLYLINE
  5
165
100
AcDbEntity
  8
Laag_1
 62
7
100
AcDbPolyline
 90
8
 70
1
 10
378.946038
 20
243.573816
 30
0.0
 10
374.354967
 20
243.573816
 30
0.0
 10
371.178205
 20
256.036845
 30
0.0
 10
357.165637
 20
256.036845
 30
0.0
 10
353.988919
 20
243.573816
 30
0.0
 10
349.615427
 20
243.573816
 30
0.0
 10
361.408564
 20
288.290472
 30
0.0
 10
367.152857
 20
288.290472
 30
0.0
  0
LWPOLYLINE
  5
166
100
AcDbEntity
  8
Laag_1
 62
7
100
AcDbPolyline
 90
3
 70
1
 10
369.850910
 20
261.142130
 30
0.0
 10
364.171943
 20
283.095023
 30
0.0
 10
358.471156
 20
261.142130
 30
0.0
  0
LWPOLYLINE
  5
167
100
AcDbEntity
  8
Laag_1
 62
7
100
AcDbPolyline
 90
13
 70
1
 10
383.867365
 20
288.291691
 30
0.0
 10
383.867365
 20
243.569610
 30
0.0
 10
388.172174
 20
243.569610
 30
0.0
 10
388.172174
 20
265.466295
 30
0.0
 10
404.338891
 20
265.466295
 30
0.0
 10
404.338891
 20
243.569610
 30
0.0
 10
408.643699
 20
243.569610
 30
0.0
 10
408.643699
 20
287.339144
 30
0.0
 10
408.643699
 20
288.291691
 30
0.0
 10
404.338891
 20
288.291691
 30
0.0
 10
404.338891
 20
270.752945
 30
0.0
 10
388.172174
 20
270.752945
 30
0.0
 10
388.172174
 20
288.291691
 30
0.0
  0
SPLINE
  5
168
100
AcDbEntity
  8
Laag_1
 62
7
100
AcDbSpline
 70
8
 71
3
 72
8
 73
4
 74
0
 40
0
 40
0
 40
0
 40
0
 40
1
 40
1
 40
1
 40
1
 10
404.338317
 20
288.290472
 30
0.0
 10
412.545549
 20
291.327099
 30
0.0
 10
431.082624
 20
298.935585
 30
0.0
 10
430.762969
 20
298.817317
 30
0.0
  0
LWPOLYLINE
  5
169
100
AcDbEntity
  8
Laag_1
 62
7
100
AcDbPolyline
 90
11
 70
0
 10
408.646526
 20
243.573816
 30
0.0
 10
404.338317
 20
243.573816
 30
0.0
 10
404.338317
 20
265.466661
 30
0.0
 10
388.171688
 20
265.466661
 30
0.0
 10
388.171688
 20
243.573816
 30
0.0
 10
383.863478
 20
243.573816
 30
0.0
 10
383.863478
 20
288.290472
 30
0.0
 10
388.171688
 20
288.290472
 30
0.0
 10
388.171688
 20
270.752152
 30
0.0
 10
404.338317
 20
270.752152
 30
0.0
 10
404.338317
 20
288.290472
 30
0.0
  0
LWPOLYLINE
  5
16a
100
AcDbEntity
  8
Laag_1
 62
7
100
AcDbPolyline
 90
3
 70
0
 10
430.762969
 20
298.817317
 30
0.0
 10
408.324530
 20
282.516911
 30
0.0
 10
408.646526
 20
243.573816
 30
0.0
  0
LWPOLYLINE
  5
16b
100
AcDbEntity
  8
Laag_1
 62
7
100
AcDbPolyline
 90
8
 70
1
 10
442.916353
 20
243.573816
 30
0.0
 10
438.325282
 20
243.573816
 30
0.0
 10
435.148520
 20
256.036845
 30
0.0
 10
421.135996
 20
256.036845
 30
0.0
 10
417.959233
 20
243.573816
 30
0.0
 10
413.585741
 20
243.573816
 30
0.0
 10
425.378922
 20
288.290472
 30
0.0
 10
431.123172
 20
288.290472
 30
0.0
  0
SPLINE
  5
16c
100
AcDbEntity
  8
Laag_1
 62
7
100
AcDbSpline
 70
8
 71
3
 72
8
 73
4
 74
0
 40
0
 40
0
 40
0
 40
0
 40
1
 40
1
 40
1
 40
1
 10
471.202532
 20
256.337149
 30
0.0
 10
471.202532
 20
254.595315
 30
0.0
 10
470.905271
 20
252.873537
 30
0.0
 10
470.310439
 20
251.171755
 30
0.0
  0
SPLINE
  5
16d
100
AcDbEntity
  8
Laag_1
 62
7
100
AcDbSpline
 70
8
 71
3
 72
8
 73
4
 74
0
 40
0
 40
0
 40
0
 40
0
 40
1
 40
1
 40
1
 40
1
 10
470.310439
 20
251.171755
 30
0.0
 10
469.730184
 20
249.469973
 30
0.0
 10
468.910618
 20
248.028443
 30
0.0
 10
467.851697
 20
246.847224
 30
0.0
  0
SPLINE
  5
16e
100
AcDbEntity
  8
Laag_1
 62
7
100
AcDbSpline
 70
8
 71
3
 72
8
 73
4
 74
0
 40
0
 40
0
 40
0
 40
0
 40
1
 40
1
 40
1
 40
1
 10
467.851697
 20
246.847224
 30
0.0
 10
466.691231
 20
245.565904
 30
0.0
 10
465.334961
 20
244.564891
 30
0.0
 10
463.782843
 20
243.844126
 30
0.0
  0
SPLINE
  5
16f
100
AcDbEntity
  8
Laag_1
 62
7
100
AcDbSpline
 70
8
 71
3
 72
8
 73
4
 74
0
 40
0
 40
0
 40
0
 40
0
 40
1
 40
1
 40
1
 40
1
 10
463.782843
 20
243.844126
 30
0.0
 10
462.245257
 20
243.123361
 30
0.0
 10
460.388501
 20
242.762948
 30
0.0
 10
458.212665
 20
242.762948
 30
0.0
  0
SPLINE
  5
170
100
AcDbEntity
  8
Laag_1
 62
7
100
AcDbSpline
 70
8
 71
3
 72
8
 73
4
 74
0
 40
0
 40
0
 40
0
 40
0
 40
1
 40
1
 40
1
 40
1
 10
458.212665
 20
242.762948
 30
0.0
 10
455.877200
 20
242.762948
 30
0.0
 10
453.773891
 20
243.063495
 30
0.0
 10
451.902648
 20
243.663919
 30
0.0
  0
SPLINE
  5
171
100
AcDbEntity
  8
Laag_1
 62
7
100
AcDbSpline
 70
8
 71
3
 72
8
 73
4
 74
0
 40
0
 40
0
 40
0
 40
0
 40
1
 40
1
 40
1
 40
1
 10
451.902648
 20
243.663919
 30
0.0
 10
450.045892
 20
244.264405
 30
0.0
 10
448.152918
 20
245.155440
 30
0.0
 10
446.223636
 20
246.336720
 30
0.0
  0
LWPOLYLINE
  5
172
100
AcDbEntity
  8
Laag_1
 62
7
100
AcDbPolyline
 90
3
 70
1
 10
433.821269
 20
261.142130
 30
0.0
 10
428.142258
 20
283.095023
 30
0.0
 10
422.441515
 20
261.142130
 30
0.0
  0
SPLINE
  5
173
100
AcDbEntity
  8
Laag_1
 62
7
100
AcDbSpline
 70
8
 71
3
 72
8
 73
4
 74
0
 40
0
 40
0
 40
0
 40
0
 40
1
 40
1
 40
1
 40
1
 10
446.528406
 20
253.784446
 30
0.0
 10
448.167582
 20
251.902458
 30
0.0
 10
450.060557
 20
250.450990
 30
0.0
 10
452.207418
 20
249.429921
 30
0.0
  0
SPLINE
  5
174
100
AcDbEntity
  8
Laag_1
 62
7
100
AcDbSpline
 70
8
 71
3
 72
8
 73
4
 74
0
 40
0
 40
0
 40
0
 40
0
 40
1
 40
1
 40
1
 40
1
 10
452.207418
 20
249.429921
 30
0.0
 10
454.354278
 20
248.408852
 30
0.0
 10
456.370574
 20
247.898348
 30
0.0
 10
458.256305
 20
247.898348
 30
0.0
  0
SPLINE
  5
175
100
AcDbEntity
  8
Laag_1
 62
7
100
AcDbSpline
 70
8
 71
3
 72
8
 73
4
 74
0
 40
0
 40
0
 40
0
 40
0
 40
1
 40
1
 40
1
 40
1
 10
458.256305
 20
247.898348
 30
0.0
 10
460.925338
 20
247.898348
 30
0.0
 10
462.999672
 20
248.589058
 30
0.0
 10
464.479264
 20
249.970480
 30
0.0
  0
SPLINE
  5
176
100
AcDbEntity
  8
Laag_1
 62
7
100
AcDbSpline
 70
8
 71
3
 72
8
 73
4
 74
0
 40
0
 40
0
 40
0
 40
0
 40
1
 40
1
 40
1
 40
1
 10
464.479264
 20
249.970480
 30
0.0
 10
465.973343
 20
251.351962
 30
0.0
 10
466.720383
 20
253.193836
 30
0.0
 10
466.720383
 20
255.496226
 30
0.0
  0
SPLINE
  5
177
100
AcDbEntity
  8
Laag_1
 62
7
100
AcDbSpline
 70
8
 71
3
 72
8
 73
4
 74
0
 40
0
 40
0
 40
0
 40
0
 40
1
 40
1
 40
1
 40
1
 10
466.720383
 20
255.496226
 30
0.0
 10
466.720383
 20
257.478315
 30
0.0
 10
466.364818
 20
258.939842
 30
0.0
 10
465.654218
 20
259.880806
 30
0.0
  0
SPLINE
  5
178
100
AcDbEntity
  8
Laag_1
 62
7
100
AcDbSpline
 70
8
 71
3
 72
8
 73
4
 74
0
 40
0
 40
0
 40
0
 40
0
 40
1
 40
1
 40
1
 40
1
 10
465.654218
 20
259.880806
 30
0.0
 10
464.957973
 20
260.821769
 30
0.0
 10
463.891809
 20
261.552533
 30
0.0
 10
462.455724
 20
262.073095
 30
0.0
  0
SPLINE
  5
179
100
AcDbEntity
  8
Laag_1
 62
7
100
AcDbSpline
 70
8
 71
3
 72
8
 73
4
 74
0
 40
0
 40
0
 40
0
 40
0
 40
1
 40
1
 40
1
 40
1
 10
462.455724
 20
262.073095
 30
0.0
 10
461.367784
 20
262.473622
 30
0.0
 10
460.185542
 20
262.803798
 30
0.0
 10
458.909042
 20
263.064171
 30
0.0
  0
SPLINE
  5
17a
100
AcDbEntity
  8
Laag_1
 62
7
100
AcDbSpline
 70
8
 71
3
 72
8
 73
4
 74
0
 40
0
 40
0
 40
0
 40
0
 40
1
 40
1
 40
1
 40
1
 10
458.909042
 20
263.064171
 30
0.0
 10
457.647074
 20
263.324483
 30
0.0
 10
456.305292
 20
263.654292
 30
0.0
 10
454.883695
 20
264.055185
 30
0.0
  0
SPLINE
  5
17b
100
AcDbEntity
  8
Laag_1
 62
7
100
AcDbSpline
 70
8
 71
3
 72
8
 73
4
 74
0
 40
0
 40
0
 40
0
 40
0
 40
1
 40
1
 40
1
 40
1
 10
454.883695
 20
264.055185
 30
0.0
 10
452.011570
 20
264.896048
 30
0.0
 10
449.879196
 20
266.327580
 30
0.0
 10
448.486663
 20
268.349662
 30
0.0
  0
SPLINE
  5
17c
100
AcDbEntity
  8
Laag_1
 62
7
100
AcDbSpline
 70
8
 71
3
 72
8
 73
4
 74
0
 40
0
 40
0
 40
0
 40
0
 40
1
 40
1
 40
1
 40
1
 10
448.486663
 20
268.349662
 30
0.0
 10
447.108617
 20
270.391800
 30
0.0
 10
446.419617
 20
273.044543
 30
0.0
 10
446.419617
 20
276.307953
 30
0.0
  0
SPLINE
  5
17d
100
AcDbEntity
  8
Laag_1
 62
7
100
AcDbSpline
 70
8
 71
3
 72
8
 73
4
 74
0
 40
0
 40
0
 40
0
 40
0
 40
1
 40
1
 40
1
 40
1
 10
446.419617
 20
276.307953
 30
0.0
 10
446.419617
 20
280.051873
 30
0.0
 10
447.565551
 20
283.115019
 30
0.0
 10
449.857465
 20
285.497514
 30
0.0
  0
SPLINE
  5
17e
100
AcDbEntity
  8
Laag_1
 62
7
100
AcDbSpline
 70
8
 71
3
 72
8
 73
4
 74
0
 40
0
 40
0
 40
0
 40
0
 40
1
 40
1
 40
1
 40
1
 10
449.857465
 20
285.497514
 30
0.0
 10
452.149379
 20
287.900004
 30
0.0
 10
455.057767
 20
289.101280
 30
0.0
 10
458.582673
 20
289.101280
 30
0.0
  0
SPLINE
  5
17f
100
AcDbEntity
  8
Laag_1
 62
7
100
AcDbSpline
 70
8
 71
3
 72
8
 73
4
 74
0
 40
0
 40
0
 40
0
 40
0
 40
1
 40
1
 40
1
 40
1
 10
458.582673
 20
289.101280
 30
0.0
 10
460.860099
 20
289.101280
 30
0.0
 10
462.948922
 20
288.800732
 30
0.0
 10
464.849140
 20
288.200369
 30
0.0
  0
SPLINE
  5
180
100
AcDbEntity
  8
Laag_1
 62
7
100
AcDbSpline
 70
8
 71
3
 72
8
 73
4
 74
0
 40
0
 40
0
 40
0
 40
0
 40
1
 40
1
 40
1
 40
1
 10
464.849140
 20
288.200369
 30
0.0
 10
466.749402
 20
287.599883
 30
0.0
 10
468.538401
 20
286.236934
 30
0.0
 10
470.003505
 20
285.356018
 30
0.0
  0
LWPOLYLINE
  5
181
100
AcDbEntity
  8
Laag_1
 62
7
100
AcDbPolyline
 90
3
 70
0
 10
446.223636
 20
246.336720
 30
0.0
 10
446.223636
 20
253.784446
 30
0.0
 10
446.528406
 20
253.784446
 30
0.0
  0
SPLINE
  5
182
100
AcDbEntity
  8
Laag_1
 62
7
100
AcDbSpline
 70
8
 71
3
 72
8
 73
4
 74
0
 40
0
 40
0
 40
0
 40
0
 40
1
 40
1
 40
1
 40
1
 10
469.592287
 20
278.950698
 30
0.0
 10
468.359294
 20
280.392229
 30
0.0
 10
466.734649
 20
281.583507
 30
0.0
 10
464.718354
 20
282.524471
 30
0.0
  0
SPLINE
  5
183
100
AcDbEntity
  8
Laag_1
 62
7
100
AcDbSpline
 70
8
 71
3
 72
8
 73
4
 74
0
 40
0
 40
0
 40
0
 40
0
 40
1
 40
1
 40
1
 40
1
 10
464.718354
 20
282.524471
 30
0.0
 10
462.716546
 20
283.485430
 30
0.0
 10
460.663987
 20
283.965940
 30
0.0
 10
458.560633
 20
283.965940
 30
0.0
  0
SPLINE
  5
184
100
AcDbEntity
  8
Laag_1
 62
7
100
AcDbSpline
 70
8
 71
3
 72
8
 73
4
 74
0
 40
0
 40
0
 40
0
 40
0
 40
1
 40
1
 40
1
 40
1
 10
458.560633
 20
283.965940
 30
0.0
 10
456.254232
 20
283.965940
 30
0.0
 10
454.397520
 20
283.305224
 30
0.0
 10
452.990455
 20
281.983851
 30
0.0
  0
SPLINE
  5
185
100
AcDbEntity
  8
Laag_1
 62
7
100
AcDbSpline
 70
8
 71
3
 72
8
 73
4
 74
0
 40
0
 40
0
 40
0
 40
0
 40
1
 40
1
 40
1
 40
1
 10
452.990455
 20
281.983851
 30
0.0
 10
451.597922
 20
280.662478
 30
0.0
 10
450.901633
 20
278.960757
 30
0.0
 10
450.901633
 20
276.878566
 30
0.0
  0
SPLINE
  5
186
100
AcDbEntity
  8
Laag_1
 62
7
100
AcDbSpline
 70
8
 71
3
 72
8
 73
4
 74
0
 40
0
 40
0
 40
0
 40
0
 40
1
 40
1
 40
1
 40
1
 10
450.901633
 20
276.878566
 30
0.0
 10
450.901633
 20
275.016635
 30
0.0
 10
451.249689
 20
273.555108
 30
0.0
 10
451.946022
 20
272.493987
 30
0.0
  0
SPLINE
  5
187
100
AcDbEntity
  8
Laag_1
 62
7
100
AcDbSpline
 70
8
 71
3
 72
8
 73
4
 74
0
 40
0
 40
0
 40
0
 40
0
 40
1
 40
1
 40
1
 40
1
 10
451.946022
 20
272.493987
 30
0.0
 10
452.642311
 20
271.432865
 30
0.0
 10
453.868060
 20
270.621996
 30
0.0
 10
455.623225
 20
270.061441
 30
0.0
  0
SPLINE
  5
188
100
AcDbEntity
  8
Laag_1
 62
7
100
AcDbSpline
 70
8
 71
3
 72
8
 73
4
 74
0
 40
0
 40
0
 40
0
 40
0
 40
1
 40
1
 40
1
 40
1
 10
455.623225
 20
270.061441
 30
0.0
 10
456.551625
 20
269.781012
 30
0.0
 10
457.871632
 20
269.440655
 30
0.0
 10
459.583290
 20
269.040372
 30
0.0
  0
SPLINE
  5
189
100
AcDbEntity
  8
Laag_1
 62
7
100
AcDbSpline
 70
8
 71
3
 72
8
 73
4
 74
0
 40
0
 40
0
 40
0
 40
0
 40
1
 40
1
 40
1
 40
1
 10
459.583290
 20
269.040372
 30
0.0
 10
461.294993
 20
268.639846
 30
0.0
 10
462.745565
 20
268.229626
 30
0.0
 10
463.935007
 20
267.809103
 30
0.0
  0
SPLINE
  5
18a
100
AcDbEntity
  8
Laag_1
 62
7
100
AcDbSpline
 70
8
 71
3
 72
8
 73
4
 74
0
 40
0
 40
0
 40
0
 40
0
 40
1
 40
1
 40
1
 40
1
 10
463.935007
 20
267.809103
 30
0.0
 10
466.342998
 20
266.928188
 30
0.0
 10
468.156202
 20
265.596817
 30
0.0
 10
469.374663
 20
263.814930
 30
0.0
  0
SPLINE
  5
18b
100
AcDbEntity
  8
Laag_1
 62
7
100
AcDbSpline
 70
8
 71
3
 72
8
 73
4
 74
0
 40
0
 40
0
 40
0
 40
0
 40
1
 40
1
 40
1
 40
1
 10
469.374663
 20
263.814930
 30
0.0
 10
470.593169
 20
262.033043
 30
0.0
 10
471.202399
 20
259.540449
 30
0.0
 10
471.202399
 20
256.337149
 30
0.0
  0
LWPOLYLINE
  5
18c
100
AcDbEntity
  8
Laag_1
 62
7
100
AcDbPolyline
 90
3
 70
0
 10
470.003505
 20
285.356018
 30
0.0
 10
469.897057
 20
278.950698
 30
0.0
 10
469.592287
 20
278.950698
 30
0.0
  0
SPLINE
  5
18d
100
AcDbEntity
  8
Laag_1
 62
7
100
AcDbSpline
 70
8
 71
3
 72
8
 73
4
 74
0
 40
0
 40
0
 40
0
 40
0
 40
1
 40
1
 40
1
 40
1
 10
87.430368
 20
292.779723
 30
0.0
 10
88.532957
 20
293.184935
 30
0.0
 10
89.670370
 20
293.484529
 30
0.0
 10
90.776333
 20
293.878885
 30
0.0
  0
SPLINE
  5
18e
100
AcDbEntity
  8
Laag_1
 62
7
100
AcDbSpline
 70
8
 71
3
 72
8
 73
4
 74
0
 40
0
 40
0
 40
0
 40
0
 40
1
 40
1
 40
1
 40
1
 10
90.776333
 20
293.878885
 30
0.0
 10
91.954040
 20
294.298781
 30
0.0
 10
96.479875
 20
296.074942
 30
0.0
 10
97.367012
 20
296.414702
 30
0.0
  0
SPLINE
  5
18f
100
AcDbEntity
  8
Laag_1
 62
7
100
AcDbSpline
 70
8
 71
3
 72
8
 73
4
 74
0
 40
0
 40
0
 40
0
 40
0
 40
1
 40
1
 40
1
 40
1
 10
97.367012
 20
296.414702
 30
0.0
 10
102.618666
 20
298.426054
 30
0.0
 10
101.776788
 20
298.087625
 30
0.0
 10
107.458597
 20
300.126331
 30
0.0
  0
SPLINE
  5
190
100
AcDbEntity
  8
Laag_1
 62
7
100
AcDbSpline
 70
8
 71
3
 72
8
 73
4
 74
0
 40
0
 40
0
 40
0
 40
0
 40
1
 40
1
 40
1
 40
1
 10
107.458597
 20
300.126331
 30
0.0
 10
118.330699
 20
304.607537
 30
0.0
 10
128.783534
 20
310.038406
 30
0.0
 10
139.383663
 20
315.124214
 30
0.0
  0
SPLINE
  5
191
100
AcDbEntity
  8
Laag_1
 62
7
100
AcDbSpline
 70
8
 71
3
 72
8
 73
4
 74
0
 40
0
 40
0
 40
0
 40
0
 40
1
 40
1
 40
1
 40
1
 10
139.383663
 20
315.124214
 30
0.0
 10
146.619842
 20
318.533924
 30
0.0
 10
153.800416
 20
322.070598
 30
0.0
 10
161.079072
 20
325.387786
 30
0.0
  0
SPLINE
  5
192
100
AcDbEntity
  8
Laag_1
 62
7
100
AcDbSpline
 70
8
 71
3
 72
8
 73
4
 74
0
 40
0
 40
0
 40
0
 40
0
 40
1
 40
1
 40
1
 40
1
 10
161.079072
 20
325.387786
 30
0.0
 10
165.898440
 20
327.584211
 30
0.0
 10
168.013749
 20
328.441946
 30
0.0
 10
172.898289
 20
330.512117
 30
0.0
  0
SPLINE
  5
193
100
AcDbEntity
  8
Laag_1
 62
7
100
AcDbSpline
 70
8
 71
3
 72
8
 73
4
 74
0
 40
0
 40
0
 40
0
 40
0
 40
1
 40
1
 40
1
 40
1
 10
172.898289
 20
330.512117
 30
0.0
 10
184.226987
 20
335.191068
 30
0.0
 10
195.952493
 20
338.773550
 30
0.0
 10
207.754398
 20
341.995436
 30
0.0
  0
SPLINE
  5
194
100
AcDbEntity
  8
Laag_1
 62
7
100
AcDbSpline
 70
8
 71
3
 72
8
 73
4
 74
0
 40
0
 40
0
 40
0
 40
0
 40
1
 40
1
 40
1
 40
1
 10
207.754398
 20
341.995436
 30
0.0
 10
215.825672
 20
344.062460
 30
0.0
 10
223.924493
 20
346.038038
 30
0.0
 10
232.136850
 20
347.443767
 30
0.0
  0
SPLINE
  5
195
100
AcDbEntity
  8
Laag_1
 62
7
100
AcDbSpline
 70
8
 71
3
 72
8
 73
4
 74
0
 40
0
 40
0
 40
0
 40
0
 40
1
 40
1
 40
1
 40
1
 10
232.136850
 20
347.443767
 30
0.0
 10
237.394165
 20
348.343994
 30
0.0
 10
242.720895
 20
348.500098
 30
0.0
 10
248.039135
 20
348.561524
 30
0.0
  0
SPLINE
  5
196
100
AcDbEntity
  8
Laag_1
 62
7
100
AcDbSpline
 70
8
 71
3
 72
8
 73
4
 74
0
 40
0
 40
0
 40
0
 40
0
 40
1
 40
1
 40
1
 40
1
 10
248.039135
 20
348.561524
 30
0.0
 10
254.621869
 20
348.425461
 30
0.0
 10
261.041006
 20
346.808296
 30
0.0
 10
267.375557
 20
345.134523
 30
0.0
  0
SPLINE
  5
197
100
AcDbEntity
  8
Laag_1
 62
7
100
AcDbSpline
 70
8
 71
3
 72
8
 73
4
 74
0
 40
0
 40
0
 40
0
 40
0
 40
1
 40
1
 40
1
 40
1
 10
267.375557
 20
345.134523
 30
0.0
 10
276.154101
 20
342.495298
 30
0.0
 10
284.973080
 20
340.015578
 30
0.0
 10
293.893200
 20
337.914539
 30
0.0
  0
SPLINE
  5
198
100
AcDbEntity
  8
Laag_1
 62
7
100
AcDbSpline
 70
8
 71
3
 72
8
 73
4
 74
0
 40
0
 40
0
 40
0
 40
0
 40
1
 40
1
 40
1
 40
1
 10
293.893200
 20
337.914539
 30
0.0
 10
305.710441
 20
335.186816
 30
0.0
 10
317.652378
 20
333.090170
 30
0.0
 10
329.637373
 20
331.286287
 30
0.0
  0
SPLINE
  5
199
100
AcDbEntity
  8
Laag_1
 62
7
100
AcDbSpline
 70
8
 71
3
 72
8
 73
4
 74
0
 40
0
 40
0
 40
0
 40
0
 40
1
 40
1
 40
1
 40
1
 10
329.637373
 20
331.286287
 30
0.0
 10
331.936724
 20
330.938731
 30
0.0
 10
334.237663
 20
330.601550
 30
0.0
 10
336.535455
 20
330.243676
 30
0.0
  0
SPLINE
  5
19a
100
AcDbEntity
  8
Laag_1
 62
7
100
AcDbSpline
 70
8
 71
3
 72
8
 73
4
 74
0
 40
0
 40
0
 40
0
 40
0
 40
1
 40
1
 40
1
 40
1
 10
336.535455
 20
330.243676
 30
0.0
 10
344.941143
 20
328.934523
 30
0.0
 10
343.784324
 20
328.993172
 30
0.0
 10
352.425770
 20
327.877569
 30
0.0
  0
SPLINE
  5
19b
100
AcDbEntity
  8
Laag_1
 62
7
100
AcDbSpline
 70
8
 71
3
 72
8
 73
4
 74
0
 40
0
 40
0
 40
0
 40
0
 40
1
 40
1
 40
1
 40
1
 10
352.425770
 20
327.877569
 30
0.0
 10
361.850683
 20
326.660825
 30
0.0
 10
371.289770
 20
325.759918
 30
0.0
 10
380.756296
 20
324.957033
 30
0.0
  0
SPLINE
  5
19c
100
AcDbEntity
  8
Laag_1
 62
7
100
AcDbSpline
 70
8
 71
3
 72
8
 73
4
 74
0
 40
0
 40
0
 40
0
 40
0
 40
1
 40
1
 40
1
 40
1
 10
380.756296
 20
324.957033
 30
0.0
 10
410.702060
 20
322.888025
 30
0.0
 10
440.737398
 20
322.772428
 30
0.0
 10
470.738863
 20
322.494718
 30
0.0
  0
SPLINE
  5
19d
100
AcDbEntity
  8
Laag_1
 62
7
100
AcDbSpline
 70
8
 71
3
 72
8
 73
4
 74
0
 40
0
 40
0
 40
0
 40
0
 40
1
 40
1
 40
1
 40
1
 10
470.738863
 20
322.494718
 30
0.0
 10
498.661994
 20
322.313301
 30
0.0
 10
526.585691
 20
322.223159
 30
0.0
 10
554.509276
 20
322.164397
 30
0.0
  0
SPLINE
  5
19e
100
AcDbEntity
  8
Laag_1
 62
7
100
AcDbSpline
 70
8
 71
3
 72
8
 73
4
 74
0
 40
0
 40
0
 40
0
 40
0
 40
1
 40
1
 40
1
 40
1
 10
554.509276
 20
322.164397
 30
0.0
 10
562.259735
 20
322.147389
 30
0.0
 10
570.010535
 20
322.054980
 30
0.0
 10
577.760712
 20
322.127263
 30
0.0
  0
SPLINE
  5
19f
100
AcDbEntity
  8
Laag_1
 62
7
100
AcDbSpline
 70
8
 71
3
 72
8
 73
4
 74
0
 40
0
 40
0
 40
0
 40
0
 40
1
 40
1
 40
1
 40
1
 10
577.760712
 20
322.127263
 30
0.0
 10
586.653591
 20
322.210035
 30
0.0
 10
595.544173
 20
322.461978
 30
0.0
 10
604.435861
 20
322.629335
 30
0.0
  0
LWPOLYLINE
  5
1a0
100
AcDbEntity
  8
Laag_1
 62
7
100
AcDbPolyline
 90
2
 70
0
 10
471.202399
 20
256.337149
 30
0.0
 10
471.202532
 20
256.337149
 30
0.0
  0
SPLINE
  5
1a1
100
AcDbEntity
  8
Laag_1
 62
7
100
AcDbSpline
 70
8
 71
3
 72
8
 73
4
 74
0
 40
0
 40
0
 40
0
 40
0
 40
1
 40
1
 40
1
 40
1
 10
602.268236
 20
321.027449
 30
0.0
 10
593.182375
 20
320.720287
 30
0.0
 10
584.099972
 20
320.279924
 30
0.0
 10
575.010652
 20
320.105991
 30
0.0
  0
SPLINE
  5
1a2
100
AcDbEntity
  8
Laag_1
 62
7
100
AcDbSpline
 70
8
 71
3
 72
8
 73
4
 74
0
 40
0
 40
0
 40
0
 40
0
 40
1
 40
1
 40
1
 40
1
 10
575.010652
 20
320.105991
 30
0.0
 10
567.223257
 20
319.956888
 30
0.0
 10
559.433083
 20
320.076794
 30
0.0
 10
551.644271
 20
320.058652
 30
0.0
  0
SPLINE
  5
1a3
100
AcDbEntity
  8
Laag_1
 62
7
100
AcDbSpline
 70
8
 71
3
 72
8
 73
4
 74
0
 40
0
 40
0
 40
0
 40
0
 40
1
 40
1
 40
1
 40
1
 10
551.644271
 20
320.058652
 30
0.0
 10
523.500633
 20
319.992888
 30
0.0
 10
495.356995
 20
319.891124
 30
0.0
 10
467.213244
 20
319.906432
 30
0.0
  0
SPLINE
  5
1a4
100
AcDbEntity
  8
Laag_1
 62
7
100
AcDbSpline
 70
8
 71
3
 72
8
 73
4
 74
0
 40
0
 40
0
 40
0
 40
0
 40
1
 40
1
 40
1
 40
1
 10
467.213244
 20
319.906432
 30
0.0
 10
436.790976
 20
319.944983
 30
0.0
 10
406.336762
 20
319.804101
 30
0.0
 10
375.949814
 20
321.482721
 30
0.0
  0
SPLINE
  5
1a5
100
AcDbEntity
  8
Laag_1
 62
7
100
AcDbSpline
 70
8
 71
3
 72
8
 73
4
 74
0
 40
0
 40
0
 40
0
 40
0
 40
1
 40
1
 40
1
 40
1
 10
375.949814
 20
321.482721
 30
0.0
 10
372.454554
 20
321.744643
 30
0.0
 10
368.956545
 20
321.971301
 30
0.0
 10
365.464006
 20
322.268343
 30
0.0
  0
SPLINE
  5
1a6
100
AcDbEntity
  8
Laag_1
 62
7
100
AcDbSpline
 70
8
 71
3
 72
8
 73
4
 74
0
 40
0
 40
0
 40
0
 40
0
 40
1
 40
1
 40
1
 40
1
 10
365.464006
 20
322.268343
 30
0.0
 10
351.651543
 20
323.443162
 30
0.0
 10
337.919698
 20
325.355131
 30
0.0
 10
324.214243
 20
327.421757
 30
0.0
  0
SPLINE
  5
1a7
100
AcDbEntity
  8
Laag_1
 62
7
100
AcDbSpline
 70
8
 71
3
 72
8
 73
4
 74
0
 40
0
 40
0
 40
0
 40
0
 40
1
 40
1
 40
1
 40
1
 10
324.214243
 20
327.421757
 30
0.0
 10
312.143046
 20
329.198088
 30
0.0
 10
300.108926
 20
331.232202
 30
0.0
 10
288.200239
 20
333.926787
 30
0.0
  0
SPLINE
  5
1a8
100
AcDbEntity
  8
Laag_1
 62
7
100
AcDbSpline
 70
8
 71
3
 72
8
 73
4
 74
0
 40
0
 40
0
 40
0
 40
0
 40
1
 40
1
 40
1
 40
1
 10
288.200239
 20
333.926787
 30
0.0
 10
279.209857
 20
336.005121
 30
0.0
 10
270.311238
 20
338.421827
 30
0.0
 10
261.449589
 20
341.001808
 30
0.0
  0
SPLINE
  5
1a9
100
AcDbEntity
  8
Laag_1
 62
7
100
AcDbSpline
 70
8
 71
3
 72
8
 73
4
 74
0
 40
0
 40
0
 40
0
 40
0
 40
1
 40
1
 40
1
 40
1
 10
261.449589
 20
341.001808
 30
0.0
 10
255.076634
 20
342.574072
 30
0.0
 10
248.636446
 20
344.157449
 30
0.0
 10
242.032170
 20
344.132929
 30
0.0
  0
SPLINE
  5
1aa
100
AcDbEntity
  8
Laag_1
 62
7
100
AcDbSpline
 70
8
 71
3
 72
8
 73
4
 74
0
 40
0
 40
0
 40
0
 40
0
 40
1
 40
1
 40
1
 40
1
 10
242.032170
 20
344.132929
 30
0.0
 10
236.772887
 20
344.035984
 30
0.0
 10
231.504559
 20
343.852866
 30
0.0
 10
226.301088
 20
343.002926
 30
0.0
  0
SPLINE
  5
1ab
100
AcDbEntity
  8
Laag_1
 62
7
100
AcDbSpline
 70
8
 71
3
 72
8
 73
4
 74
0
 40
0
 40
0
 40
0
 40
0
 40
1
 40
1
 40
1
 40
1
 10
226.301088
 20
343.002926
 30
0.0
 10
218.217373
 20
341.640992
 30
0.0
 10
210.231369
 20
339.767575
 30
0.0
 10
202.285060
 20
337.749676
 30
0.0
  0
SPLINE
  5
1ac
100
AcDbEntity
  8
Laag_1
 62
7
100
AcDbSpline
 70
8
 71
3
 72
8
 73
4
 74
0
 40
0
 40
0
 40
0
 40
0
 40
1
 40
1
 40
1
 40
1
 10
202.285060
 20
337.749676
 30
0.0
 10
190.547569
 20
334.578728
 30
0.0
 10
178.889423
 20
331.035024
 30
0.0
 10
167.652417
 20
326.324324
 30
0.0
  0
SPLINE
  5
1ad
100
AcDbEntity
  8
Laag_1
 62
7
100
AcDbSpline
 70
8
 71
3
 72
8
 73
4
 74
0
 40
0
 40
0
 40
0
 40
0
 40
1
 40
1
 40
1
 40
1
 10
167.652417
 20
326.324324
 30
0.0
 10
156.283495
 20
321.476683
 30
0.0
 10
145.111887
 20
316.192167
 30
0.0
 10
133.994914
 20
310.781055
 30
0.0
  0
SPLINE
  5
1ae
100
AcDbEntity
  8
Laag_1
 62
7
100
AcDbSpline
 70
8
 71
3
 72
8
 73
4
 74
0
 40
0
 40
0
 40
0
 40
0
 40
1
 40
1
 40
1
 40
1
 10
133.994914
 20
310.781055
 30
0.0
 10
123.436551
 20
305.676369
 30
0.0
 10
112.948483
 20
300.389329
 30
0.0
 10
102.112770
 20
295.903219
 30
0.0
  0
SPLINE
  5
1af
100
AcDbEntity
  8
Laag_1
 62
7
100
AcDbSpline
 70
8
 71
3
 72
8
 73
4
 74
0
 40
0
 40
0
 40
0
 40
0
 40
1
 40
1
 40
1
 40
1
 10
102.112770
 20
295.903219
 30
0.0
 10
95.143516
 20
293.306598
 30
0.0
 10
88.252084
 20
290.510107
 30
0.0
 10
81.290625
 20
287.895798
 30
0.0
  0
LWPOLYLINE
  5
1b0
100
AcDbEntity
  8
Laag_1
 62
7
100
AcDbPolyline
 90
3
 70
0
 10
604.435861
 20
322.629335
 30
0.0
 10
602.268236
 20
321.027449
 30
0.0
 10
602.268236
 20
321.027449
 30
0.0
  0
SPLINE
  5
1b1
100
AcDbEntity
  8
Laag_1
 62
7
100
AcDbSpline
 70
8
 71
3
 72
8
 73
4
 74
0
 40
0
 40
0
 40
0
 40
0
 40
1
 40
1
 40
1
 40
1
 10
136.580973
 20
181.543294
 30
0.0
 10
143.352686
 20
188.433581
 30
0.0
 10
150.411858
 20
192.994668
 30
0.0
 10
157.514454
 20
197.038715
 30
0.0
  0
SPLINE
  5
1b2
100
AcDbEntity
  8
Laag_1
 62
7
100
AcDbSpline
 70
8
 71
3
 72
8
 73
4
 74
0
 40
0
 40
0
 40
0
 40
0
 40
1
 40
1
 40
1
 40
1
 10
157.514454
 20
197.038715
 30
0.0
 10
165.290941
 20
201.177439
 30
0.0
 10
173.187896
 20
204.551773
 30
0.0
 10
181.138351
 20
205.528365
 30
0.0
  0
SPLINE
  5
1b3
100
AcDbEntity
  8
Laag_1
 62
7
100
AcDbSpline
 70
8
 71
3
 72
8
 73
4
 74
0
 40
0
 40
0
 40
0
 40
0
 40
1
 40
1
 40
1
 40
1
 10
181.138351
 20
205.528365
 30
0.0
 10
186.501370
 20
206.186910
 30
0.0
 10
190.962258
 20
205.593279
 30
0.0
 10
196.371933
 20
205.227468
 30
0.0
  0
SPLINE
  5
1b4
100
AcDbEntity
  8
Laag_1
 62
7
100
AcDbSpline
 70
8
 71
3
 72
8
 73
4
 74
0
 40
0
 40
0
 40
0
 40
0
 40
1
 40
1
 40
1
 40
1
 10
196.371933
 20
205.227468
 30
0.0
 10
199.606538
 20
204.647357
 30
0.0
 10
202.842865
 20
204.126151
 30
0.0
 10
206.075755
 20
203.487392
 30
0.0
  0
SPLINE
  5
1b5
100
AcDbEntity
  8
Laag_1
 62
7
100
AcDbSpline
 70
8
 71
3
 72
8
 73
4
 74
0
 40
0
 40
0
 40
0
 40
0
 40
1
 40
1
 40
1
 40
1
 10
206.075755
 20
203.487392
 30
0.0
 10
210.183197
 20
202.675776
 30
0.0
 10
214.284609
 20
201.673672
 30
0.0
 10
218.392486
 20
200.876570
 30
0.0
  0
SPLINE
  5
1b6
100
AcDbEntity
  8
Laag_1
 62
7
100
AcDbSpline
 70
8
 71
3
 72
8
 73
4
 74
0
 40
0
 40
0
 40
0
 40
0
 40
1
 40
1
 40
1
 40
1
 10
218.392486
 20
200.876570
 30
0.0
 10
229.942210
 20
198.635357
 30
0.0
 10
239.867402
 20
197.039225
 30
0.0
 10
251.549575
 20
195.647216
 30
0.0
  0
SPLINE
  5
1b7
100
AcDbEntity
  8
Laag_1
 62
7
100
AcDbSpline
 70
8
 71
3
 72
8
 73
4
 74
0
 40
0
 40
0
 40
0
 40
0
 40
1
 40
1
 40
1
 40
1
 10
251.549575
 20
195.647216
 30
0.0
 10
271.288777
 20
193.295225
 30
0.0
 10
277.426896
 20
193.176794
 30
0.0
 10
297.854249
 20
191.819424
 30
0.0
  0
SPLINE
  5
1b8
100
AcDbEntity
  8
Laag_1
 62
7
100
AcDbSpline
 70
8
 71
3
 72
8
 73
4
 74
0
 40
0
 40
0
 40
0
 40
0
 40
1
 40
1
 40
1
 40
1
 10
297.854249
 20
191.819424
 30
0.0
 10
354.331502
 20
190.289310
 30
0.0
 10
410.778935
 20
202.825162
 30
0.0
 10
466.626076
 20
223.646570
 30
0.0
  0
SPLINE
  5
1b9
100
AcDbEntity
  8
Laag_1
 62
7
100
AcDbSpline
 70
8
 71
3
 72
8
 73
4
 74
0
 40
0
 40
0
 40
0
 40
0
 40
1
 40
1
 40
1
 40
1
 10
466.626076
 20
223.646570
 30
0.0
 10
479.835184
 20
228.571370
 30
0.0
 10
492.987317
 20
234.435430
 30
0.0
 10
506.167937
 20
239.829846
 30
0.0
  0
LWPOLYLINE
  5
1ba
100
AcDbEntity
  8
Laag_1
 62
7
100
AcDbPolyline
 90
3
 70
0
 10
81.290625
 20
287.895798
 30
0.0
 10
87.430368
 20
292.779808
 30
0.0
 10
87.430368
 20
292.779723
 30
0.0
  0
SPLINE
  5
1bb
100
AcDbEntity
  8
Laag_1
 62
7
100
AcDbSpline
 70
8
 71
3
 72
8
 73
4
 74
0
 40
0
 40
0
 40
0
 40
0
 40
1
 40
1
 40
1
 40
1
 10
506.002677
 20
239.514661
 30
0.0
 10
492.759326
 20
234.001871
 30
0.0
 10
479.543471
 20
228.044920
 30
0.0
 10
466.272652
 20
222.976290
 30
0.0
  0
SPLINE
  5
1bc
100
AcDbEntity
  8
Laag_1
 62
7
100
AcDbSpline
 70
8
 71
3
 72
8
 73
4
 74
0
 40
0
 40
0
 40
0
 40
0
 40
1
 40
1
 40
1
 40
1
 10
466.272652
 20
222.976290
 30
0.0
 10
409.698085
 20
201.368523
 30
0.0
 10
352.552082
 20
187.568759
 30
0.0
 10
295.310126
 20
187.144441
 30
0.0
  0
SPLINE
  5
1bd
100
AcDbEntity
  8
Laag_1
 62
7
100
AcDbSpline
 70
8
 71
3
 72
8
 73
4
 74
0
 40
0
 40
0
 40
0
 40
0
 40
1
 40
1
 40
1
 40
1
 10
295.310126
 20
187.144441
 30
0.0
 10
273.266237
 20
187.736797
 30
0.0
 10
251.233152
 20
188.397298
 30
0.0
 10
229.203941
 20
190.683723
 30
0.0
  0
SPLINE
  5
1be
100
AcDbEntity
  8
Laag_1
 62
7
100
AcDbSpline
 70
8
 71
3
 72
8
 73
4
 74
0
 40
0
 40
0
 40
0
 40
0
 40
1
 40
1
 40
1
 40
1
 10
229.203941
 20
190.683723
 30
0.0
 10
218.560127
 20
191.788498
 30
0.0
 10
211.525736
 20
193.025906
 30
0.0
 10
201.104277
 20
194.431465
 30
0.0
  0
SPLINE
  5
1bf
100
AcDbEntity
  8
Laag_1
 62
7
100
AcDbSpline
 70
8
 71
3
 72
8
 73
4
 74
0
 40
0
 40
0
 40
0
 40
0
 40
1
 40
1
 40
1
 40
1
 10
201.104277
 20
194.431465
 30
0.0
 10
197.795667
 20
194.877694
 30
0.0
 10
194.485805
 20
195.261789
 30
0.0
 10
191.176571
 20
195.676951
 30
0.0
  0
SPLINE
  5
1c0
100
AcDbEntity
  8
Laag_1
 62
7
100
AcDbSpline
 70
8
 71
3
 72
8
 73
4
 74
0
 40
0
 40
0
 40
0
 40
0
 40
1
 40
1
 40
1
 40
1
 10
191.176571
 20
195.676951
 30
0.0
 10
185.818144
 20
195.764825
 30
0.0
 10
181.011260
 20
196.100135
 30
0.0
 10
175.687631
 20
195.282510
 30
0.0
  0
SPLINE
  5
1c1
100
AcDbEntity
  8
Laag_1
 62
7
100
AcDbSpline
 70
8
 71
3
 72
8
 73
4
 74
0
 40
0
 40
0
 40
0
 40
0
 40
1
 40
1
 40
1
 40
1
 10
175.687631
 20
195.282510
 30
0.0
 10
167.694934
 20
194.054542
 30
0.0
 10
159.761089
 20
190.610306
 30
0.0
 10
151.949480
 20
186.277635
 30
0.0
  0
SPLINE
  5
1c2
100
AcDbEntity
  8
Laag_1
 62
7
100
AcDbSpline
 70
8
 71
3
 72
8
 73
4
 74
0
 40
0
 40
0
 40
0
 40
0
 40
1
 40
1
 40
1
 40
1
 10
151.949480
 20
186.277635
 30
0.0
 10
144.617749
 20
181.900261
 30
0.0
 10
137.287287
 20
177.007238
 30
0.0
 10
130.414895
 20
169.020454
 30
0.0
  0
LWPOLYLINE
  5
1c3
100
AcDbEntity
  8
Laag_1
 62
7
100
AcDbPolyline
 90
3
 70
0
 10
506.167937
 20
239.829846
 30
0.0
 10
506.002677
 20
239.514661
 30
0.0
 10
506.002677
 20
239.514661
 30
0.0
  0
LWPOLYLINE
  5
1c4
100
AcDbEntity
  8
Laag_1
 62
7
100
AcDbPolyline
 90
3
 70
0
 10
130.414895
 20
169.020454
 30
0.0
 10
136.580944
 20
181.543578
 30
0.0
 10
136.580973
 20
181.543294
 30
0.0
  0
ENDSEC
  0
SECTION
  2
OBJECTS
  0
DICTIONARY
  5
C
330
0
100
AcDbDictionary
  3
ACAD_GROUP
350
D
  3
ACAD_MLINESTYLE
350
17
  0
DICTIONARY
  5
D
330
C
100
AcDbDictionary
  0
DICTIONARY
  5
1A
330
C
100
AcDbDictionary
  0
DICTIONARY
  5
17
330
C
100
AcDbDictionary
  3
STANDARD
350
18
  0
DICTIONARY
  5
19
330
C
100
AcDbDictionary
  0
ENDSEC
  0
EOF
