  0
SECTION
  2
HEADER
  9
$ACADVER
  1
AC1014
  9
$HANDSEED
  5
FFFF
  9
$MEASUREMENT
 70
     1
  0
ENDSEC
  0
SECTION
  2
TABLES
  0
TABLE
  2
VPORT
  5
8
330
0
100
AcDbSymbolTable
 70
     4
  0
VPORT
  5
2E
330
8
100
AcDbSymbolTableRecord
100
AcDbViewportTableRecord
  2
*ACTIVE
 70
     0
 10
0.0
 20
0.0
 11
1.0
 21
1.0
 12
210.0
 22
148.5
 13
0.0
 23
0.0
 14
10.0
 24
10.0
 15
10.0
 25
10.0
 16
0.0
 26
0.0
 36
1.0
 17
0.0
 27
0.0
 37
0.0
 40
341.0
 41
1.24
 42
50.0
 43
0.0
 44
0.0
 50
0.0
 51
0.0
 71
     0
 72
   100
 73
     1
 74
     3
 75
     0
 76
     0
 77
     0
 78
     0
  0
ENDTAB
  0
TABLE
  2
LTYPE
  5
5
330
0
100
AcDbSymbolTable
 70
     1
  0
LTYPE
  5
14
330
5
100
AcDbSymbolTableRecord
100
AcDbLinetypeTableRecord
  2
BYBLOCK
 70
     0
  3

 72
    65
 73
     0
 40
0.0
  0
LTYPE
  5
15
330
5
100
AcDbSymbolTableRecord
100
AcDbLinetypeTableRecord
  2
BYLAYER
 70
     0
  3

 72
    65
 73
     0
 40
0.0
  0
LTYPE
  5
16
330
5
100
AcDbSymbolTableRecord
100
AcDbLinetypeTableRecord
  2
CONTINUOUS
 70
     0
  3
Solid line
 72
    65
 73
     0
 40
0.0
  0
ENDTAB
  0
TABLE
  2
LAYER
  5
2
100
AcDbSymbolTable
 70
2
  0
LAYER
  5
50
100
AcDbSymbolTableRecord
100
AcDbLayerTableRecord
  2
0
 70
0
  6
CONTINUOUS
  0
LAYER
  5
51
100
AcDbSymbolTableRecord
100
AcDbLayerTableRecord
  2
Laag_1
 70
0
  6
CONTINUOUS
  0
ENDTAB
  0
TABLE
  2
STYLE
  5
3
330
0
100
AcDbSymbolTable
 70
     1
  0
STYLE
  5
11
330
3
100
AcDbSymbolTableRecord
100
AcDbTextStyleTableRecord
  2
STANDARD
 70
     0
 40
0.0
 41
1.0
 50
0.0
 71
     0
 42
2.5
  3
txt
  4

  0
ENDTAB
  0
TABLE
  2
VIEW
  5
6
330
0
100
AcDbSymbolTable
 70
     0
  0
ENDTAB
  0
TABLE
  2
UCS
  5
7
330
0
100
AcDbSymbolTable
 70
     0
  0
ENDTAB
  0
TABLE
  2
APPID
  5
9
330
0
100
AcDbSymbolTable
 70
     2
  0
APPID
  5
12
330
9
100
AcDbSymbolTableRecord
100
AcDbRegAppTableRecord
  2
ACAD
 70
     0
  0
ENDTAB
  0
TABLE
  2
DIMSTYLE
  5
A
330
0
100
AcDbSymbolTable
 70
     1
  0
DIMSTYLE
105
27
330
A
100
AcDbSymbolTableRecord
100
AcDbDimStyleTableRecord
  2
ISO-25
 70
     0
  3

  4

  5

  6

  7

 40
1.0
 41
2.5
 42
0.625
 43
3.75
 44
1.25
 45
0.0
 46
0.0
 47
0.0
 48
0.0
140
2.5
141
2.5
142
0.0
143
0.03937007874016
144
1.0
145
0.0
146
1.0
147
0.625
 71
     0
 72
     0
 73
     0
 74
     0
 75
     0
 76
     0
 77
     1
 78
     8
170
     0
171
     3
172
     1
173
     0
174
     0
175
     0
176
     0
177
     0
178
     0
270
     2
271
     2
272
     2
273
     2
274
     3
340
11
275
     0
280
     0
281
     0
282
     0
283
     0
284
     8
285
     0
286
     0
287
     3
288
     0
  0
ENDTAB
  0
TABLE
  2
BLOCK_RECORD
  5
1
330
0
100
AcDbSymbolTable
 70
     1
  0
BLOCK_RECORD
  5
1F
330
1
100
AcDbSymbolTableRecord
100
AcDbBlockTableRecord
  2
*MODEL_SPACE
  0
BLOCK_RECORD
  5
1B
330
1
100
AcDbSymbolTableRecord
100
AcDbBlockTableRecord
  2
*PAPER_SPACE
  0
ENDTAB
  0
ENDSEC
  0
SECTION
  2
BLOCKS
  0
BLOCK
  5
20
330
1F
100
AcDbEntity
  8
0
100
AcDbBlockBegin
  2
*MODEL_SPACE
 70
     0
 10
0.0
 20
0.0
 30
0.0
  3
*MODEL_SPACE
  1

  0
ENDBLK
  5
21
330
1F
100
AcDbEntity
  8
0
100
AcDbBlockEnd
  0
BLOCK
  5
1C
330
1B
100
AcDbEntity
 67
     1
  8
0
100
AcDbBlockBegin
  2
*PAPER_SPACE
  1

  0
ENDBLK
  5
1D
330
1B
100
AcDbEntity
 67
     1
  8
0
100
AcDbBlockEnd
  0
ENDSEC
  0
SECTION
  2
ENTITIES
  0
SPLINE
  5
100
100
AcDbEntity
  8
Laag_1
 62
1
100
AcDbSpline
 70
8
 71
3
 72
8
 73
4
 74
0
 40
0
 40
0
 40
0
 40
0
 40
1
 40
1
 40
1
 40
1
 10
126.433031
 20
125.582588
 30
0.0
 10
126.433031
 20
110.897218
 30
0.0
 10
118.436386
 20
97.327377
 30
0.0
 10
105.455353
 20
89.984692
 30
0.0
  0
SPLINE
  5
101
100
AcDbEntity
  8
Laag_1
 62
1
100
AcDbSpline
 70
8
 71
3
 72
8
 73
4
 74
0
 40
0
 40
0
 40
0
 40
0
 40
1
 40
1
 40
1
 40
1
 10
105.455353
 20
89.984692
 30
0.0
 10
92.474321
 20
82.642008
 30
0.0
 10
76.481029
 20
82.642008
 30
0.0
 10
63.499997
 20
89.984692
 30
0.0
  0
SPLINE
  5
102
100
AcDbEntity
  8
Laag_1
 62
1
100
AcDbSpline
 70
8
 71
3
 72
8
 73
4
 74
0
 40
0
 40
0
 40
0
 40
0
 40
1
 40
1
 40
1
 40
1
 10
63.499997
 20
89.984692
 30
0.0
 10
50.518964
 20
97.327377
 30
0.0
 10
42.522319
 20
110.897218
 30
0.0
 10
42.522319
 20
125.582588
 30
0.0
  0
SPLINE
  5
103
100
AcDbEntity
  8
Laag_1
 62
1
100
AcDbSpline
 70
8
 71
3
 72
8
 73
4
 74
0
 40
0
 40
0
 40
0
 40
0
 40
1
 40
1
 40
1
 40
1
 10
42.522319
 20
125.582588
 30
0.0
 10
42.522319
 20
140.267957
 30
0.0
 10
50.518964
 20
153.837798
 30
0.0
 10
63.499997
 20
161.180483
 30
0.0
  0
SPLINE
  5
104
100
AcDbEntity
  8
Laag_1
 62
1
100
AcDbSpline
 70
8
 71
3
 72
8
 73
4
 74
0
 40
0
 40
0
 40
0
 40
0
 40
1
 40
1
 40
1
 40
1
 10
63.499997
 20
161.180483
 30
0.0
 10
76.481029
 20
168.523167
 30
0.0
 10
92.474321
 20
168.523167
 30
0.0
 10
105.455353
 20
161.180483
 30
0.0
  0
SPLINE
  5
105
100
AcDbEntity
  8
Laag_1
 62
1
100
AcDbSpline
 70
8
 71
3
 72
8
 73
4
 74
0
 40
0
 40
0
 40
0
 40
0
 40
1
 40
1
 40
1
 40
1
 10
105.455353
 20
161.180483
 30
0.0
 10
118.436386
 20
153.837798
 30
0.0
 10
126.433031
 20
140.267957
 30
0.0
 10
126.433031
 20
125.582588
 30
0.0
  0
SPLINE
  5
106
100
AcDbEntity
  8
Laag_1
 62
1
100
AcDbSpline
 70
8
 71
3
 72
8
 73
4
 74
0
 40
0
 40
0
 40
0
 40
0
 40
1
 40
1
 40
1
 40
1
 10
73.138387
 20
134.087055
 30
0.0
 10
73.138387
 20
130.486109
 30
0.0
 10
69.838485
 20
127.566966
 30
0.0
 10
65.767851
 20
127.566966
 30
0.0
  0
SPLINE
  5
107
100
AcDbEntity
  8
Laag_1
 62
1
100
AcDbSpline
 70
8
 71
3
 72
8
 73
4
 74
0
 40
0
 40
0
 40
0
 40
0
 40
1
 40
1
 40
1
 40
1
 10
65.767851
 20
127.566966
 30
0.0
 10
61.697217
 20
127.566966
 30
0.0
 10
58.397315
 20
130.486109
 30
0.0
 10
58.397315
 20
134.087055
 30
0.0
  0
SPLINE
  5
108
100
AcDbEntity
  8
Laag_1
 62
1
100
AcDbSpline
 70
8
 71
3
 72
8
 73
4
 74
0
 40
0
 40
0
 40
0
 40
0
 40
1
 40
1
 40
1
 40
1
 10
58.397315
 20
134.087055
 30
0.0
 10
58.397315
 20
136.416459
 30
0.0
 10
59.802131
 20
138.568916
 30
0.0
 10
62.082583
 20
139.733618
 30
0.0
  0
SPLINE
  5
109
100
AcDbEntity
  8
Laag_1
 62
1
100
AcDbSpline
 70
8
 71
3
 72
8
 73
4
 74
0
 40
0
 40
0
 40
0
 40
0
 40
1
 40
1
 40
1
 40
1
 10
62.082583
 20
139.733618
 30
0.0
 10
64.363035
 20
140.898320
 30
0.0
 10
67.172667
 20
140.898320
 30
0.0
 10
69.453119
 20
139.733618
 30
0.0
  0
SPLINE
  5
10a
100
AcDbEntity
  8
Laag_1
 62
1
100
AcDbSpline
 70
8
 71
3
 72
8
 73
4
 74
0
 40
0
 40
0
 40
0
 40
0
 40
1
 40
1
 40
1
 40
1
 10
69.453119
 20
139.733618
 30
0.0
 10
71.733571
 20
138.568916
 30
0.0
 10
73.138387
 20
136.416459
 30
0.0
 10
73.138387
 20
134.087055
 30
0.0
  0
LWPOLYLINE
  5
10b
100
AcDbEntity
  8
Laag_1
 62
1
100
AcDbPolyline
 90
1
 70
1
 10
126.433031
 20
125.582588
 30
0.0
  0
SPLINE
  5
10c
100
AcDbEntity
  8
Laag_1
 62
1
100
AcDbSpline
 70
8
 71
3
 72
8
 73
4
 74
0
 40
0
 40
0
 40
0
 40
0
 40
1
 40
1
 40
1
 40
1
 10
110.558033
 20
134.370532
 30
0.0
 10
110.558033
 20
131.939851
 30
0.0
 10
109.153217
 20
129.693808
 30
0.0
 10
106.872765
 20
128.478467
 30
0.0
  0
SPLINE
  5
10d
100
AcDbEntity
  8
Laag_1
 62
1
100
AcDbSpline
 70
8
 71
3
 72
8
 73
4
 74
0
 40
0
 40
0
 40
0
 40
0
 40
1
 40
1
 40
1
 40
1
 10
106.872765
 20
128.478467
 30
0.0
 10
104.592314
 20
127.263126
 30
0.0
 10
101.782681
 20
127.263126
 30
0.0
 10
99.502230
 20
128.478467
 30
0.0
  0
SPLINE
  5
10e
100
AcDbEntity
  8
Laag_1
 62
1
100
AcDbSpline
 70
8
 71
3
 72
8
 73
4
 74
0
 40
0
 40
0
 40
0
 40
0
 40
1
 40
1
 40
1
 40
1
 10
99.502230
 20
128.478467
 30
0.0
 10
97.221778
 20
129.693808
 30
0.0
 10
95.816962
 20
131.939851
 30
0.0
 10
95.816962
 20
134.370532
 30
0.0
  0
SPLINE
  5
10f
100
AcDbEntity
  8
Laag_1
 62
1
100
AcDbSpline
 70
8
 71
3
 72
8
 73
4
 74
0
 40
0
 40
0
 40
0
 40
0
 40
1
 40
1
 40
1
 40
1
 10
95.816962
 20
134.370532
 30
0.0
 10
95.816962
 20
136.801214
 30
0.0
 10
97.221778
 20
139.047257
 30
0.0
 10
99.502230
 20
140.262598
 30
0.0
  0
SPLINE
  5
110
100
AcDbEntity
  8
Laag_1
 62
1
100
AcDbSpline
 70
8
 71
3
 72
8
 73
4
 74
0
 40
0
 40
0
 40
0
 40
0
 40
1
 40
1
 40
1
 40
1
 10
99.502230
 20
140.262598
 30
0.0
 10
101.782681
 20
141.477939
 30
0.0
 10
104.592314
 20
141.477939
 30
0.0
 10
106.872765
 20
140.262598
 30
0.0
  0
SPLINE
  5
111
100
AcDbEntity
  8
Laag_1
 62
1
100
AcDbSpline
 70
8
 71
3
 72
8
 73
4
 74
0
 40
0
 40
0
 40
0
 40
0
 40
1
 40
1
 40
1
 40
1
 10
106.872765
 20
140.262598
 30
0.0
 10
109.153217
 20
139.047257
 30
0.0
 10
110.558033
 20
136.801214
 30
0.0
 10
110.558033
 20
134.370532
 30
0.0
  0
LWPOLYLINE
  5
112
100
AcDbEntity
  8
Laag_1
 62
1
100
AcDbPolyline
 90
1
 70
1
 10
73.138387
 20
134.087055
 30
0.0
  0
LWPOLYLINE
  5
113
100
AcDbEntity
  8
Laag_1
 62
1
100
AcDbPolyline
 90
1
 70
1
 10
110.558033
 20
134.370532
 30
0.0
  0
SPLINE
  5
114
100
AcDbEntity
  8
Laag_1
 62
1
100
AcDbSpline
 70
8
 71
3
 72
8
 73
4
 74
0
 40
0
 40
0
 40
0
 40
0
 40
1
 40
1
 40
1
 40
1
 10
52.438972
 20
77.079337
 30
0.0
 10
52.438972
 20
80.070575
 30
0.0
 10
53.365156
 20
82.391158
 30
0.0
 10
55.217526
 20
84.041086
 30
0.0
  0
SPLINE
  5
115
100
AcDbEntity
  8
Laag_1
 62
1
100
AcDbSpline
 70
8
 71
3
 72
8
 73
4
 74
0
 40
0
 40
0
 40
0
 40
0
 40
1
 40
1
 40
1
 40
1
 10
55.217526
 20
84.041086
 30
0.0
 10
57.083417
 20
85.702879
 30
0.0
 10
59.699720
 20
86.533776
 30
0.0
 10
63.066436
 20
86.533776
 30
0.0
  0
SPLINE
  5
116
100
AcDbEntity
  8
Laag_1
 62
1
100
AcDbSpline
 70
8
 71
3
 72
8
 73
4
 74
0
 40
0
 40
0
 40
0
 40
0
 40
1
 40
1
 40
1
 40
1
 10
63.066436
 20
86.533776
 30
0.0
 10
66.311464
 20
86.533776
 30
0.0
 10
68.711432
 20
85.780033
 30
0.0
 10
70.266341
 20
84.272548
 30
0.0
  0
SPLINE
  5
117
100
AcDbEntity
  8
Laag_1
 62
1
100
AcDbSpline
 70
8
 71
3
 72
8
 73
4
 74
0
 40
0
 40
0
 40
0
 40
0
 40
1
 40
1
 40
1
 40
1
 10
70.266341
 20
84.272548
 30
0.0
 10
71.821250
 20
82.776928
 30
0.0
 10
72.598704
 20
80.462281
 30
0.0
 10
72.598704
 20
77.328606
 30
0.0
  0
LWPOLYLINE
  5
118
100
AcDbEntity
  8
Laag_1
 62
1
100
AcDbPolyline
 90
6
 70
0
 10
63.046154
 20
73.821025
 30
0.0
 10
63.046154
 20
67.411236
 30
0.0
 10
60.673228
 20
67.411236
 30
0.0
 10
60.673228
 20
61.624619
 30
0.0
 10
52.438972
 20
61.624619
 30
0.0
 10
52.438972
 20
77.079337
 30
0.0
  0
SPLINE
  5
119
100
AcDbEntity
  8
Laag_1
 62
1
100
AcDbSpline
 70
8
 71
3
 72
8
 73
4
 74
0
 40
0
 40
0
 40
0
 40
0
 40
1
 40
1
 40
1
 40
1
 10
64.364447
 20
76.847875
 30
0.0
 10
64.364447
 20
77.797471
 30
0.0
 10
64.235998
 20
78.456255
 30
0.0
 10
63.979101
 20
78.824228
 30
0.0
  0
SPLINE
  5
11a
100
AcDbEntity
  8
Laag_1
 62
1
100
AcDbSpline
 70
8
 71
3
 72
8
 73
4
 74
0
 40
0
 40
0
 40
0
 40
0
 40
1
 40
1
 40
1
 40
1
 10
63.979101
 20
78.824228
 30
0.0
 10
63.722202
 20
79.192196
 30
0.0
 10
63.262490
 20
79.376180
 30
0.0
 10
62.599963
 20
79.376180
 30
0.0
  0
SPLINE
  5
11b
100
AcDbEntity
  8
Laag_1
 62
1
100
AcDbSpline
 70
8
 71
3
 72
8
 73
4
 74
0
 40
0
 40
0
 40
0
 40
0
 40
1
 40
1
 40
1
 40
1
 10
62.599963
 20
79.376180
 30
0.0
 10
61.315473
 20
79.376180
 30
0.0
 10
60.673228
 20
78.533411
 30
0.0
 10
60.673228
 20
76.847875
 30
0.0
  0
LWPOLYLINE
  5
11c
100
AcDbEntity
  8
Laag_1
 62
1
100
AcDbPolyline
 90
4
 70
0
 10
72.598704
 20
77.328606
 30
0.0
 10
72.598704
 20
61.624619
 30
0.0
 10
64.364447
 20
61.624619
 30
0.0
 10
64.364447
 20
76.847875
 30
0.0
  0
LWPOLYLINE
  5
11d
100
AcDbEntity
  8
Laag_1
 62
1
100
AcDbPolyline
 90
3
 70
0
 10
60.673228
 20
76.847875
 30
0.0
 10
60.673228
 20
73.821025
 30
0.0
 10
63.046154
 20
73.821025
 30
0.0
  0
SPLINE
  5
11e
100
AcDbEntity
  8
Laag_1
 62
1
100
AcDbSpline
 70
8
 71
3
 72
8
 73
4
 74
0
 40
0
 40
0
 40
0
 40
0
 40
1
 40
1
 40
1
 40
1
 10
84.159116
 20
71.381748
 30
0.0
 10
84.159116
 20
69.019623
 30
0.0
 10
85.125864
 20
67.838560
 30
0.0
 10
87.059360
 20
67.838560
 30
0.0
  0
SPLINE
  5
11f
100
AcDbEntity
  8
Laag_1
 62
1
100
AcDbSpline
 70
8
 71
3
 72
8
 73
4
 74
0
 40
0
 40
0
 40
0
 40
0
 40
1
 40
1
 40
1
 40
1
 10
87.059360
 20
67.838560
 30
0.0
 10
87.884138
 20
67.838560
 30
0.0
 10
88.580467
 20
68.081894
 30
0.0
 10
89.148345
 20
68.568561
 30
0.0
  0
SPLINE
  5
120
100
AcDbEntity
  8
Laag_1
 62
1
100
AcDbSpline
 70
8
 71
3
 72
8
 73
4
 74
0
 40
0
 40
0
 40
0
 40
0
 40
1
 40
1
 40
1
 40
1
 10
89.148345
 20
68.568561
 30
0.0
 10
89.729746
 20
69.067099
 30
0.0
 10
90.020447
 20
69.666534
 30
0.0
 10
90.020447
 20
70.366865
 30
0.0
  0
SPLINE
  5
121
100
AcDbEntity
  8
Laag_1
 62
1
100
AcDbSpline
 70
8
 71
3
 72
8
 73
4
 74
0
 40
0
 40
0
 40
0
 40
0
 40
1
 40
1
 40
1
 40
1
 10
90.020447
 20
70.366865
 30
0.0
 10
90.020447
 20
71.090934
 30
0.0
 10
89.750027
 20
71.696302
 30
0.0
 10
89.209188
 20
72.182969
 30
0.0
  0
SPLINE
  5
122
100
AcDbEntity
  8
Laag_1
 62
1
100
AcDbSpline
 70
8
 71
3
 72
8
 73
4
 74
0
 40
0
 40
0
 40
0
 40
0
 40
1
 40
1
 40
1
 40
1
 10
89.209188
 20
72.182969
 30
0.0
 10
88.668349
 20
72.681507
 30
0.0
 10
88.005824
 20
72.930776
 30
0.0
 10
87.221613
 20
72.930776
 30
0.0
  0
SPLINE
  5
123
100
AcDbEntity
  8
Laag_1
 62
1
100
AcDbSpline
 70
8
 71
3
 72
8
 73
4
 74
0
 40
0
 40
0
 40
0
 40
0
 40
1
 40
1
 40
1
 40
1
 10
87.221613
 20
72.930776
 30
0.0
 10
86.667252
 20
72.930776
 30
0.0
 10
86.031766
 20
72.717119
 30
0.0
 10
85.315157
 20
72.289804
 30
0.0
  0
LWPOLYLINE
  5
124
100
AcDbEntity
  8
Laag_1
 62
1
100
AcDbPolyline
 90
2
 70
0
 10
84.159116
 20
85.928411
 30
0.0
 10
84.159116
 20
71.381748
 30
0.0
  0
SPLINE
  5
125
100
AcDbEntity
  8
Laag_1
 62
1
100
AcDbSpline
 70
8
 71
3
 72
8
 73
4
 74
0
 40
0
 40
0
 40
0
 40
0
 40
1
 40
1
 40
1
 40
1
 10
85.315157
 20
79.625449
 30
0.0
 10
86.207537
 20
79.696667
 30
0.0
 10
86.883584
 20
79.732276
 30
0.0
 10
87.343299
 20
79.732276
 30
0.0
  0
SPLINE
  5
126
100
AcDbEntity
  8
Laag_1
 62
1
100
AcDbSpline
 70
8
 71
3
 72
8
 73
4
 74
0
 40
0
 40
0
 40
0
 40
0
 40
1
 40
1
 40
1
 40
1
 10
87.343299
 20
79.732276
 30
0.0
 10
90.196220
 20
79.732276
 30
0.0
 10
92.636751
 20
78.830159
 30
0.0
 10
94.664893
 20
77.025923
 30
0.0
  0
SPLINE
  5
127
100
AcDbEntity
  8
Laag_1
 62
1
100
AcDbSpline
 70
8
 71
3
 72
8
 73
4
 74
0
 40
0
 40
0
 40
0
 40
0
 40
1
 40
1
 40
1
 40
1
 10
94.664893
 20
77.025923
 30
0.0
 10
96.706553
 20
75.221688
 30
0.0
 10
97.727382
 20
73.049482
 30
0.0
 10
97.727382
 20
70.509306
 30
0.0
  0
SPLINE
  5
128
100
AcDbEntity
  8
Laag_1
 62
1
100
AcDbSpline
 70
8
 71
3
 72
8
 73
4
 74
0
 40
0
 40
0
 40
0
 40
0
 40
1
 40
1
 40
1
 40
1
 10
97.727382
 20
70.509306
 30
0.0
 10
97.727382
 20
67.909779
 30
0.0
 10
96.693030
 20
65.719766
 30
0.0
 10
94.624326
 20
63.939269
 30
0.0
  0
SPLINE
  5
129
100
AcDbEntity
  8
Laag_1
 62
1
100
AcDbSpline
 70
8
 71
3
 72
8
 73
4
 74
0
 40
0
 40
0
 40
0
 40
0
 40
1
 40
1
 40
1
 40
1
 10
94.624326
 20
63.939269
 30
0.0
 10
92.555622
 20
62.158771
 30
0.0
 10
90.013685
 20
61.268523
 30
0.0
 10
86.998517
 20
61.268523
 30
0.0
  0
SPLINE
  5
12a
100
AcDbEntity
  8
Laag_1
 62
1
100
AcDbSpline
 70
8
 71
3
 72
8
 73
4
 74
0
 40
0
 40
0
 40
0
 40
0
 40
1
 40
1
 40
1
 40
1
 10
86.998517
 20
61.268523
 30
0.0
 10
85.484169
 20
61.268523
 30
0.0
 10
84.003624
 20
61.559336
 30
0.0
 10
82.556883
 20
62.140964
 30
0.0
  0
SPLINE
  5
12b
100
AcDbEntity
  8
Laag_1
 62
1
100
AcDbSpline
 70
8
 71
3
 72
8
 73
4
 74
0
 40
0
 40
0
 40
0
 40
0
 40
1
 40
1
 40
1
 40
1
 10
82.556883
 20
62.140964
 30
0.0
 10
81.123662
 20
62.722592
 30
0.0
 10
79.940579
 20
63.506011
 30
0.0
 10
79.007634
 20
64.491221
 30
0.0
  0
SPLINE
  5
12c
100
AcDbEntity
  8
Laag_1
 62
1
100
AcDbSpline
 70
8
 71
3
 72
8
 73
4
 74
0
 40
0
 40
0
 40
0
 40
0
 40
1
 40
1
 40
1
 40
1
 10
79.007634
 20
64.491221
 30
0.0
 10
77.385120
 20
66.200500
 30
0.0
 10
76.573863
 20
68.414253
 30
0.0
 10
76.573863
 20
71.132479
 30
0.0
  0
LWPOLYLINE
  5
12d
100
AcDbEntity
  8
Laag_1
 62
1
100
AcDbPolyline
 90
2
 70
0
 10
85.315157
 20
72.289804
 30
0.0
 10
85.315157
 20
79.625449
 30
0.0
  0
LWPOLYLINE
  5
12e
100
AcDbEntity
  8
Laag_1
 62
1
100
AcDbPolyline
 90
3
 70
0
 10
76.573863
 20
71.132479
 30
0.0
 10
76.573863
 20
85.928411
 30
0.0
 10
84.159116
 20
85.928411
 30
0.0
  0
SPLINE
  5
12f
100
AcDbEntity
  8
Laag_1
 62
1
100
AcDbSpline
 70
8
 71
3
 72
8
 73
4
 74
0
 40
0
 40
0
 40
0
 40
0
 40
1
 40
1
 40
1
 40
1
 10
120.969892
 20
70.046375
 30
0.0
 10
120.753560
 20
67.482457
 30
0.0
 10
119.665123
 20
65.375534
 30
0.0
 10
117.704582
 20
63.725606
 30
0.0
  0
SPLINE
  5
130
100
AcDbEntity
  8
Laag_1
 62
1
100
AcDbSpline
 70
8
 71
3
 72
8
 73
4
 74
0
 40
0
 40
0
 40
0
 40
0
 40
1
 40
1
 40
1
 40
1
 10
117.704582
 20
63.725606
 30
0.0
 10
115.744047
 20
62.075679
 30
0.0
 10
113.357600
 20
61.250716
 30
0.0
 10
110.545241
 20
61.250716
 30
0.0
  0
SPLINE
  5
131
100
AcDbEntity
  8
Laag_1
 62
1
100
AcDbSpline
 70
8
 71
3
 72
8
 73
4
 74
0
 40
0
 40
0
 40
0
 40
0
 40
1
 40
1
 40
1
 40
1
 10
110.545241
 20
61.250716
 30
0.0
 10
107.570635
 20
61.250716
 30
0.0
 10
105.055741
 20
62.158769
 30
0.0
 10
103.000559
 20
63.974876
 30
0.0
  0
SPLINE
  5
132
100
AcDbEntity
  8
Laag_1
 62
1
100
AcDbSpline
 70
8
 71
3
 72
8
 73
4
 74
0
 40
0
 40
0
 40
0
 40
0
 40
1
 40
1
 40
1
 40
1
 10
103.000559
 20
63.974876
 30
0.0
 10
100.958894
 20
65.790987
 30
0.0
 10
99.938062
 20
68.016609
 30
0.0
 10
99.938062
 20
70.651741
 30
0.0
  0
SPLINE
  5
133
100
AcDbEntity
  8
Laag_1
 62
1
100
AcDbSpline
 70
8
 71
3
 72
8
 73
4
 74
0
 40
0
 40
0
 40
0
 40
0
 40
1
 40
1
 40
1
 40
1
 10
99.938062
 20
70.651741
 30
0.0
 10
99.938062
 20
73.156308
 30
0.0
 10
100.972414
 20
75.298840
 30
0.0
 10
103.041118
 20
77.079337
 30
0.0
  0
SPLINE
  5
134
100
AcDbEntity
  8
Laag_1
 62
1
100
AcDbSpline
 70
8
 71
3
 72
8
 73
4
 74
0
 40
0
 40
0
 40
0
 40
0
 40
1
 40
1
 40
1
 40
1
 10
103.041118
 20
77.079337
 30
0.0
 10
105.109822
 20
78.859835
 30
0.0
 10
107.590916
 20
79.750083
 30
0.0
 10
110.484398
 20
79.750083
 30
0.0
  0
SPLINE
  5
135
100
AcDbEntity
  8
Laag_1
 62
1
100
AcDbSpline
 70
8
 71
3
 72
8
 73
4
 74
0
 40
0
 40
0
 40
0
 40
0
 40
1
 40
1
 40
1
 40
1
 10
110.484398
 20
79.750083
 30
0.0
 10
113.012818
 20
79.750083
 30
0.0
 10
115.243775
 20
79.049754
 30
0.0
 10
117.177271
 20
77.649096
 30
0.0
  0
SPLINE
  5
136
100
AcDbEntity
  8
Laag_1
 62
1
100
AcDbSpline
 70
8
 71
3
 72
8
 73
4
 74
0
 40
0
 40
0
 40
0
 40
0
 40
1
 40
1
 40
1
 40
1
 10
117.177271
 20
77.649096
 30
0.0
 10
119.110767
 20
76.248438
 30
0.0
 10
120.314131
 20
74.462007
 30
0.0
 10
120.787363
 20
72.289804
 30
0.0
  0
LWPOLYLINE
  5
137
100
AcDbEntity
  8
Laag_1
 62
1
100
AcDbPolyline
 90
2
 70
0
 10
113.445485
 20
69.797106
 30
0.0
 10
120.969892
 20
70.046375
 30
0.0
  0
SPLINE
  5
138
100
AcDbEntity
  8
Laag_1
 62
1
100
AcDbSpline
 70
8
 71
3
 72
8
 73
4
 74
0
 40
0
 40
0
 40
0
 40
0
 40
1
 40
1
 40
1
 40
1
 10
113.100703
 20
72.040528
 30
0.0
 10
112.438178
 20
72.800211
 30
0.0
 10
111.599880
 20
73.180053
 30
0.0
 10
110.585809
 20
73.180053
 30
0.0
  0
SPLINE
  5
139
100
AcDbEntity
  8
Laag_1
 62
1
100
AcDbSpline
 70
8
 71
3
 72
8
 73
4
 74
0
 40
0
 40
0
 40
0
 40
0
 40
1
 40
1
 40
1
 40
1
 10
110.585809
 20
73.180053
 30
0.0
 10
109.720468
 20
73.180053
 30
0.0
 10
109.010617
 20
72.930781
 30
0.0
 10
108.456256
 20
72.432238
 30
0.0
  0
SPLINE
  5
13a
100
AcDbEntity
  8
Laag_1
 62
1
100
AcDbSpline
 70
8
 71
3
 72
8
 73
4
 74
0
 40
0
 40
0
 40
0
 40
0
 40
1
 40
1
 40
1
 40
1
 10
108.456256
 20
72.432238
 30
0.0
 10
107.901900
 20
71.933700
 30
0.0
 10
107.624722
 20
71.304592
 30
0.0
 10
107.624722
 20
70.544913
 30
0.0
  0
SPLINE
  5
13b
100
AcDbEntity
  8
Laag_1
 62
1
100
AcDbSpline
 70
8
 71
3
 72
8
 73
4
 74
0
 40
0
 40
0
 40
0
 40
0
 40
1
 40
1
 40
1
 40
1
 10
107.624722
 20
70.544913
 30
0.0
 10
107.624722
 20
69.773363
 30
0.0
 10
107.915422
 20
69.126451
 30
0.0
 10
108.496823
 20
68.604174
 30
0.0
  0
SPLINE
  5
13c
100
AcDbEntity
  8
Laag_1
 62
1
100
AcDbSpline
 70
8
 71
3
 72
8
 73
4
 74
0
 40
0
 40
0
 40
0
 40
0
 40
1
 40
1
 40
1
 40
1
 10
108.496823
 20
68.604174
 30
0.0
 10
109.091741
 20
68.081894
 30
0.0
 10
109.828632
 20
67.820753
 30
0.0
 10
110.707495
 20
67.820753
 30
0.0
  0
SPLINE
  5
13d
100
AcDbEntity
  8
Laag_1
 62
1
100
AcDbSpline
 70
8
 71
3
 72
8
 73
4
 74
0
 40
0
 40
0
 40
0
 40
0
 40
1
 40
1
 40
1
 40
1
 10
110.707495
 20
67.820753
 30
0.0
 10
111.991983
 20
67.820753
 30
0.0
 10
112.904646
 20
68.479538
 30
0.0
 10
113.445485
 20
69.797106
 30
0.0
  0
LWPOLYLINE
  5
13e
100
AcDbEntity
  8
Laag_1
 62
1
100
AcDbPolyline
 90
2
 70
0
 10
120.787363
 20
72.289804
 30
0.0
 10
113.100703
 20
72.040528
 30
0.0
  0
LWPOLYLINE
  5
13f
100
AcDbEntity
  8
Laag_1
 62
1
100
AcDbPolyline
 90
1
 70
1
 10
113.445485
 20
69.797106
 30
0.0
  0
SPLINE
  5
140
100
AcDbEntity
  8
Laag_1
 62
1
100
AcDbSpline
 70
8
 71
3
 72
8
 73
4
 74
0
 40
0
 40
0
 40
0
 40
0
 40
1
 40
1
 40
1
 40
1
 10
98.651782
 20
106.589287
 30
0.0
 10
98.651782
 20
106.589287
 30
0.0
 10
84.477675
 20
86.178570
 30
0.0
 10
68.035713
 20
107.156250
 30
0.0
  0
LWPOLYLINE
  5
141
100
AcDbEntity
  8
Laag_1
 62
1
100
AcDbPolyline
 90
2
 70
0
 10
68.035713
 20
107.156250
 30
0.0
 10
98.651782
 20
106.589287
 30
0.0
  0
LWPOLYLINE
  5
142
100
AcDbEntity
  8
Laag_1
 62
1
100
AcDbPolyline
 90
1
 70
1
 10
68.035713
 20
107.156250
 30
0.0
  0
LWPOLYLINE
  5
143
100
AcDbEntity
  8
Laag_1
 62
1
100
AcDbPolyline
 90
4
 70
1
 10
79.374998
 20
106.589287
 30
0.0
 10
87.312497
 20
106.589287
 30
0.0
 10
87.312497
 20
102.620538
 30
0.0
 10
79.374998
 20
102.620538
 30
0.0
  0
ENDSEC
  0
SECTION
  2
OBJECTS
  0
DICTIONARY
  5
C
330
0
100
AcDbDictionary
  3
ACAD_GROUP
350
D
  3
ACAD_MLINESTYLE
350
17
  0
DICTIONARY
  5
D
330
C
100
AcDbDictionary
  0
DICTIONARY
  5
1A
330
C
100
AcDbDictionary
  0
DICTIONARY
  5
17
330
C
100
AcDbDictionary
  3
STANDARD
350
18
  0
DICTIONARY
  5
19
330
C
100
AcDbDictionary
  0
ENDSEC
  0
EOF
