solid m2c florian medicijn bakje 2
facet normal 0.0 -0.43201977227752264 0.9018641340918695
outer loop
vertex 78.45784956266728 112.32229299615234 26.03728268183737
vertex 76.46588556266728 113.96617698972956 26.736297059515433
vertex 76.46588556266728 112.32229299615234 26.03728268183737
endloop
endfacet
facet normal 0.0 -0.34982557259866137 0.9368148529757728
outer loop
vertex 76.46588556266728 113.96617698972956 26.736297059515433
vertex 78.45784956266728 112.32229299615234 26.03728268183737
vertex 78.45784956266728 113.96617698972956 26.736297059515433
endloop
endfacet
facet normal 0.0 -0.779246275671271 0.6267178327225527
outer loop
vertex 78.45784956266728 105.37776292827739 20.534356654451035
vertex 76.46588556266728 104.32151874202236 19.093758201188482
vertex 78.45784956266728 104.32151874202236 19.093758201188482
endloop
endfacet
facet normal 0.0 -0.8320584849840247 0.5546879100594222
outer loop
vertex 76.46588556266728 104.32151874202236 19.093758201188482
vertex 78.45784956266728 105.37776292827739 20.534356654451035
vertex 76.46588556266728 105.37776292827739 20.534356654451035
endloop
endfacet
facet normal 0.0 -0.34982557259866137 0.9368148529757728
outer loop
vertex 78.45784956266728 113.96617698972956 26.736297059515433
vertex 76.46588556266728 115.6658752281064 27.285843766355413
vertex 76.46588556266728 113.96617698972956 26.736297059515433
endloop
endfacet
facet normal 0.0 -0.2648406606798238 0.9642921883177704
outer loop
vertex 76.46588556266728 115.6658752281064 27.285843766355413
vertex 78.45784956266728 113.96617698972956 26.736297059515433
vertex 78.45784956266728 115.6658752281064 27.285843766355413
endloop
endfacet
facet normal 0.0 -0.5107675604849414 0.8597188489013496
outer loop
vertex 78.45784956266728 110.74733723200403 25.194376978027012
vertex 76.46588556266728 112.32229299615234 26.03728268183737
vertex 76.46588556266728 110.74733723200403 25.194376978027012
endloop
endfacet
facet normal 0.0 -0.43201977227752264 0.9018641340918695
outer loop
vertex 76.46588556266728 112.32229299615234 26.03728268183737
vertex 78.45784956266728 110.74733723200403 25.194376978027012
vertex 78.45784956266728 112.32229299615234 26.03728268183737
endloop
endfacet
facet normal 0.0 -0.17774299848971484 0.9840769413454851
outer loop
vertex 78.45784956266728 117.40782847190857 27.68153882690971
vertex 76.46588556266728 119.17814039502464 27.9202256078865
vertex 76.46588556266728 117.40782847190857 27.68153882690971
endloop
endfacet
facet normal 4.138410484664372e-19 -0.08922740233390904 0.9960112803943251
outer loop
vertex 76.46588556266728 119.17814039502464 27.9202256078865
vertex 78.45784956266728 117.40782847190857 27.68153882690971
vertex 78.45784956266728 119.17814039502464 27.9202256078865
endloop
endfacet
facet normal 0.0 -0.6554435847223654 0.7552441375120336
outer loop
vertex 78.45784956266728 107.85381674725552 23.104882750240673
vertex 76.46588556266728 109.25387381115371 24.21430417709741
vertex 76.46588556266728 107.85381674725552 23.104882750240673
endloop
endfacet
facet normal 0.0 -0.5854407315274571 0.8107152088548703
outer loop
vertex 76.46588556266728 109.25387381115371 24.21430417709741
vertex 78.45784956266728 107.85381674725552 23.104882750240673
vertex 78.45784956266728 109.25387381115371 24.21430417709741
endloop
endfacet
facet normal 0.0 -0.7071067811865476 -0.7071067811865476
outer loop
vertex 78.45784956266728 103.3980284754523 17.564659966250534
vertex 76.46588556266728 120.96268844170284 0.0
vertex 78.46588556266727 120.96268844170284 0.0
endloop
endfacet
facet normal 0.0 -0.7071067811865476 -0.7071067811865476
outer loop
vertex 76.46588556266728 120.96268844170284 0.0
vertex 78.45784956266728 103.3980284754523 17.564659966250534
vertex 76.46588556266728 103.3980284754523 17.564659966250534
endloop
endfacet
facet normal 0.0 1.0 0.0
outer loop
vertex 69.66588556266727 122.16268844170284 28.0
vertex 85.26588556266726 122.16268844170284 1.5
vertex 69.66588556266727 122.16268844170284 1.5
endloop
endfacet
facet normal 0.0 1.0 0.0
outer loop
vertex 85.26588556266726 122.16268844170284 1.5
vertex 69.66588556266727 122.16268844170284 28.0
vertex 85.26588556266726 122.16268844170284 28.0
endloop
endfacet
facet normal 0.0 -0.8320584849840247 0.5546879100594222
outer loop
vertex 78.45784956266728 104.32151874202236 19.093758201188482
vertex 76.46588556266728 103.3980284754523 17.564659966250534
vertex 78.45784956266728 103.3980284754523 17.564659966250534
endloop
endfacet
facet normal 0.0 -0.8559997534121937 0.5169762297806966
outer loop
vertex 76.46588556266728 103.3980284754523 17.564659966250534
vertex 78.45784956266728 104.32151874202236 19.093758201188482
vertex 76.46588556266728 104.32151874202236 19.093758201188482
endloop
endfacet
facet normal 4.1443279658122595e-19 -0.08916373675439464 0.9960169818070337
outer loop
vertex 78.45784956266728 119.17814039502464 27.9202256078865
vertex 76.46588556266728 120.96268844170284 28.0
vertex 76.46588556266728 119.17814039502464 27.9202256078865
endloop
endfacet
facet normal 8.268563370599924e-19 -0.044658255707511765 0.9990023224183029
outer loop
vertex 76.46588556266728 120.96268844170284 28.0
vertex 78.45784956266728 119.17814039502464 27.9202256078865
vertex 78.46588556266727 120.96268844170284 28.0
endloop
endfacet
facet normal -0.0 1.0 -0.0
outer loop
vertex 68.46588556266727 166.96268844170285 28.0
vertex 86.46588556266727 166.96268844170285 0.0
vertex 68.46588556266727 166.96268844170285 0.0
endloop
endfacet
facet normal -0.0 1.0 -0.0
outer loop
vertex 86.46588556266727 166.96268844170285 0.0
vertex 68.46588556266727 166.96268844170285 28.0
vertex 86.46588556266727 166.96268844170285 28.0
endloop
endfacet
facet normal 0.0 -0.2648406606798238 0.9642921883177704
outer loop
vertex 78.45784956266728 115.6658752281064 27.285843766355413
vertex 76.46588556266728 117.40782847190857 27.68153882690971
vertex 76.46588556266728 115.6658752281064 27.285843766355413
endloop
endfacet
facet normal 0.0 -0.17774299848971484 0.9840769413454851
outer loop
vertex 76.46588556266728 117.40782847190857 27.68153882690971
vertex 78.45784956266728 115.6658752281064 27.285843766355413
vertex 78.45784956266728 117.40782847190857 27.68153882690971
endloop
endfacet
facet normal 0.0 -0.7202176765636807 0.6937481519724672
outer loop
vertex 78.45784956266728 106.55833491042921 21.87496303944932
vertex 76.46588556266728 105.37776292827739 20.534356654451035
vertex 78.45784956266728 105.37776292827739 20.534356654451035
endloop
endfacet
facet normal 0.0 -0.779246275671271 0.6267178327225527
outer loop
vertex 76.46588556266728 105.37776292827739 20.534356654451035
vertex 78.45784956266728 106.55833491042921 21.87496303944932
vertex 76.46588556266728 106.55833491042921 21.87496303944932
endloop
endfacet
facet normal -0.0 -0.0 1.0
outer loop
vertex 68.46588556266727 120.96268844170284 28.0
vertex 69.66588556266727 122.16268844170284 28.0
vertex 68.46588556266727 166.96268844170285 28.0
endloop
endfacet
facet normal -0.0 -0.0 1.0
outer loop
vertex 69.66588556266727 122.16268844170284 28.0
vertex 68.46588556266727 120.96268844170284 28.0
vertex 76.46588556266728 120.96268844170284 28.0
endloop
endfacet
facet normal -0.0 -0.0 1.0
outer loop
vertex 69.66588556266727 122.16268844170284 28.0
vertex 76.46588556266728 120.96268844170284 28.0
vertex 85.26588556266726 122.16268844170284 28.0
endloop
endfacet
facet normal -0.0 -0.0 1.0
outer loop
vertex 85.26588556266726 122.16268844170284 28.0
vertex 76.46588556266728 120.96268844170284 28.0
vertex 78.46588556266727 120.96268844170284 28.0
endloop
endfacet
facet normal -0.0 -0.0 1.0
outer loop
vertex 85.26588556266726 122.16268844170284 28.0
vertex 78.46588556266727 120.96268844170284 28.0
vertex 86.46588556266727 120.96268844170284 28.0
endloop
endfacet
facet normal -0.0 -0.0 1.0
outer loop
vertex 85.26588556266726 122.16268844170284 28.0
vertex 86.46588556266727 120.96268844170284 28.0
vertex 85.26588556266726 165.76268844170284 28.0
endloop
endfacet
facet normal -0.0 -0.0 1.0
outer loop
vertex 68.46588556266727 166.96268844170285 28.0
vertex 69.66588556266727 165.76268844170284 28.0
vertex 86.46588556266727 166.96268844170285 28.0
endloop
endfacet
facet normal -0.0 -0.0 1.0
outer loop
vertex 69.66588556266727 165.76268844170284 28.0
vertex 68.46588556266727 166.96268844170285 28.0
vertex 69.66588556266727 122.16268844170284 28.0
endloop
endfacet
facet normal -0.0 -0.0 1.0
outer loop
vertex 86.46588556266727 166.96268844170285 28.0
vertex 69.66588556266727 165.76268844170284 28.0
vertex 85.26588556266726 165.76268844170284 28.0
endloop
endfacet
facet normal -0.0 -0.0 1.0
outer loop
vertex 86.46588556266727 166.96268844170285 28.0
vertex 85.26588556266726 165.76268844170284 28.0
vertex 86.46588556266727 120.96268844170284 28.0
endloop
endfacet
facet normal 0.0 -1.0 0.0
outer loop
vertex 86.46588556266727 120.96268844170284 28.0
vertex 78.46588556266727 120.96268844170284 0.0
vertex 86.46588556266727 120.96268844170284 0.0
endloop
endfacet
facet normal 0.0 -1.0 0.0
outer loop
vertex 78.46588556266727 120.96268844170284 0.0
vertex 86.46588556266727 120.96268844170284 28.0
vertex 78.46588556266727 120.96268844170284 28.0
endloop
endfacet
facet normal 0.0 -1.0 0.0
outer loop
vertex 76.46588556266728 120.96268844170284 28.0
vertex 68.46588556266727 120.96268844170284 0.0
vertex 76.46588556266728 120.96268844170284 0.0
endloop
endfacet
facet normal 0.0 -1.0 0.0
outer loop
vertex 68.46588556266727 120.96268844170284 0.0
vertex 76.46588556266728 120.96268844170284 28.0
vertex 68.46588556266727 120.96268844170284 28.0
endloop
endfacet
facet normal 0.0 -1.0 0.0
outer loop
vertex 85.26588556266726 165.76268844170284 28.0
vertex 69.66588556266727 165.76268844170284 1.5
vertex 85.26588556266726 165.76268844170284 1.5
endloop
endfacet
facet normal 0.0 -1.0 0.0
outer loop
vertex 69.66588556266727 165.76268844170284 1.5
vertex 85.26588556266726 165.76268844170284 28.0
vertex 69.66588556266727 165.76268844170284 28.0
endloop
endfacet
facet normal -1.0 0.0 0.0
outer loop
vertex 68.46588556266727 166.96268844170285 28.0
vertex 68.46588556266727 120.96268844170284 0.0
vertex 68.46588556266727 120.96268844170284 28.0
endloop
endfacet
facet normal -1.0 0.0 0.0
outer loop
vertex 68.46588556266727 120.96268844170284 0.0
vertex 68.46588556266727 166.96268844170285 28.0
vertex 68.46588556266727 166.96268844170285 0.0
endloop
endfacet
facet normal -1.0 0.0 0.0
outer loop
vertex 76.46588556266728 104.32151874202236 19.093758201188482
vertex 76.46588556266728 120.96268844170284 0.0
vertex 76.46588556266728 103.3980284754523 17.564659966250534
endloop
endfacet
facet normal -1.0 0.0 0.0
outer loop
vertex 76.46588556266728 120.96268844170284 0.0
vertex 76.46588556266728 104.32151874202236 19.093758201188482
vertex 76.46588556266728 105.37776292827739 20.534356654451035
endloop
endfacet
facet normal -1.0 0.0 0.0
outer loop
vertex 76.46588556266728 120.96268844170284 0.0
vertex 76.46588556266728 105.37776292827739 20.534356654451035
vertex 76.46588556266728 106.55833491042921 21.87496303944932
endloop
endfacet
facet normal -1.0 0.0 0.0
outer loop
vertex 76.46588556266728 120.96268844170284 0.0
vertex 76.46588556266728 106.55833491042921 21.87496303944932
vertex 76.46588556266728 107.85381674725552 23.104882750240673
endloop
endfacet
facet normal -1.0 0.0 0.0
outer loop
vertex 76.46588556266728 120.96268844170284 0.0
vertex 76.46588556266728 107.85381674725552 23.104882750240673
vertex 76.46588556266728 109.25387381115371 24.21430417709741
endloop
endfacet
facet normal -1.0 0.0 0.0
outer loop
vertex 76.46588556266728 120.96268844170284 0.0
vertex 76.46588556266728 109.25387381115371 24.21430417709741
vertex 76.46588556266728 110.74733723200403 25.194376978027012
endloop
endfacet
facet normal -1.0 0.0 0.0
outer loop
vertex 76.46588556266728 120.96268844170284 0.0
vertex 76.46588556266728 110.74733723200403 25.194376978027012
vertex 76.46588556266728 112.32229299615234 26.03728268183737
endloop
endfacet
facet normal -1.0 0.0 0.0
outer loop
vertex 76.46588556266728 120.96268844170284 0.0
vertex 76.46588556266728 112.32229299615234 26.03728268183737
vertex 76.46588556266728 113.96617698972956 26.736297059515433
endloop
endfacet
facet normal -1.0 0.0 0.0
outer loop
vertex 76.46588556266728 120.96268844170284 0.0
vertex 76.46588556266728 113.96617698972956 26.736297059515433
vertex 76.46588556266728 115.6658752281064 27.285843766355413
endloop
endfacet
facet normal -1.0 0.0 0.0
outer loop
vertex 76.46588556266728 120.96268844170284 0.0
vertex 76.46588556266728 115.6658752281064 27.285843766355413
vertex 76.46588556266728 117.40782847190857 27.68153882690971
endloop
endfacet
facet normal -1.0 0.0 0.0
outer loop
vertex 76.46588556266728 120.96268844170284 0.0
vertex 76.46588556266728 117.40782847190857 27.68153882690971
vertex 76.46588556266728 119.17814039502464 27.9202256078865
endloop
endfacet
facet normal -1.0 0.0 0.0
outer loop
vertex 76.46588556266728 120.96268844170284 0.0
vertex 76.46588556266728 119.17814039502464 27.9202256078865
vertex 76.46588556266728 120.96268844170284 28.0
endloop
endfacet
facet normal 0.0 -0.7202176765636807 0.6937481519724672
outer loop
vertex 78.45784956266728 106.55833491042921 21.87496303944932
vertex 76.46588556266728 107.85381674725552 23.104882750240673
vertex 76.46588556266728 106.55833491042921 21.87496303944932
endloop
endfacet
facet normal 0.0 -0.6554435847223654 0.7552441375120336
outer loop
vertex 76.46588556266728 107.85381674725552 23.104882750240673
vertex 78.45784956266728 106.55833491042921 21.87496303944932
vertex 78.45784956266728 107.85381674725552 23.104882750240673
endloop
endfacet
facet normal 0.0 -0.5854407315274571 0.8107152088548703
outer loop
vertex 78.45784956266728 109.25387381115371 24.21430417709741
vertex 76.46588556266728 110.74733723200403 25.194376978027012
vertex 76.46588556266728 109.25387381115371 24.21430417709741
endloop
endfacet
facet normal 0.0 -0.5107675604849414 0.8597188489013496
outer loop
vertex 76.46588556266728 110.74733723200403 25.194376978027012
vertex 78.45784956266728 109.25387381115371 24.21430417709741
vertex 78.45784956266728 110.74733723200403 25.194376978027012
endloop
endfacet
facet normal -1.0 0.0 0.0
outer loop
vertex 85.26588556266726 165.76268844170284 28.0
vertex 85.26588556266726 122.16268844170284 1.5
vertex 85.26588556266726 122.16268844170284 28.0
endloop
endfacet
facet normal -1.0 0.0 0.0
outer loop
vertex 85.26588556266726 122.16268844170284 1.5
vertex 85.26588556266726 165.76268844170284 28.0
vertex 85.26588556266726 165.76268844170284 1.5
endloop
endfacet
facet normal 0.0 0.0 -1.0
outer loop
vertex 86.46588556266727 166.96268844170285 0.0
vertex 68.46588556266727 120.96268844170284 0.0
vertex 68.46588556266727 166.96268844170285 0.0
endloop
endfacet
facet normal 0.0 0.0 -1.0
outer loop
vertex 68.46588556266727 120.96268844170284 0.0
vertex 86.46588556266727 166.96268844170285 0.0
vertex 76.46588556266728 120.96268844170284 0.0
endloop
endfacet
facet normal 0.0 0.0 -1.0
outer loop
vertex 76.46588556266728 120.96268844170284 0.0
vertex 86.46588556266727 166.96268844170285 0.0
vertex 78.46588556266727 120.96268844170284 0.0
endloop
endfacet
facet normal 0.0 0.0 -1.0
outer loop
vertex 78.46588556266727 120.96268844170284 0.0
vertex 86.46588556266727 166.96268844170285 0.0
vertex 86.46588556266727 120.96268844170284 0.0
endloop
endfacet
facet normal 0.9999999344127556 -0.0002997226791891912 0.0002033243719371414
outer loop
vertex 78.46588556266727 120.96268844170284 0.0
vertex 78.45784956266728 104.32151874202236 19.093758201188482
vertex 78.45784956266728 103.3980284754523 17.564659966250534
endloop
endfacet
facet normal 0.9999999344127556 -0.0002997226791891912 0.0002033243719371414
outer loop
vertex 78.45784956266728 104.32151874202236 19.093758201188482
vertex 78.46588556266727 120.96268844170284 0.0
vertex 78.45784956266728 105.37776292827739 20.534356654451035
endloop
endfacet
facet normal 0.9999999344127556 -0.0002997226791891912 0.0002033243719371414
outer loop
vertex 78.45784956266728 105.37776292827739 20.534356654451035
vertex 78.46588556266727 120.96268844170284 0.0
vertex 78.45784956266728 106.55833491042921 21.87496303944932
endloop
endfacet
facet normal 0.9999999344127556 -0.0002997226791891912 0.0002033243719371414
outer loop
vertex 78.45784956266728 106.55833491042921 21.87496303944932
vertex 78.46588556266727 120.96268844170284 0.0
vertex 78.45784956266728 107.85381674725552 23.104882750240673
endloop
endfacet
facet normal 0.9999999344127556 -0.0002997226791891912 0.0002033243719371414
outer loop
vertex 78.45784956266728 107.85381674725552 23.104882750240673
vertex 78.46588556266727 120.96268844170284 0.0
vertex 78.45784956266728 109.25387381115371 24.21430417709741
endloop
endfacet
facet normal 0.9999999344127556 -0.0002997226791891912 0.0002033243719371414
outer loop
vertex 78.45784956266728 109.25387381115371 24.21430417709741
vertex 78.46588556266727 120.96268844170284 0.0
vertex 78.45784956266728 110.74733723200403 25.194376978027012
endloop
endfacet
facet normal 0.9999999344127556 -0.0002997226791891912 0.0002033243719371414
outer loop
vertex 78.45784956266728 110.74733723200403 25.194376978027012
vertex 78.46588556266727 120.96268844170284 0.0
vertex 78.45784956266728 112.32229299615234 26.03728268183737
endloop
endfacet
facet normal 0.9999999344127556 -0.0002997226791891912 0.0002033243719371414
outer loop
vertex 78.45784956266728 112.32229299615234 26.03728268183737
vertex 78.46588556266727 120.96268844170284 0.0
vertex 78.45784956266728 113.96617698972956 26.736297059515433
endloop
endfacet
facet normal 0.9999999344127556 -0.0002997226791891912 0.0002033243719371414
outer loop
vertex 78.45784956266728 113.96617698972956 26.736297059515433
vertex 78.46588556266727 120.96268844170284 0.0
vertex 78.45784956266728 115.6658752281064 27.285843766355413
endloop
endfacet
facet normal 0.9999999344127556 -0.0002997226791891912 0.0002033243719371414
outer loop
vertex 78.45784956266728 115.6658752281064 27.285843766355413
vertex 78.46588556266727 120.96268844170284 0.0
vertex 78.45784956266728 117.40782847190857 27.68153882690971
endloop
endfacet
facet normal 0.9999999344127556 -0.0002997226791891912 0.0002033243719371414
outer loop
vertex 78.45784956266728 117.40782847190857 27.68153882690971
vertex 78.46588556266727 120.96268844170284 0.0
vertex 78.45784956266728 119.17814039502464 27.9202256078865
endloop
endfacet
facet normal 0.9999999344127556 -0.0002997226791891912 0.0002033243719371414
outer loop
vertex 78.45784956266728 119.17814039502464 27.9202256078865
vertex 78.46588556266727 120.96268844170284 0.0
vertex 78.46588556266727 120.96268844170284 28.0
endloop
endfacet
facet normal 1.0 -0.0 -0.0
outer loop
vertex 86.46588556266727 166.96268844170285 0.0
vertex 86.46588556266727 120.96268844170284 28.0
vertex 86.46588556266727 120.96268844170284 0.0
endloop
endfacet
facet normal 1.0 -0.0 -0.0
outer loop
vertex 86.46588556266727 120.96268844170284 28.0
vertex 86.46588556266727 166.96268844170285 0.0
vertex 86.46588556266727 166.96268844170285 28.0
endloop
endfacet
facet normal 1.0 -0.0 -0.0
outer loop
vertex 69.66588556266727 165.76268844170284 1.5
vertex 69.66588556266727 122.16268844170284 28.0
vertex 69.66588556266727 122.16268844170284 1.5
endloop
endfacet
facet normal 1.0 -0.0 -0.0
outer loop
vertex 69.66588556266727 122.16268844170284 28.0
vertex 69.66588556266727 165.76268844170284 1.5
vertex 69.66588556266727 165.76268844170284 28.0
endloop
endfacet
facet normal 0.0 0.0 -1.0
outer loop
vertex 85.26588556266726 165.76268844170284 1.5
vertex 69.66588556266727 122.16268844170284 1.5
vertex 69.66588556266727 165.76268844170284 1.5
endloop
endfacet
facet normal 0.0 0.0 -1.0
outer loop
vertex 69.66588556266727 122.16268844170284 1.5
vertex 85.26588556266726 165.76268844170284 1.5
vertex 85.26588556266726 122.16268844170284 1.5
endloop
endfacet
endsolid m2c florian medicijn bakje 2
