  0
SECTION
  2
HEADER
  9
$ACADVER
  1
AC1014
  9
$HANDSEED
  5
FFFF
  9
$MEASUREMENT
 70
     1
  0
ENDSEC
  0
SECTION
  2
TABLES
  0
TABLE
  2
VPORT
  5
8
330
0
100
AcDbSymbolTable
 70
     4
  0
VPORT
  5
2E
330
8
100
AcDbSymbolTableRecord
100
AcDbViewportTableRecord
  2
*ACTIVE
 70
     0
 10
0.0
 20
0.0
 11
1.0
 21
1.0
 12
210.0
 22
148.5
 13
0.0
 23
0.0
 14
10.0
 24
10.0
 15
10.0
 25
10.0
 16
0.0
 26
0.0
 36
1.0
 17
0.0
 27
0.0
 37
0.0
 40
341.0
 41
1.24
 42
50.0
 43
0.0
 44
0.0
 50
0.0
 51
0.0
 71
     0
 72
   100
 73
     1
 74
     3
 75
     0
 76
     0
 77
     0
 78
     0
  0
ENDTAB
  0
TABLE
  2
LTYPE
  5
5
330
0
100
AcDbSymbolTable
 70
     1
  0
LTYPE
  5
14
330
5
100
AcDbSymbolTableRecord
100
AcDbLinetypeTableRecord
  2
BYBLOCK
 70
     0
  3

 72
    65
 73
     0
 40
0.0
  0
LTYPE
  5
15
330
5
100
AcDbSymbolTableRecord
100
AcDbLinetypeTableRecord
  2
BYLAYER
 70
     0
  3

 72
    65
 73
     0
 40
0.0
  0
LTYPE
  5
16
330
5
100
AcDbSymbolTableRecord
100
AcDbLinetypeTableRecord
  2
CONTINUOUS
 70
     0
  3
Solid line
 72
    65
 73
     0
 40
0.0
  0
ENDTAB
  0
TABLE
  2
LAYER
  5
2
100
AcDbSymbolTable
 70
2
  0
LAYER
  5
50
100
AcDbSymbolTableRecord
100
AcDbLayerTableRecord
  2
0
 70
0
  6
CONTINUOUS
  0
LAYER
  5
51
100
AcDbSymbolTableRecord
100
AcDbLayerTableRecord
  2
Laag_1
 70
0
  6
CONTINUOUS
  0
ENDTAB
  0
TABLE
  2
STYLE
  5
3
330
0
100
AcDbSymbolTable
 70
     1
  0
STYLE
  5
11
330
3
100
AcDbSymbolTableRecord
100
AcDbTextStyleTableRecord
  2
STANDARD
 70
     0
 40
0.0
 41
1.0
 50
0.0
 71
     0
 42
2.5
  3
txt
  4

  0
ENDTAB
  0
TABLE
  2
VIEW
  5
6
330
0
100
AcDbSymbolTable
 70
     0
  0
ENDTAB
  0
TABLE
  2
UCS
  5
7
330
0
100
AcDbSymbolTable
 70
     0
  0
ENDTAB
  0
TABLE
  2
APPID
  5
9
330
0
100
AcDbSymbolTable
 70
     2
  0
APPID
  5
12
330
9
100
AcDbSymbolTableRecord
100
AcDbRegAppTableRecord
  2
ACAD
 70
     0
  0
ENDTAB
  0
TABLE
  2
DIMSTYLE
  5
A
330
0
100
AcDbSymbolTable
 70
     1
  0
DIMSTYLE
105
27
330
A
100
AcDbSymbolTableRecord
100
AcDbDimStyleTableRecord
  2
ISO-25
 70
     0
  3

  4

  5

  6

  7

 40
1.0
 41
2.5
 42
0.625
 43
3.75
 44
1.25
 45
0.0
 46
0.0
 47
0.0
 48
0.0
140
2.5
141
2.5
142
0.0
143
0.03937007874016
144
1.0
145
0.0
146
1.0
147
0.625
 71
     0
 72
     0
 73
     0
 74
     0
 75
     0
 76
     0
 77
     1
 78
     8
170
     0
171
     3
172
     1
173
     0
174
     0
175
     0
176
     0
177
     0
178
     0
270
     2
271
     2
272
     2
273
     2
274
     3
340
11
275
     0
280
     0
281
     0
282
     0
283
     0
284
     8
285
     0
286
     0
287
     3
288
     0
  0
ENDTAB
  0
TABLE
  2
BLOCK_RECORD
  5
1
330
0
100
AcDbSymbolTable
 70
     1
  0
BLOCK_RECORD
  5
1F
330
1
100
AcDbSymbolTableRecord
100
AcDbBlockTableRecord
  2
*MODEL_SPACE
  0
BLOCK_RECORD
  5
1B
330
1
100
AcDbSymbolTableRecord
100
AcDbBlockTableRecord
  2
*PAPER_SPACE
  0
ENDTAB
  0
ENDSEC
  0
SECTION
  2
BLOCKS
  0
BLOCK
  5
20
330
1F
100
AcDbEntity
  8
0
100
AcDbBlockBegin
  2
*MODEL_SPACE
 70
     0
 10
0.0
 20
0.0
 30
0.0
  3
*MODEL_SPACE
  1

  0
ENDBLK
  5
21
330
1F
100
AcDbEntity
  8
0
100
AcDbBlockEnd
  0
BLOCK
  5
1C
330
1B
100
AcDbEntity
 67
     1
  8
0
100
AcDbBlockBegin
  2
*PAPER_SPACE
  1

  0
ENDBLK
  5
1D
330
1B
100
AcDbEntity
 67
     1
  8
0
100
AcDbBlockEnd
  0
ENDSEC
  0
SECTION
  2
ENTITIES
  0
SPLINE
  5
100
100
AcDbEntity
  8
Laag_1
 62
7
100
AcDbSpline
 70
8
 71
3
 72
8
 73
4
 74
0
 40
0
 40
0
 40
0
 40
0
 40
1
 40
1
 40
1
 40
1
 10
129.834823
 20
115.093747
 30
0.0
 10
129.834823
 20
95.243177
 30
0.0
 10
118.596294
 20
76.900494
 30
0.0
 10
100.352680
 20
66.975209
 30
0.0
  0
SPLINE
  5
101
100
AcDbEntity
  8
Laag_1
 62
7
100
AcDbSpline
 70
8
 71
3
 72
8
 73
4
 74
0
 40
0
 40
0
 40
0
 40
0
 40
1
 40
1
 40
1
 40
1
 10
100.352680
 20
66.975209
 30
0.0
 10
82.109066
 20
57.049924
 30
0.0
 10
59.632007
 20
57.049924
 30
0.0
 10
41.388393
 20
66.975209
 30
0.0
  0
SPLINE
  5
102
100
AcDbEntity
  8
Laag_1
 62
7
100
AcDbSpline
 70
8
 71
3
 72
8
 73
4
 74
0
 40
0
 40
0
 40
0
 40
0
 40
1
 40
1
 40
1
 40
1
 10
41.388393
 20
66.975209
 30
0.0
 10
23.144780
 20
76.900494
 30
0.0
 10
11.906250
 20
95.243177
 30
0.0
 10
11.906250
 20
115.093747
 30
0.0
  0
SPLINE
  5
103
100
AcDbEntity
  8
Laag_1
 62
7
100
AcDbSpline
 70
8
 71
3
 72
8
 73
4
 74
0
 40
0
 40
0
 40
0
 40
0
 40
1
 40
1
 40
1
 40
1
 10
11.906250
 20
115.093747
 30
0.0
 10
11.906250
 20
134.944318
 30
0.0
 10
23.144780
 20
153.287001
 30
0.0
 10
41.388393
 20
163.212286
 30
0.0
  0
SPLINE
  5
104
100
AcDbEntity
  8
Laag_1
 62
7
100
AcDbSpline
 70
8
 71
3
 72
8
 73
4
 74
0
 40
0
 40
0
 40
0
 40
0
 40
1
 40
1
 40
1
 40
1
 10
41.388393
 20
163.212286
 30
0.0
 10
59.632007
 20
173.137571
 30
0.0
 10
82.109066
 20
173.137571
 30
0.0
 10
100.352680
 20
163.212286
 30
0.0
  0
SPLINE
  5
105
100
AcDbEntity
  8
Laag_1
 62
7
100
AcDbSpline
 70
8
 71
3
 72
8
 73
4
 74
0
 40
0
 40
0
 40
0
 40
0
 40
1
 40
1
 40
1
 40
1
 10
100.352680
 20
163.212286
 30
0.0
 10
118.596294
 20
153.287001
 30
0.0
 10
129.834823
 20
134.944318
 30
0.0
 10
129.834823
 20
115.093748
 30
0.0
  0
SPLINE
  5
106
100
AcDbEntity
  8
Laag_1
 62
7
100
AcDbSpline
 70
8
 71
3
 72
8
 73
4
 74
0
 40
0
 40
0
 40
0
 40
0
 40
1
 40
1
 40
1
 40
1
 10
70.870480
 20
170.656281
 30
0.0
 10
38.305427
 20
170.656253
 30
0.0
 10
11.906251
 20
145.780083
 30
0.0
 10
11.906250
 20
115.093782
 30
0.0
  0
SPLINE
  5
107
100
AcDbEntity
  8
Laag_1
 62
7
100
AcDbSpline
 70
8
 71
3
 72
8
 73
4
 74
0
 40
0
 40
0
 40
0
 40
0
 40
1
 40
1
 40
1
 40
1
 10
11.906250
 20
115.093782
 30
0.0
 10
11.906251
 20
84.407481
 30
0.0
 10
38.305427
 20
59.531312
 30
0.0
 10
70.870480
 20
59.531283
 30
0.0
  0
SPLINE
  5
108
100
AcDbEntity
  8
Laag_1
 62
7
100
AcDbSpline
 70
8
 71
3
 72
8
 73
4
 74
0
 40
0
 40
0
 40
0
 40
0
 40
1
 40
1
 40
1
 40
1
 10
70.870480
 20
59.531283
 30
0.0
 10
103.435533
 20
59.531312
 30
0.0
 10
129.834709
 20
84.407481
 30
0.0
 10
129.834710
 20
115.093782
 30
0.0
  0
SPLINE
  5
109
100
AcDbEntity
  8
Laag_1
 62
7
100
AcDbSpline
 70
8
 71
3
 72
8
 73
4
 74
0
 40
0
 40
0
 40
0
 40
0
 40
1
 40
1
 40
1
 40
1
 10
129.834710
 20
115.093782
 30
0.0
 10
129.834709
 20
145.780083
 30
0.0
 10
103.435533
 20
170.656253
 30
0.0
 10
70.870480
 20
170.656281
 30
0.0
  0
LWPOLYLINE
  5
10a
100
AcDbEntity
  8
Laag_1
 62
7
100
AcDbPolyline
 90
1
 70
1
 10
129.834823
 20
115.093748
 30
0.0
  0
SPLINE
  5
10b
100
AcDbEntity
  8
Laag_1
 62
7
100
AcDbSpline
 70
8
 71
3
 72
8
 73
4
 74
0
 40
0
 40
0
 40
0
 40
0
 40
1
 40
1
 40
1
 40
1
 10
47.343234
 20
117.330466
 30
0.0
 10
48.335414
 20
117.351302
 30
0.0
 10
49.534627
 20
116.954755
 30
0.0
 10
50.763568
 20
115.964272
 30
0.0
  0
LWPOLYLINE
  5
10c
100
AcDbEntity
  8
Laag_1
 62
7
100
AcDbPolyline
 90
1
 70
1
 10
70.870480
 20
170.656281
 30
0.0
  0
SPLINE
  5
10d
100
AcDbEntity
  8
Laag_1
 62
7
100
AcDbSpline
 70
8
 71
3
 72
8
 73
4
 74
0
 40
0
 40
0
 40
0
 40
0
 40
1
 40
1
 40
1
 40
1
 10
50.763965
 20
115.964272
 30
0.0
 10
51.812183
 20
115.119377
 30
0.0
 10
52.923421
 20
114.208253
 30
0.0
 10
54.072289
 20
113.278776
 30
0.0
  0
SPLINE
  5
10e
100
AcDbEntity
  8
Laag_1
 62
7
100
AcDbSpline
 70
8
 71
3
 72
8
 73
4
 74
0
 40
0
 40
0
 40
0
 40
0
 40
1
 40
1
 40
1
 40
1
 10
54.072289
 20
113.278776
 30
0.0
 10
55.926485
 20
114.377647
 30
0.0
 10
57.926209
 20
115.187026
 30
0.0
 10
60.092077
 20
115.708085
 30
0.0
  0
SPLINE
  5
10f
100
AcDbEntity
  8
Laag_1
 62
7
100
AcDbSpline
 70
8
 71
3
 72
8
 73
4
 74
0
 40
0
 40
0
 40
0
 40
0
 40
1
 40
1
 40
1
 40
1
 10
60.092077
 20
115.708085
 30
0.0
 10
61.875524
 20
116.137145
 30
0.0
 10
63.737307
 20
116.121563
 30
0.0
 10
65.559961
 20
116.328202
 30
0.0
  0
SPLINE
  5
110
100
AcDbEntity
  8
Laag_1
 62
7
100
AcDbSpline
 70
8
 71
3
 72
8
 73
4
 74
0
 40
0
 40
0
 40
0
 40
0
 40
1
 40
1
 40
1
 40
1
 10
65.559961
 20
116.328202
 30
0.0
 10
67.781562
 20
116.312367
 30
0.0
 10
72.080907
 20
116.326615
 30
0.0
 10
74.430736
 20
116.153796
 30
0.0
  0
SPLINE
  5
111
100
AcDbEntity
  8
Laag_1
 62
7
100
AcDbSpline
 70
8
 71
3
 72
8
 73
4
 74
0
 40
0
 40
0
 40
0
 40
0
 40
1
 40
1
 40
1
 40
1
 10
74.430736
 20
116.153796
 30
0.0
 10
75.603647
 20
116.067457
 30
0.0
 10
76.795270
 20
116.034749
 30
0.0
 10
77.937887
 20
115.759633
 30
0.0
  0
SPLINE
  5
112
100
AcDbEntity
  8
Laag_1
 62
7
100
AcDbSpline
 70
8
 71
3
 72
8
 73
4
 74
0
 40
0
 40
0
 40
0
 40
0
 40
1
 40
1
 40
1
 40
1
 10
77.937887
 20
115.759633
 30
0.0
 10
78.749066
 20
115.759435
 30
0.0
 10
79.560308
 20
115.757649
 30
0.0
 10
80.371459
 20
115.751100
 30
0.0
  0
SPLINE
  5
113
100
AcDbEntity
  8
Laag_1
 62
7
100
AcDbSpline
 70
8
 71
3
 72
8
 73
4
 74
0
 40
0
 40
0
 40
0
 40
0
 40
1
 40
1
 40
1
 40
1
 10
80.371459
 20
115.751100
 30
0.0
 10
82.136870
 20
115.736614
 30
0.0
 10
86.618642
 20
115.936251
 30
0.0
 10
89.163171
 20
115.147261
 30
0.0
  0
SPLINE
  5
114
100
AcDbEntity
  8
Laag_1
 62
7
100
AcDbSpline
 70
8
 71
3
 72
8
 73
4
 74
0
 40
0
 40
0
 40
0
 40
0
 40
1
 40
1
 40
1
 40
1
 10
89.163171
 20
115.147261
 30
0.0
 10
92.236735
 20
115.222131
 30
0.0
 10
95.502663
 20
115.195164
 30
0.0
 10
98.127739
 20
115.148849
 30
0.0
  0
SPLINE
  5
115
100
AcDbEntity
  8
Laag_1
 62
7
100
AcDbSpline
 70
8
 71
3
 72
8
 73
4
 74
0
 40
0
 40
0
 40
0
 40
0
 40
1
 40
1
 40
1
 40
1
 10
98.127739
 20
115.148849
 30
0.0
 10
98.695491
 20
115.138808
 30
0.0
 10
104.700489
 20
115.125385
 30
0.0
 10
105.759445
 20
114.467882
 30
0.0
  0
SPLINE
  5
116
100
AcDbEntity
  8
Laag_1
 62
7
100
AcDbSpline
 70
8
 71
3
 72
8
 73
4
 74
0
 40
0
 40
0
 40
0
 40
0
 40
1
 40
1
 40
1
 40
1
 10
105.759445
 20
114.467882
 30
0.0
 10
106.923047
 20
113.745445
 30
0.0
 10
107.552626
 20
112.396856
 30
0.0
 10
108.449202
 20
111.361484
 30
0.0
  0
SPLINE
  5
117
100
AcDbEntity
  8
Laag_1
 62
7
100
AcDbSpline
 70
8
 71
3
 72
8
 73
4
 74
0
 40
0
 40
0
 40
0
 40
0
 40
1
 40
1
 40
1
 40
1
 10
108.449202
 20
111.361484
 30
0.0
 10
108.167161
 20
110.146319
 30
0.0
 10
108.257184
 20
108.778612
 30
0.0
 10
107.603130
 20
107.716356
 30
0.0
  0
SPLINE
  5
118
100
AcDbEntity
  8
Laag_1
 62
7
100
AcDbSpline
 70
8
 71
3
 72
8
 73
4
 74
0
 40
0
 40
0
 40
0
 40
0
 40
1
 40
1
 40
1
 40
1
 10
107.603130
 20
107.716356
 30
0.0
 10
106.633471
 20
106.141517
 30
0.0
 10
104.481184
 20
104.811831
 30
0.0
 10
102.419726
 20
103.789465
 30
0.0
  0
SPLINE
  5
119
100
AcDbEntity
  8
Laag_1
 62
7
100
AcDbSpline
 70
8
 71
3
 72
8
 73
4
 74
0
 40
0
 40
0
 40
0
 40
0
 40
1
 40
1
 40
1
 40
1
 10
102.419726
 20
103.789465
 30
0.0
 10
103.956115
 20
103.781110
 30
0.0
 10
105.499996
 20
103.767603
 30
0.0
 10
107.106649
 20
103.737530
 30
0.0
  0
SPLINE
  5
11a
100
AcDbEntity
  8
Laag_1
 62
7
100
AcDbSpline
 70
8
 71
3
 72
8
 73
4
 74
0
 40
0
 40
0
 40
0
 40
0
 40
1
 40
1
 40
1
 40
1
 10
107.106649
 20
103.737530
 30
0.0
 10
108.134345
 20
103.718341
 30
0.0
 10
109.275027
 20
104.110497
 30
0.0
 10
110.188632
 20
103.639474
 30
0.0
  0
SPLINE
  5
11b
100
AcDbEntity
  8
Laag_1
 62
7
100
AcDbSpline
 70
8
 71
3
 72
8
 73
4
 74
0
 40
0
 40
0
 40
0
 40
0
 40
1
 40
1
 40
1
 40
1
 10
110.188632
 20
103.639474
 30
0.0
 10
111.736791
 20
102.841283
 30
0.0
 10
112.697459
 20
101.206455
 30
0.0
 10
114.094983
 20
100.167593
 30
0.0
  0
SPLINE
  5
11c
100
AcDbEntity
  8
Laag_1
 62
7
100
AcDbSpline
 70
8
 71
3
 72
8
 73
4
 74
0
 40
0
 40
0
 40
0
 40
0
 40
1
 40
1
 40
1
 40
1
 10
114.094983
 20
100.167593
 30
0.0
 10
114.189747
 20
100.188648
 30
0.0
 10
114.282086
 20
100.204957
 30
0.0
 10
114.362020
 20
100.214101
 30
0.0
  0
SPLINE
  5
11d
100
AcDbEntity
  8
Laag_1
 62
7
100
AcDbSpline
 70
8
 71
3
 72
8
 73
4
 74
0
 40
0
 40
0
 40
0
 40
0
 40
1
 40
1
 40
1
 40
1
 10
114.362020
 20
100.214101
 30
0.0
 10
114.343367
 20
100.401311
 30
0.0
 10
114.253777
 20
100.709615
 30
0.0
 10
114.132577
 20
101.036144
 30
0.0
  0
SPLINE
  5
11e
100
AcDbEntity
  8
Laag_1
 62
7
100
AcDbSpline
 70
8
 71
3
 72
8
 73
4
 74
0
 40
0
 40
0
 40
0
 40
0
 40
1
 40
1
 40
1
 40
1
 10
114.132577
 20
101.036144
 30
0.0
 10
113.876934
 20
101.139042
 30
0.0
 10
113.588963
 20
101.398965
 30
0.0
 10
113.257436
 20
101.905084
 30
0.0
  0
SPLINE
  5
11f
100
AcDbEntity
  8
Laag_1
 62
7
100
AcDbSpline
 70
8
 71
3
 72
8
 73
4
 74
0
 40
0
 40
0
 40
0
 40
0
 40
1
 40
1
 40
1
 40
1
 10
113.257436
 20
101.905084
 30
0.0
 10
113.240251
 20
102.938469
 30
0.0
 10
113.801893
 20
101.927051
 30
0.0
 10
114.132577
 20
101.036144
 30
0.0
  0
SPLINE
  5
120
100
AcDbEntity
  8
Laag_1
 62
7
100
AcDbSpline
 70
8
 71
3
 72
8
 73
4
 74
0
 40
0
 40
0
 40
0
 40
0
 40
1
 40
1
 40
1
 40
1
 10
114.132577
 20
101.036144
 30
0.0
 10
115.755139
 20
100.383053
 30
0.0
 10
116.062298
 20
106.103579
 30
0.0
 10
117.753674
 20
96.029086
 30
0.0
  0
SPLINE
  5
121
100
AcDbEntity
  8
Laag_1
 62
7
100
AcDbSpline
 70
8
 71
3
 72
8
 73
4
 74
0
 40
0
 40
0
 40
0
 40
0
 40
1
 40
1
 40
1
 40
1
 10
117.753674
 20
96.029086
 30
0.0
 10
117.880821
 20
95.271751
 30
0.0
 10
116.592932
 20
94.969761
 30
0.0
 10
115.876269
 20
94.693895
 30
0.0
  0
SPLINE
  5
122
100
AcDbEntity
  8
Laag_1
 62
7
100
AcDbSpline
 70
8
 71
3
 72
8
 73
4
 74
0
 40
0
 40
0
 40
0
 40
0
 40
1
 40
1
 40
1
 40
1
 10
115.876269
 20
94.693895
 30
0.0
 10
112.801299
 20
93.510232
 30
0.0
 10
106.655718
 20
93.084879
 30
0.0
 10
104.018853
 20
92.772308
 30
0.0
  0
SPLINE
  5
123
100
AcDbEntity
  8
Laag_1
 62
7
100
AcDbSpline
 70
8
 71
3
 72
8
 73
4
 74
0
 40
0
 40
0
 40
0
 40
0
 40
1
 40
1
 40
1
 40
1
 10
104.018853
 20
92.772308
 30
0.0
 10
95.441808
 20
92.422223
 30
0.0
 10
91.398220
 20
91.808315
 30
0.0
 10
82.743408
 20
93.364521
 30
0.0
  0
SPLINE
  5
124
100
AcDbEntity
  8
Laag_1
 62
7
100
AcDbSpline
 70
8
 71
3
 72
8
 73
4
 74
0
 40
0
 40
0
 40
0
 40
0
 40
1
 40
1
 40
1
 40
1
 10
82.743408
 20
93.364521
 30
0.0
 10
81.367268
 20
93.611961
 30
0.0
 10
79.938754
 20
93.935265
 30
0.0
 10
78.486692
 20
94.316400
 30
0.0
  0
SPLINE
  5
125
100
AcDbEntity
  8
Laag_1
 62
7
100
AcDbSpline
 70
8
 71
3
 72
8
 73
4
 74
0
 40
0
 40
0
 40
0
 40
0
 40
1
 40
1
 40
1
 40
1
 10
78.486692
 20
94.316400
 30
0.0
 10
77.654945
 20
93.927748
 30
0.0
 10
76.785574
 20
93.596407
 30
0.0
 10
75.866309
 20
93.338940
 30
0.0
  0
SPLINE
  5
126
100
AcDbEntity
  8
Laag_1
 62
7
100
AcDbSpline
 70
8
 71
3
 72
8
 73
4
 74
0
 40
0
 40
0
 40
0
 40
0
 40
1
 40
1
 40
1
 40
1
 10
75.866309
 20
93.338940
 30
0.0
 10
74.551976
 20
94.023383
 30
0.0
 10
72.680692
 20
94.118312
 30
0.0
 10
71.923139
 20
95.391915
 30
0.0
  0
SPLINE
  5
127
100
AcDbEntity
  8
Laag_1
 62
7
100
AcDbSpline
 70
8
 71
3
 72
8
 73
4
 74
0
 40
0
 40
0
 40
0
 40
0
 40
1
 40
1
 40
1
 40
1
 10
71.923139
 20
95.391915
 30
0.0
 10
71.878362
 20
95.467194
 30
0.0
 10
71.838494
 20
95.542668
 30
0.0
 10
71.801439
 20
95.617870
 30
0.0
  0
SPLINE
  5
128
100
AcDbEntity
  8
Laag_1
 62
7
100
AcDbSpline
 70
8
 71
3
 72
8
 73
4
 74
0
 40
0
 40
0
 40
0
 40
0
 40
1
 40
1
 40
1
 40
1
 10
71.801439
 20
95.617870
 30
0.0
 10
70.157948
 20
95.555049
 30
0.0
 10
68.514352
 20
95.490969
 30
0.0
 10
66.870347
 20
95.444237
 30
0.0
  0
SPLINE
  5
129
100
AcDbEntity
  8
Laag_1
 62
7
100
AcDbSpline
 70
8
 71
3
 72
8
 73
4
 74
0
 40
0
 40
0
 40
0
 40
0
 40
1
 40
1
 40
1
 40
1
 10
66.870347
 20
95.444237
 30
0.0
 10
63.918563
 20
95.360336
 30
0.0
 10
60.801876
 20
95.089969
 30
0.0
 10
57.892211
 20
95.900411
 30
0.0
  0
SPLINE
  5
12a
100
AcDbEntity
  8
Laag_1
 62
7
100
AcDbSpline
 70
8
 71
3
 72
8
 73
4
 74
0
 40
0
 40
0
 40
0
 40
0
 40
1
 40
1
 40
1
 40
1
 10
57.892211
 20
95.900411
 30
0.0
 10
55.982000
 20
96.432476
 30
0.0
 10
54.586461
 20
98.060973
 30
0.0
 10
53.301020
 20
99.438955
 30
0.0
  0
SPLINE
  5
12b
100
AcDbEntity
  8
Laag_1
 62
7
100
AcDbSpline
 70
8
 71
3
 72
8
 73
4
 74
0
 40
0
 40
0
 40
0
 40
0
 40
1
 40
1
 40
1
 40
1
 10
53.301020
 20
99.438955
 30
0.0
 10
52.712316
 20
100.333878
 30
0.0
 10
51.882992
 20
101.110636
 30
0.0
 10
51.534847
 20
102.123675
 30
0.0
  0
SPLINE
  5
12c
100
AcDbEntity
  8
Laag_1
 62
7
100
AcDbSpline
 70
8
 71
3
 72
8
 73
4
 74
0
 40
0
 40
0
 40
0
 40
0
 40
1
 40
1
 40
1
 40
1
 10
51.534847
 20
102.123675
 30
0.0
 10
51.298834
 20
102.810445
 30
0.0
 10
51.115870
 20
103.465587
 30
0.0
 10
50.991470
 20
104.098749
 30
0.0
  0
SPLINE
  5
12d
100
AcDbEntity
  8
Laag_1
 62
7
100
AcDbSpline
 70
8
 71
3
 72
8
 73
4
 74
0
 40
0
 40
0
 40
0
 40
0
 40
1
 40
1
 40
1
 40
1
 10
50.991470
 20
104.098749
 30
0.0
 10
50.183111
 20
104.374857
 30
0.0
 10
49.412691
 20
104.692816
 30
0.0
 10
48.971826
 20
105.373865
 30
0.0
  0
SPLINE
  5
12e
100
AcDbEntity
  8
Laag_1
 62
7
100
AcDbSpline
 70
8
 71
3
 72
8
 73
4
 74
0
 40
0
 40
0
 40
0
 40
0
 40
1
 40
1
 40
1
 40
1
 10
48.971826
 20
105.373865
 30
0.0
 10
48.334027
 20
106.359139
 30
0.0
 10
48.740899
 20
107.788655
 30
0.0
 10
49.144683
 20
108.890703
 30
0.0
  0
SPLINE
  5
12f
100
AcDbEntity
  8
Laag_1
 62
7
100
AcDbSpline
 70
8
 71
3
 72
8
 73
4
 74
0
 40
0
 40
0
 40
0
 40
0
 40
1
 40
1
 40
1
 40
1
 10
49.144683
 20
108.890703
 30
0.0
 10
49.245347
 20
109.165444
 30
0.0
 10
49.392510
 20
109.416970
 30
0.0
 10
49.564426
 20
109.654610
 30
0.0
  0
SPLINE
  5
130
100
AcDbEntity
  8
Laag_1
 62
7
100
AcDbSpline
 70
8
 71
3
 72
8
 73
4
 74
0
 40
0
 40
0
 40
0
 40
0
 40
1
 40
1
 40
1
 40
1
 10
49.564426
 20
109.654610
 30
0.0
 10
48.605886
 20
110.440359
 30
0.0
 10
47.653686
 20
111.224747
 30
0.0
 10
46.754907
 20
111.955245
 30
0.0
  0
SPLINE
  5
131
100
AcDbEntity
  8
Laag_1
 62
7
100
AcDbSpline
 70
8
 71
3
 72
8
 73
4
 74
0
 40
0
 40
0
 40
0
 40
0
 40
1
 40
1
 40
1
 40
1
 10
46.754907
 20
111.955245
 30
0.0
 10
43.624400
 20
114.499630
 30
0.0
 10
44.807504
 20
117.277251
 30
0.0
 10
47.343244
 20
117.330498
 30
0.0
  0
LWPOLYLINE
  5
132
100
AcDbEntity
  8
Laag_1
 62
7
100
AcDbPolyline
 90
2
 70
0
 10
50.763568
 20
115.964272
 30
0.0
 10
50.763965
 20
115.964272
 30
0.0
  0
SPLINE
  5
133
100
AcDbEntity
  8
Laag_1
 62
7
100
AcDbSpline
 70
8
 71
3
 72
8
 73
4
 74
0
 40
0
 40
0
 40
0
 40
0
 40
1
 40
1
 40
1
 40
1
 10
114.362010
 20
100.214069
 30
0.0
 10
114.364014
 20
100.193964
 30
0.0
 10
114.362407
 20
100.180434
 30
0.0
 10
114.362804
 20
100.163297
 30
0.0
  0
SPLINE
  5
134
100
AcDbEntity
  8
Laag_1
 62
7
100
AcDbSpline
 70
8
 71
3
 72
8
 73
4
 74
0
 40
0
 40
0
 40
0
 40
0
 40
1
 40
1
 40
1
 40
1
 10
114.362804
 20
100.163297
 30
0.0
 10
114.422371
 20
100.176632
 30
0.0
 10
114.462737
 20
100.186381
 30
0.0
 10
114.524421
 20
100.200117
 30
0.0
  0
SPLINE
  5
135
100
AcDbEntity
  8
Laag_1
 62
7
100
AcDbSpline
 70
8
 71
3
 72
8
 73
4
 74
0
 40
0
 40
0
 40
0
 40
0
 40
1
 40
1
 40
1
 40
1
 10
114.524421
 20
100.200117
 30
0.0
 10
114.648477
 20
100.227752
 30
0.0
 10
114.540098
 20
100.234441
 30
0.0
 10
114.362028
 20
100.214067
 30
0.0
  0
LWPOLYLINE
  5
136
100
AcDbEntity
  8
Laag_1
 62
7
100
AcDbPolyline
 90
1
 70
1
 10
47.343244
 20
117.330498
 30
0.0
  0
SPLINE
  5
137
100
AcDbEntity
  8
Laag_1
 62
7
100
AcDbSpline
 70
8
 71
3
 72
8
 73
4
 74
0
 40
0
 40
0
 40
0
 40
0
 40
1
 40
1
 40
1
 40
1
 10
114.362804
 20
100.163297
 30
0.0
 10
114.288946
 20
100.146767
 30
0.0
 10
114.233099
 20
100.133502
 30
0.0
 10
114.162428
 20
100.117565
 30
0.0
  0
SPLINE
  5
138
100
AcDbEntity
  8
Laag_1
 62
7
100
AcDbSpline
 70
8
 71
3
 72
8
 73
4
 74
0
 40
0
 40
0
 40
0
 40
0
 40
1
 40
1
 40
1
 40
1
 10
114.162428
 20
100.117565
 30
0.0
 10
114.189465
 20
100.098039
 30
0.0
 10
114.215667
 20
100.077318
 30
0.0
 10
114.243043
 20
100.058266
 30
0.0
  0
SPLINE
  5
139
100
AcDbEntity
  8
Laag_1
 62
7
100
AcDbSpline
 70
8
 71
3
 72
8
 73
4
 74
0
 40
0
 40
0
 40
0
 40
0
 40
1
 40
1
 40
1
 40
1
 10
114.243043
 20
100.058266
 30
0.0
 10
114.333088
 20
99.995598
 30
0.0
 10
114.364866
 20
100.049098
 30
0.0
 10
114.362804
 20
100.163297
 30
0.0
  0
LWPOLYLINE
  5
13a
100
AcDbEntity
  8
Laag_1
 62
7
100
AcDbPolyline
 90
1
 70
1
 10
114.362028
 20
100.214067
 30
0.0
  0
SPLINE
  5
13b
100
AcDbEntity
  8
Laag_1
 62
7
100
AcDbSpline
 70
8
 71
3
 72
8
 73
4
 74
0
 40
0
 40
0
 40
0
 40
0
 40
1
 40
1
 40
1
 40
1
 10
114.162428
 20
100.117565
 30
0.0
 10
114.139748
 20
100.133936
 30
0.0
 10
114.117440
 20
100.150873
 30
0.0
 10
114.094991
 20
100.167562
 30
0.0
  0
SPLINE
  5
13c
100
AcDbEntity
  8
Laag_1
 62
7
100
AcDbSpline
 70
8
 71
3
 72
8
 73
4
 74
0
 40
0
 40
0
 40
0
 40
0
 40
1
 40
1
 40
1
 40
1
 10
114.094991
 20
100.167562
 30
0.0
 10
113.938203
 20
100.132726
 30
0.0
 10
113.782531
 20
100.082295
 30
0.0
 10
113.688813
 20
100.009820
 30
0.0
  0
SPLINE
  5
13d
100
AcDbEntity
  8
Laag_1
 62
7
100
AcDbSpline
 70
8
 71
3
 72
8
 73
4
 74
0
 40
0
 40
0
 40
0
 40
0
 40
1
 40
1
 40
1
 40
1
 10
113.688813
 20
100.009820
 30
0.0
 10
113.838729
 20
100.044239
 30
0.0
 10
113.995415
 20
100.079900
 30
0.0
 10
114.162428
 20
100.117565
 30
0.0
  0
LWPOLYLINE
  5
13e
100
AcDbEntity
  8
Laag_1
 62
7
100
AcDbPolyline
 90
1
 70
1
 10
114.362804
 20
100.163297
 30
0.0
  0
SPLINE
  5
13f
100
AcDbEntity
  8
Laag_1
 62
7
100
AcDbSpline
 70
8
 71
3
 72
8
 73
4
 74
0
 40
0
 40
0
 40
0
 40
0
 40
1
 40
1
 40
1
 40
1
 10
103.697951
 20
111.890489
 30
0.0
 10
103.594504
 20
111.879396
 30
0.0
 10
103.025619
 20
111.405581
 30
0.0
 10
102.780565
 20
111.253707
 30
0.0
  0
SPLINE
  5
140
100
AcDbEntity
  8
Laag_1
 62
7
100
AcDbSpline
 70
8
 71
3
 72
8
 73
4
 74
0
 40
0
 40
0
 40
0
 40
0
 40
1
 40
1
 40
1
 40
1
 10
102.780565
 20
111.253707
 30
0.0
 10
102.801919
 20
111.093820
 30
0.0
 10
102.845041
 20
110.931677
 30
0.0
 10
102.891799
 20
110.768853
 30
0.0
  0
SPLINE
  5
141
100
AcDbEntity
  8
Laag_1
 62
7
100
AcDbSpline
 70
8
 71
3
 72
8
 73
4
 74
0
 40
0
 40
0
 40
0
 40
0
 40
1
 40
1
 40
1
 40
1
 10
102.891799
 20
110.768853
 30
0.0
 10
103.191112
 20
111.089837
 30
0.0
 10
103.454963
 20
111.447320
 30
0.0
 10
103.685549
 20
111.814525
 30
0.0
  0
SPLINE
  5
142
100
AcDbEntity
  8
Laag_1
 62
7
100
AcDbSpline
 70
8
 71
3
 72
8
 73
4
 74
0
 40
0
 40
0
 40
0
 40
0
 40
1
 40
1
 40
1
 40
1
 10
103.685549
 20
111.814525
 30
0.0
 10
103.720928
 20
111.870869
 30
0.0
 10
103.721823
 20
111.893049
 30
0.0
 10
103.697951
 20
111.890489
 30
0.0
  0
LWPOLYLINE
  5
143
100
AcDbEntity
  8
Laag_1
 62
7
100
AcDbPolyline
 90
1
 70
1
 10
114.162428
 20
100.117565
 30
0.0
  0
SPLINE
  5
144
100
AcDbEntity
  8
Laag_1
 62
7
100
AcDbSpline
 70
8
 71
3
 72
8
 73
4
 74
0
 40
0
 40
0
 40
0
 40
0
 40
1
 40
1
 40
1
 40
1
 10
92.814506
 20
109.523967
 30
0.0
 10
92.792648
 20
109.523921
 30
0.0
 10
92.770491
 20
109.523570
 30
0.0
 10
92.748619
 20
109.523570
 30
0.0
  0
SPLINE
  5
145
100
AcDbEntity
  8
Laag_1
 62
7
100
AcDbSpline
 70
8
 71
3
 72
8
 73
4
 74
0
 40
0
 40
0
 40
0
 40
0
 40
1
 40
1
 40
1
 40
1
 10
92.748619
 20
109.523570
 30
0.0
 10
92.721647
 20
108.683503
 30
0.0
 10
92.711134
 20
107.839497
 30
0.0
 10
92.432359
 20
107.057054
 30
0.0
  0
SPLINE
  5
146
100
AcDbEntity
  8
Laag_1
 62
7
100
AcDbSpline
 70
8
 71
3
 72
8
 73
4
 74
0
 40
0
 40
0
 40
0
 40
0
 40
1
 40
1
 40
1
 40
1
 10
92.432359
 20
107.057054
 30
0.0
 10
92.222900
 20
106.469204
 30
0.0
 10
91.964241
 20
105.939404
 30
0.0
 10
91.670391
 20
105.447848
 30
0.0
  0
SPLINE
  5
147
100
AcDbEntity
  8
Laag_1
 62
7
100
AcDbSpline
 70
8
 71
3
 72
8
 73
4
 74
0
 40
0
 40
0
 40
0
 40
0
 40
1
 40
1
 40
1
 40
1
 10
91.670391
 20
105.447848
 30
0.0
 10
93.419260
 20
106.088782
 30
0.0
 10
95.141366
 20
106.775649
 30
0.0
 10
96.816587
 20
107.489197
 30
0.0
  0
SPLINE
  5
148
100
AcDbEntity
  8
Laag_1
 62
7
100
AcDbSpline
 70
8
 71
3
 72
8
 73
4
 74
0
 40
0
 40
0
 40
0
 40
0
 40
1
 40
1
 40
1
 40
1
 10
96.816587
 20
107.489197
 30
0.0
 10
98.192744
 20
108.075357
 30
0.0
 10
99.579268
 20
108.662476
 30
0.0
 10
100.893859
 20
109.375516
 30
0.0
  0
SPLINE
  5
149
100
AcDbEntity
  8
Laag_1
 62
7
100
AcDbSpline
 70
8
 71
3
 72
8
 73
4
 74
0
 40
0
 40
0
 40
0
 40
0
 40
1
 40
1
 40
1
 40
1
 10
100.893859
 20
109.375516
 30
0.0
 10
99.911986
 20
109.406202
 30
0.0
 10
98.930564
 20
109.466275
 30
0.0
 10
97.948302
 20
109.482099
 30
0.0
  0
SPLINE
  5
14a
100
AcDbEntity
  8
Laag_1
 62
7
100
AcDbSpline
 70
8
 71
3
 72
8
 73
4
 74
0
 40
0
 40
0
 40
0
 40
0
 40
1
 40
1
 40
1
 40
1
 10
97.948302
 20
109.482099
 30
0.0
 10
96.389308
 20
109.507215
 30
0.0
 10
94.624034
 20
109.527652
 30
0.0
 10
92.814506
 20
109.523957
 30
0.0
  0
LWPOLYLINE
  5
14b
100
AcDbEntity
  8
Laag_1
 62
7
100
AcDbPolyline
 90
1
 70
1
 10
103.697951
 20
111.890489
 30
0.0
  0
SPLINE
  5
14c
100
AcDbEntity
  8
Laag_1
 62
7
100
AcDbSpline
 70
8
 71
3
 72
8
 73
4
 74
0
 40
0
 40
0
 40
0
 40
0
 40
1
 40
1
 40
1
 40
1
 10
87.378017
 20
109.418160
 30
0.0
 10
86.234545
 20
109.370089
 30
0.0
 10
85.141595
 20
109.303148
 30
0.0
 10
84.147980
 20
109.210807
 30
0.0
  0
SPLINE
  5
14d
100
AcDbEntity
  8
Laag_1
 62
7
100
AcDbSpline
 70
8
 71
3
 72
8
 73
4
 74
0
 40
0
 40
0
 40
0
 40
0
 40
1
 40
1
 40
1
 40
1
 10
84.147980
 20
109.210807
 30
0.0
 10
84.024409
 20
109.199317
 30
0.0
 10
83.901287
 20
109.184657
 30
0.0
 10
83.777849
 20
109.172050
 30
0.0
  0
SPLINE
  5
14e
100
AcDbEntity
  8
Laag_1
 62
7
100
AcDbSpline
 70
8
 71
3
 72
8
 73
4
 74
0
 40
0
 40
0
 40
0
 40
0
 40
1
 40
1
 40
1
 40
1
 10
83.777849
 20
109.172050
 30
0.0
 10
83.885600
 20
108.574271
 30
0.0
 10
83.957078
 20
107.977119
 30
0.0
 10
83.864665
 20
107.383787
 30
0.0
  0
SPLINE
  5
14f
100
AcDbEntity
  8
Laag_1
 62
7
100
AcDbSpline
 70
8
 71
3
 72
8
 73
4
 74
0
 40
0
 40
0
 40
0
 40
0
 40
1
 40
1
 40
1
 40
1
 10
83.864665
 20
107.383787
 30
0.0
 10
83.707191
 20
106.372728
 30
0.0
 10
83.406144
 20
105.449990
 30
0.0
 10
82.994951
 20
104.602562
 30
0.0
  0
SPLINE
  5
150
100
AcDbEntity
  8
Laag_1
 62
7
100
AcDbSpline
 70
8
 71
3
 72
8
 73
4
 74
0
 40
0
 40
0
 40
0
 40
0
 40
1
 40
1
 40
1
 40
1
 10
82.994951
 20
104.602562
 30
0.0
 10
83.224726
 20
104.811705
 30
0.0
 10
83.231027
 20
104.817339
 30
0.0
 10
83.507323
 20
105.068424
 30
0.0
  0
SPLINE
  5
151
100
AcDbEntity
  8
Laag_1
 62
7
100
AcDbSpline
 70
8
 71
3
 72
8
 73
4
 74
0
 40
0
 40
0
 40
0
 40
0
 40
1
 40
1
 40
1
 40
1
 10
83.507323
 20
105.068424
 30
0.0
 10
84.925334
 20
106.357069
 30
0.0
 10
86.717337
 20
107.516460
 30
0.0
 10
87.378017
 20
109.418160
 30
0.0
  0
LWPOLYLINE
  5
152
100
AcDbEntity
  8
Laag_1
 62
7
100
AcDbPolyline
 90
1
 70
1
 10
92.814506
 20
109.523957
 30
0.0
  0
SPLINE
  5
153
100
AcDbEntity
  8
Laag_1
 62
7
100
AcDbSpline
 70
8
 71
3
 72
8
 73
4
 74
0
 40
0
 40
0
 40
0
 40
0
 40
1
 40
1
 40
1
 40
1
 10
78.109978
 20
107.086520
 30
0.0
 10
77.636014
 20
106.632578
 30
0.0
 10
77.132739
 20
106.207049
 30
0.0
 10
76.623246
 20
105.797063
 30
0.0
  0
SPLINE
  5
154
100
AcDbEntity
  8
Laag_1
 62
7
100
AcDbSpline
 70
8
 71
3
 72
8
 73
4
 74
0
 40
0
 40
0
 40
0
 40
0
 40
1
 40
1
 40
1
 40
1
 10
76.623246
 20
105.797063
 30
0.0
 10
75.152007
 20
104.613165
 30
0.0
 10
73.585000
 20
103.640105
 30
0.0
 10
71.930122
 20
102.849180
 30
0.0
  0
SPLINE
  5
155
100
AcDbEntity
  8
Laag_1
 62
7
100
AcDbSpline
 70
8
 71
3
 72
8
 73
4
 74
0
 40
0
 40
0
 40
0
 40
0
 40
1
 40
1
 40
1
 40
1
 10
71.930122
 20
102.849180
 30
0.0
 10
72.144179
 20
102.938150
 30
0.0
 10
72.339032
 20
103.017229
 30
0.0
 10
72.581632
 20
103.121256
 30
0.0
  0
SPLINE
  5
156
100
AcDbEntity
  8
Laag_1
 62
7
100
AcDbSpline
 70
8
 71
3
 72
8
 73
4
 74
0
 40
0
 40
0
 40
0
 40
0
 40
1
 40
1
 40
1
 40
1
 10
72.581632
 20
103.121256
 30
0.0
 10
73.867795
 20
103.672762
 30
0.0
 10
75.171228
 20
104.246673
 30
0.0
 10
76.293421
 20
105.082765
 30
0.0
  0
SPLINE
  5
157
100
AcDbEntity
  8
Laag_1
 62
7
100
AcDbSpline
 70
8
 71
3
 72
8
 73
4
 74
0
 40
0
 40
0
 40
0
 40
0
 40
1
 40
1
 40
1
 40
1
 10
76.293421
 20
105.082765
 30
0.0
 10
77.067050
 20
105.659159
 30
0.0
 10
77.724368
 20
106.312649
 30
0.0
 10
78.109978
 20
107.086520
 30
0.0
  0
LWPOLYLINE
  5
158
100
AcDbEntity
  8
Laag_1
 62
7
100
AcDbPolyline
 90
1
 70
1
 10
87.378017
 20
109.418160
 30
0.0
  0
SPLINE
  5
159
100
AcDbEntity
  8
Laag_1
 62
7
100
AcDbSpline
 70
8
 71
3
 72
8
 73
4
 74
0
 40
0
 40
0
 40
0
 40
0
 40
1
 40
1
 40
1
 40
1
 10
56.268288
 20
104.404125
 30
0.0
 10
56.367804
 20
104.267141
 30
0.0
 10
56.477709
 20
104.133254
 30
0.0
 10
56.595400
 20
104.004148
 30
0.0
  0
SPLINE
  5
15a
100
AcDbEntity
  8
Laag_1
 62
7
100
AcDbSpline
 70
8
 71
3
 72
8
 73
4
 74
0
 40
0
 40
0
 40
0
 40
0
 40
1
 40
1
 40
1
 40
1
 10
56.595400
 20
104.004148
 30
0.0
 10
56.609886
 20
104.048031
 30
0.0
 10
56.623572
 20
104.091469
 30
0.0
 10
56.638421
 20
104.135536
 30
0.0
  0
SPLINE
  5
15b
100
AcDbEntity
  8
Laag_1
 62
7
100
AcDbSpline
 70
8
 71
3
 72
8
 73
4
 74
0
 40
0
 40
0
 40
0
 40
0
 40
1
 40
1
 40
1
 40
1
 10
56.638421
 20
104.135536
 30
0.0
 10
56.514932
 20
104.223735
 30
0.0
 10
56.391706
 20
104.314814
 30
0.0
 10
56.268288
 20
104.404125
 30
0.0
  0
LWPOLYLINE
  5
15c
100
AcDbEntity
  8
Laag_1
 62
7
100
AcDbPolyline
 90
1
 70
1
 10
78.109978
 20
107.086520
 30
0.0
  0
SPLINE
  5
15d
100
AcDbEntity
  8
Laag_1
 62
7
100
AcDbSpline
 70
8
 71
3
 72
8
 73
4
 74
0
 40
0
 40
0
 40
0
 40
0
 40
1
 40
1
 40
1
 40
1
 10
89.394948
 20
98.164970
 30
0.0
 10
92.405776
 20
97.918298
 30
0.0
 10
95.000208
 20
97.982251
 30
0.0
 10
97.940549
 20
98.130089
 30
0.0
  0
SPLINE
  5
15e
100
AcDbEntity
  8
Laag_1
 62
7
100
AcDbSpline
 70
8
 71
3
 72
8
 73
4
 74
0
 40
0
 40
0
 40
0
 40
0
 40
1
 40
1
 40
1
 40
1
 10
97.940549
 20
98.130089
 30
0.0
 10
96.922628
 20
98.130208
 30
0.0
 10
95.931612
 20
98.131279
 30
0.0
 10
94.872908
 20
98.132410
 30
0.0
  0
SPLINE
  5
15f
100
AcDbEntity
  8
Laag_1
 62
7
100
AcDbSpline
 70
8
 71
3
 72
8
 73
4
 74
0
 40
0
 40
0
 40
0
 40
0
 40
1
 40
1
 40
1
 40
1
 10
94.872908
 20
98.132410
 30
0.0
 10
92.706175
 20
98.126894
 30
0.0
 10
90.985648
 20
98.168459
 30
0.0
 10
89.394948
 20
98.164966
 30
0.0
  0
LWPOLYLINE
  5
160
100
AcDbEntity
  8
Laag_1
 62
7
100
AcDbPolyline
 90
1
 70
1
 10
56.268288
 20
104.404125
 30
0.0
  0
LWPOLYLINE
  5
161
100
AcDbEntity
  8
Laag_1
 62
7
100
AcDbPolyline
 90
1
 70
1
 10
89.394948
 20
98.164966
 30
0.0
  0
SPLINE
  5
162
100
AcDbEntity
  8
Laag_1
 62
7
100
AcDbSpline
 70
8
 71
3
 72
8
 73
4
 74
0
 40
0
 40
0
 40
0
 40
0
 40
1
 40
1
 40
1
 40
1
 10
69.768997
 20
102.181780
 30
0.0
 10
70.266383
 20
101.914379
 30
0.0
 10
71.130159
 20
101.784778
 30
0.0
 10
71.603768
 20
101.653130
 30
0.0
  0
SPLINE
  5
163
100
AcDbEntity
  8
Laag_1
 62
7
100
AcDbSpline
 70
8
 71
3
 72
8
 73
4
 74
0
 40
0
 40
0
 40
0
 40
0
 40
1
 40
1
 40
1
 40
1
 10
71.603768
 20
101.653130
 30
0.0
 10
72.089761
 20
101.512174
 30
0.0
 10
72.573675
 20
101.441514
 30
0.0
 10
73.055618
 20
101.441514
 30
0.0
  0
SPLINE
  5
164
100
AcDbEntity
  8
Laag_1
 62
7
100
AcDbSpline
 70
8
 71
3
 72
8
 73
4
 74
0
 40
0
 40
0
 40
0
 40
0
 40
1
 40
1
 40
1
 40
1
 10
73.055618
 20
101.441514
 30
0.0
 10
74.230094
 20
101.441514
 30
0.0
 10
75.175819
 20
101.858533
 30
0.0
 10
75.892653
 20
102.692601
 30
0.0
  0
SPLINE
  5
165
100
AcDbEntity
  8
Laag_1
 62
7
100
AcDbSpline
 70
8
 71
3
 72
8
 73
4
 74
0
 40
0
 40
0
 40
0
 40
0
 40
1
 40
1
 40
1
 40
1
 10
75.892653
 20
102.692601
 30
0.0
 10
76.613547
 20
103.526668
 30
0.0
 10
76.973983
 20
104.607583
 30
0.0
 10
76.973983
 20
105.935038
 30
0.0
  0
SPLINE
  5
166
100
AcDbEntity
  8
Laag_1
 62
7
100
AcDbSpline
 70
8
 71
3
 72
8
 73
4
 74
0
 40
0
 40
0
 40
0
 40
0
 40
1
 40
1
 40
1
 40
1
 10
76.973983
 20
105.935038
 30
0.0
 10
76.973983
 20
106.798476
 30
0.0
 10
76.811958
 20
107.468061
 30
0.0
 10
76.487966
 20
107.943831
 30
0.0
  0
SPLINE
  5
167
100
AcDbEntity
  8
Laag_1
 62
7
100
AcDbSpline
 70
8
 71
3
 72
8
 73
4
 74
0
 40
0
 40
0
 40
0
 40
0
 40
1
 40
1
 40
1
 40
1
 10
76.487966
 20
107.943831
 30
0.0
 10
76.163973
 20
108.425473
 30
0.0
 10
75.586918
 20
108.821982
 30
0.0
 10
74.756676
 20
109.133293
 30
0.0
  0
LWPOLYLINE
  5
168
100
AcDbEntity
  8
Laag_1
 62
7
100
AcDbPolyline
 90
8
 70
0
 10
81.695787
 20
129.220827
 30
0.0
 10
81.694237
 20
129.213850
 30
0.0
 10
61.402453
 20
129.213850
 30
0.0
 10
60.788537
 20
126.051253
 30
0.0
 10
70.611193
 20
126.051253
 30
0.0
 10
65.848694
 20
101.438802
 30
0.0
 10
69.625207
 20
101.438802
 30
0.0
 10
69.768997
 20
102.181780
 30
0.0
  0
SPLINE
  5
169
100
AcDbEntity
  8
Laag_1
 62
7
100
AcDbSpline
 70
8
 71
3
 72
8
 73
4
 74
0
 40
0
 40
0
 40
0
 40
0
 40
1
 40
1
 40
1
 40
1
 10
74.021449
 20
109.397618
 30
0.0
 10
73.357265
 20
109.656061
 30
0.0
 10
72.944378
 20
109.896855
 30
0.0
 10
72.782377
 20
110.120055
 30
0.0
  0
SPLINE
  5
16a
100
AcDbEntity
  8
Laag_1
 62
7
100
AcDbSpline
 70
8
 71
3
 72
8
 73
4
 74
0
 40
0
 40
0
 40
0
 40
0
 40
1
 40
1
 40
1
 40
1
 10
72.782377
 20
110.120055
 30
0.0
 10
72.624435
 20
110.349128
 30
0.0
 10
72.545570
 20
110.675000
 30
0.0
 10
72.545570
 20
111.097902
 30
0.0
  0
SPLINE
  5
16b
100
AcDbEntity
  8
Laag_1
 62
7
100
AcDbSpline
 70
8
 71
3
 72
8
 73
4
 74
0
 40
0
 40
0
 40
0
 40
0
 40
1
 40
1
 40
1
 40
1
 10
72.545570
 20
111.097902
 30
0.0
 10
72.545570
 20
111.867357
 30
0.0
 10
72.762188
 20
112.484152
 30
0.0
 10
73.195532
 20
112.948177
 30
0.0
  0
SPLINE
  5
16c
100
AcDbEntity
  8
Laag_1
 62
7
100
AcDbSpline
 70
8
 71
3
 72
8
 73
4
 74
0
 40
0
 40
0
 40
0
 40
0
 40
1
 40
1
 40
1
 40
1
 10
73.195532
 20
112.948177
 30
0.0
 10
73.628874
 20
113.412201
 30
0.0
 10
74.212003
 20
113.644258
 30
0.0
 10
74.945037
 20
113.644258
 30
0.0
  0
SPLINE
  5
16d
100
AcDbEntity
  8
Laag_1
 62
7
100
AcDbSpline
 70
8
 71
3
 72
8
 73
4
 74
0
 40
0
 40
0
 40
0
 40
0
 40
1
 40
1
 40
1
 40
1
 10
74.945037
 20
113.644258
 30
0.0
 10
75.321679
 20
113.644258
 30
0.0
 10
75.710303
 20
113.561835
 30
0.0
 10
76.111244
 20
113.397374
 30
0.0
  0
SPLINE
  5
16e
100
AcDbEntity
  8
Laag_1
 62
7
100
AcDbSpline
 70
8
 71
3
 72
8
 73
4
 74
0
 40
0
 40
0
 40
0
 40
0
 40
1
 40
1
 40
1
 40
1
 10
76.111244
 20
113.397374
 30
0.0
 10
76.516237
 20
113.238786
 30
0.0
 10
77.153277
 20
112.732832
 30
0.0
 10
77.562318
 20
112.415652
 30
0.0
  0
SPLINE
  5
16f
100
AcDbEntity
  8
Laag_1
 62
7
100
AcDbSpline
 70
8
 71
3
 72
8
 73
4
 74
0
 40
0
 40
0
 40
0
 40
0
 40
1
 40
1
 40
1
 40
1
 10
77.562318
 20
112.415652
 30
0.0
 10
77.786310
 20
112.126848
 30
0.0
 10
78.104678
 20
112.117442
 30
0.0
 10
78.391338
 20
112.267985
 30
0.0
  0
LWPOLYLINE
  5
170
100
AcDbEntity
  8
Laag_1
 62
7
100
AcDbPolyline
 90
2
 70
0
 10
74.756676
 20
109.133293
 30
0.0
 10
74.021449
 20
109.397618
 30
0.0
  0
SPLINE
  5
171
100
AcDbEntity
  8
Laag_1
 62
7
100
AcDbSpline
 70
8
 71
3
 72
8
 73
4
 74
0
 40
0
 40
0
 40
0
 40
0
 40
1
 40
1
 40
1
 40
1
 10
86.960582
 20
112.607886
 30
0.0
 10
90.507658
 20
112.607886
 30
0.0
 10
93.260972
 20
113.457449
 30
0.0
 10
95.220543
 20
115.156570
 30
0.0
  0
SPLINE
  5
172
100
AcDbEntity
  8
Laag_1
 62
7
100
AcDbSpline
 70
8
 71
3
 72
8
 73
4
 74
0
 40
0
 40
0
 40
0
 40
0
 40
1
 40
1
 40
1
 40
1
 10
95.220543
 20
115.156570
 30
0.0
 10
97.180113
 20
116.855693
 30
0.0
 10
98.159898
 20
119.230740
 30
0.0
 10
98.159898
 20
122.281714
 30
0.0
  0
SPLINE
  5
173
100
AcDbEntity
  8
Laag_1
 62
7
100
AcDbSpline
 70
8
 71
3
 72
8
 73
4
 74
0
 40
0
 40
0
 40
0
 40
0
 40
1
 40
1
 40
1
 40
1
 10
98.159898
 20
122.281714
 30
0.0
 10
98.159898
 20
124.551345
 30
0.0
 10
97.496377
 20
126.275273
 30
0.0
 10
96.169322
 20
127.453491
 30
0.0
  0
SPLINE
  5
174
100
AcDbEntity
  8
Laag_1
 62
7
100
AcDbSpline
 70
8
 71
3
 72
8
 73
4
 74
0
 40
0
 40
0
 40
0
 40
0
 40
1
 40
1
 40
1
 40
1
 10
96.169322
 20
127.453491
 30
0.0
 10
94.842273
 20
128.631718
 30
0.0
 10
92.913705
 20
129.220825
 30
0.0
 10
90.383629
 20
129.220827
 30
0.0
  0
LWPOLYLINE
  5
175
100
AcDbEntity
  8
Laag_1
 62
7
100
AcDbPolyline
 90
5
 70
0
 10
78.391338
 20
112.267985
 30
0.0
 10
76.282164
 20
101.445777
 30
0.0
 10
80.058678
 20
101.445777
 30
0.0
 10
82.235289
 20
112.607886
 30
0.0
 10
86.960582
 20
112.607886
 30
0.0
  0
LWPOLYLINE
  5
176
100
AcDbEntity
  8
Laag_1
 62
7
100
AcDbPolyline
 90
3
 70
0
 10
90.383629
 20
129.220827
 30
0.0
 10
81.695787
 20
129.220827
 30
0.0
 10
81.695787
 20
129.220827
 30
0.0
  0
SPLINE
  5
177
100
AcDbEntity
  8
Laag_1
 62
7
100
AcDbSpline
 70
8
 71
3
 72
8
 73
4
 74
0
 40
0
 40
0
 40
0
 40
0
 40
1
 40
1
 40
1
 40
1
 10
89.769713
 20
126.132644
 30
0.0
 10
91.171178
 20
126.132642
 30
0.0
 10
92.256383
 20
125.772974
 30
0.0
 10
93.025328
 20
125.053640
 30
0.0
  0
SPLINE
  5
178
100
AcDbEntity
  8
Laag_1
 62
7
100
AcDbSpline
 70
8
 71
3
 72
8
 73
4
 74
0
 40
0
 40
0
 40
0
 40
0
 40
1
 40
1
 40
1
 40
1
 10
93.025328
 20
125.053640
 30
0.0
 10
93.806678
 20
124.334304
 30
0.0
 10
94.197349
 20
123.323515
 30
0.0
 10
94.197349
 20
122.021265
 30
0.0
  0
SPLINE
  5
179
100
AcDbEntity
  8
Laag_1
 62
7
100
AcDbSpline
 70
8
 71
3
 72
8
 73
4
 74
0
 40
0
 40
0
 40
0
 40
0
 40
1
 40
1
 40
1
 40
1
 10
94.197349
 20
122.021265
 30
0.0
 10
94.197349
 20
119.987281
 30
0.0
 10
93.626842
 20
118.424585
 30
0.0
 10
92.485826
 20
117.333179
 30
0.0
  0
SPLINE
  5
17a
100
AcDbEntity
  8
Laag_1
 62
7
100
AcDbSpline
 70
8
 71
3
 72
8
 73
4
 74
0
 40
0
 40
0
 40
0
 40
0
 40
1
 40
1
 40
1
 40
1
 10
92.485826
 20
117.333179
 30
0.0
 10
91.344812
 20
116.241775
 30
0.0
 10
89.707703
 20
115.696070
 30
0.0
 10
87.574498
 20
115.696070
 30
0.0
  0
LWPOLYLINE
  5
17b
100
AcDbEntity
  8
Laag_1
 62
7
100
AcDbPolyline
 90
2
 70
0
 10
84.858385
 20
126.132644
 30
0.0
 10
89.769713
 20
126.132644
 30
0.0
  0
LWPOLYLINE
  5
17c
100
AcDbEntity
  8
Laag_1
 62
7
100
AcDbPolyline
 90
4
 70
0
 10
87.574498
 20
115.696070
 30
0.0
 10
82.849205
 20
115.696070
 30
0.0
 10
84.858385
 20
126.132644
 30
0.0
 10
84.858385
 20
126.132644
 30
0.0
  0
SPLINE
  5
17d
100
AcDbEntity
  8
Laag_1
 62
7
100
AcDbSpline
 70
8
 71
3
 72
8
 73
4
 74
0
 40
0
 40
0
 40
0
 40
0
 40
1
 40
1
 40
1
 40
1
 10
78.756045
 20
114.138026
 30
0.0
 10
78.621843
 20
114.277801
 30
0.0
 10
78.440470
 20
114.406595
 30
0.0
 10
78.201428
 20
114.515523
 30
0.0
  0
SPLINE
  5
17e
100
AcDbEntity
  8
Laag_1
 62
7
100
AcDbSpline
 70
8
 71
3
 72
8
 73
4
 74
0
 40
0
 40
0
 40
0
 40
0
 40
1
 40
1
 40
1
 40
1
 10
78.201428
 20
114.515523
 30
0.0
 10
77.776184
 20
114.738722
 30
0.0
 10
76.718647
 20
114.810100
 30
0.0
 10
76.293404
 20
114.921699
 30
0.0
  0
SPLINE
  5
17f
100
AcDbEntity
  8
Laag_1
 62
7
100
AcDbSpline
 70
8
 71
3
 72
8
 73
4
 74
0
 40
0
 40
0
 40
0
 40
0
 40
1
 40
1
 40
1
 40
1
 10
76.293404
 20
114.921699
 30
0.0
 10
75.868162
 20
115.033298
 30
0.0
 10
75.439229
 20
115.089131
 30
0.0
 10
75.005886
 20
115.089131
 30
0.0
  0
SPLINE
  5
180
100
AcDbEntity
  8
Laag_1
 62
7
100
AcDbSpline
 70
8
 71
3
 72
8
 73
4
 74
0
 40
0
 40
0
 40
0
 40
0
 40
1
 40
1
 40
1
 40
1
 10
75.005886
 20
115.089131
 30
0.0
 10
73.892159
 20
115.089131
 30
0.0
 10
72.986744
 20
114.669070
 30
0.0
 10
72.290161
 20
113.829130
 30
0.0
  0
SPLINE
  5
181
100
AcDbEntity
  8
Laag_1
 62
7
100
AcDbSpline
 70
8
 71
3
 72
8
 73
4
 74
0
 40
0
 40
0
 40
0
 40
0
 40
1
 40
1
 40
1
 40
1
 10
72.290161
 20
113.829130
 30
0.0
 10
72.151400
 20
113.662012
 30
0.0
 10
72.030599
 20
113.482823
 30
0.0
 10
71.919641
 20
113.296605
 30
0.0
  0
LWPOLYLINE
  5
182
100
AcDbEntity
  8
Laag_1
 62
7
100
AcDbPolyline
 90
3
 70
0
 10
74.387707
 20
126.051253
 30
0.0
 10
81.077996
 20
126.051253
 30
0.0
 10
78.756045
 20
114.138026
 30
0.0
  0
SPLINE
  5
183
100
AcDbEntity
  8
Laag_1
 62
7
100
AcDbSpline
 70
8
 71
3
 72
8
 73
4
 74
0
 40
0
 40
0
 40
0
 40
0
 40
1
 40
1
 40
1
 40
1
 10
71.287895
 20
110.030913
 30
0.0
 10
71.348855
 20
109.558305
 30
0.0
 10
71.487545
 20
109.170085
 30
0.0
 10
71.706862
 20
108.868968
 30
0.0
  0
SPLINE
  5
184
100
AcDbEntity
  8
Laag_1
 62
7
100
AcDbSpline
 70
8
 71
3
 72
8
 73
4
 74
0
 40
0
 40
0
 40
0
 40
0
 40
1
 40
1
 40
1
 40
1
 10
71.706862
 20
108.868968
 30
0.0
 10
72.014655
 20
108.457804
 30
0.0
 10
72.587802
 20
108.093582
 30
0.0
 10
73.426137
 20
107.776399
 30
0.0
  0
LWPOLYLINE
  5
185
100
AcDbEntity
  8
Laag_1
 62
7
100
AcDbPolyline
 90
3
 70
0
 10
71.919641
 20
113.296605
 30
0.0
 10
74.387707
 20
126.051253
 30
0.0
 10
74.387707
 20
126.051253
 30
0.0
  0
SPLINE
  5
186
100
AcDbEntity
  8
Laag_1
 62
7
100
AcDbSpline
 70
8
 71
3
 72
8
 73
4
 74
0
 40
0
 40
0
 40
0
 40
0
 40
1
 40
1
 40
1
 40
1
 10
74.161363
 20
107.503161
 30
0.0
 10
74.768856
 20
107.279960
 30
0.0
 10
75.163546
 20
107.030429
 30
0.0
 10
75.345787
 20
106.754369
 30
0.0
  0
SPLINE
  5
187
100
AcDbEntity
  8
Laag_1
 62
7
100
AcDbSpline
 70
8
 71
3
 72
8
 73
4
 74
0
 40
0
 40
0
 40
0
 40
0
 40
1
 40
1
 40
1
 40
1
 10
75.345787
 20
106.754369
 30
0.0
 10
75.532080
 20
106.484174
 30
0.0
 10
75.625229
 20
106.084623
 30
0.0
 10
75.625229
 20
105.555993
 30
0.0
  0
SPLINE
  5
188
100
AcDbEntity
  8
Laag_1
 62
7
100
AcDbSpline
 70
8
 71
3
 72
8
 73
4
 74
0
 40
0
 40
0
 40
0
 40
0
 40
1
 40
1
 40
1
 40
1
 10
75.625229
 20
105.555993
 30
0.0
 10
75.625229
 20
104.763039
 30
0.0
 10
75.394327
 20
104.120040
 30
0.0
 10
74.932634
 20
103.626653
 30
0.0
  0
SPLINE
  5
189
100
AcDbEntity
  8
Laag_1
 62
7
100
AcDbSpline
 70
8
 71
3
 72
8
 73
4
 74
0
 40
0
 40
0
 40
0
 40
0
 40
1
 40
1
 40
1
 40
1
 10
74.932634
 20
103.626653
 30
0.0
 10
74.470942
 20
103.133258
 30
0.0
 10
73.857484
 20
102.886387
 30
0.0
 10
73.092049
 20
102.886387
 30
0.0
  0
SPLINE
  5
18a
100
AcDbEntity
  8
Laag_1
 62
7
100
AcDbSpline
 70
8
 71
3
 72
8
 73
4
 74
0
 40
0
 40
0
 40
0
 40
0
 40
1
 40
1
 40
1
 40
1
 10
73.092049
 20
102.886387
 30
0.0
 10
72.642507
 20
102.886387
 30
0.0
 10
72.191073
 20
102.989321
 30
0.0
 10
71.737481
 20
103.194896
 30
0.0
  0
SPLINE
  5
18b
100
AcDbEntity
  8
Laag_1
 62
7
100
AcDbSpline
 70
8
 71
3
 72
8
 73
4
 74
0
 40
0
 40
0
 40
0
 40
0
 40
1
 40
1
 40
1
 40
1
 10
71.737481
 20
103.194896
 30
0.0
 10
71.308584
 20
103.391036
 30
0.0
 10
70.624596
 20
103.867899
 30
0.0
 10
70.171684
 20
104.263435
 30
0.0
  0
LWPOLYLINE
  5
18c
100
AcDbEntity
  8
Laag_1
 62
7
100
AcDbPolyline
 90
2
 70
0
 10
73.426137
 20
107.776399
 30
0.0
 10
74.161363
 20
107.503161
 30
0.0
  0
LWPOLYLINE
  5
18d
100
AcDbEntity
  8
Laag_1
 62
7
100
AcDbPolyline
 90
3
 70
0
 10
70.171684
 20
104.263435
 30
0.0
 10
71.287895
 20
110.030913
 30
0.0
 10
71.287895
 20
110.030913
 30
0.0
  0
LWPOLYLINE
  5
18e
100
AcDbEntity
  8
Laag_1
 62
7
100
AcDbPolyline
 90
8
 70
1
 10
53.322338
 20
141.580013
 30
0.0
 10
127.789747
 20
141.580013
 30
0.0
 10
127.789747
 20
85.499620
 30
0.0
 10
53.322338
 20
85.499620
 30
0.0
 10
53.322338
 20
141.580013
 30
0.0
 10
110.015631
 20
141.580013
 30
0.0
 10
110.015631
 20
84.886714
 30
0.0
 10
53.322338
 20
84.886714
 30
0.0
  0
SPLINE
  5
18f
100
AcDbEntity
  8
Laag_1
 62
7
100
AcDbSpline
 70
8
 71
3
 72
8
 73
4
 74
0
 40
0
 40
0
 40
0
 40
0
 40
1
 40
1
 40
1
 40
1
 10
53.322338
 20
141.580013
 30
0.0
 10
53.267873
 20
141.580013
 30
0.0
 10
53.224283
 20
141.536063
 30
0.0
 10
53.224283
 20
141.481567
 30
0.0
  0
LWPOLYLINE
  5
190
100
AcDbEntity
  8
Laag_1
 62
7
100
AcDbPolyline
 90
4
 70
1
 10
31.564373
 20
171.918583
 30
0.0
 10
151.386421
 20
171.918583
 30
0.0
 10
151.386421
 20
38.919185
 30
0.0
 10
31.564373
 20
38.919185
 30
0.0
  0
SPLINE
  5
191
100
AcDbEntity
  8
Laag_1
 62
7
100
AcDbSpline
 70
8
 71
3
 72
8
 73
4
 74
0
 40
0
 40
0
 40
0
 40
0
 40
1
 40
1
 40
1
 40
1
 10
53.224283
 20
89.178172
 30
0.0
 10
53.224283
 20
89.123722
 30
0.0
 10
53.267873
 20
89.079735
 30
0.0
 10
53.322338
 20
89.079735
 30
0.0
  0
LWPOLYLINE
  5
192
100
AcDbEntity
  8
Laag_1
 62
7
100
AcDbPolyline
 90
2
 70
0
 10
53.224283
 20
141.481567
 30
0.0
 10
53.224283
 20
89.178172
 30
0.0
  0
SPLINE
  5
193
100
AcDbEntity
  8
Laag_1
 62
7
100
AcDbSpline
 70
8
 71
3
 72
8
 73
4
 74
0
 40
0
 40
0
 40
0
 40
0
 40
1
 40
1
 40
1
 40
1
 10
105.625733
 20
89.079735
 30
0.0
 10
105.680183
 20
89.079735
 30
0.0
 10
105.724178
 20
89.123685
 30
0.0
 10
105.724178
 20
89.178172
 30
0.0
  0
LWPOLYLINE
  5
194
100
AcDbEntity
  8
Laag_1
 62
7
100
AcDbPolyline
 90
2
 70
0
 10
53.322338
 20
89.079735
 30
0.0
 10
105.625733
 20
89.079735
 30
0.0
  0
SPLINE
  5
195
100
AcDbEntity
  8
Laag_1
 62
7
100
AcDbSpline
 70
8
 71
3
 72
8
 73
4
 74
0
 40
0
 40
0
 40
0
 40
0
 40
1
 40
1
 40
1
 40
1
 10
105.724178
 20
141.481567
 30
0.0
 10
105.724178
 20
141.536017
 30
0.0
 10
105.680228
 20
141.580012
 30
0.0
 10
105.625733
 20
141.580012
 30
0.0
  0
LWPOLYLINE
  5
196
100
AcDbEntity
  8
Laag_1
 62
7
100
AcDbPolyline
 90
2
 70
0
 10
105.724178
 20
89.178172
 30
0.0
 10
105.724178
 20
141.481567
 30
0.0
  0
LWPOLYLINE
  5
197
100
AcDbEntity
  8
Laag_1
 62
7
100
AcDbPolyline
 90
2
 70
0
 10
105.625733
 20
141.580012
 30
0.0
 10
53.322338
 20
141.580013
 30
0.0
  0
SPLINE
  5
198
100
AcDbEntity
  8
Laag_1
 62
7
100
AcDbSpline
 70
8
 71
3
 72
8
 73
4
 74
0
 40
0
 40
0
 40
0
 40
0
 40
1
 40
1
 40
1
 40
1
 10
101.815890
 20
137.829855
 30
0.0
 10
101.903670
 20
137.829855
 30
0.0
 10
101.974020
 20
137.759130
 30
0.0
 10
101.974020
 20
137.671335
 30
0.0
  0
LWPOLYLINE
  5
199
100
AcDbEntity
  8
Laag_1
 62
7
100
AcDbPolyline
 90
2
 70
0
 10
57.132570
 20
137.829855
 30
0.0
 10
101.815890
 20
137.829855
 30
0.0
  0
SPLINE
  5
19a
100
AcDbEntity
  8
Laag_1
 62
7
100
AcDbSpline
 70
8
 71
3
 72
8
 73
4
 74
0
 40
0
 40
0
 40
0
 40
0
 40
1
 40
1
 40
1
 40
1
 10
101.974020
 20
92.988405
 30
0.0
 10
101.974020
 20
92.900625
 30
0.0
 10
101.903670
 20
92.829892
 30
0.0
 10
101.815890
 20
92.829892
 30
0.0
  0
LWPOLYLINE
  5
19b
100
AcDbEntity
  8
Laag_1
 62
7
100
AcDbPolyline
 90
2
 70
0
 10
101.974020
 20
137.671335
 30
0.0
 10
101.974020
 20
92.988405
 30
0.0
  0
SPLINE
  5
19c
100
AcDbEntity
  8
Laag_1
 62
7
100
AcDbSpline
 70
8
 71
3
 72
8
 73
4
 74
0
 40
0
 40
0
 40
0
 40
0
 40
1
 40
1
 40
1
 40
1
 10
57.132570
 20
92.829892
 30
0.0
 10
57.044788
 20
92.829892
 30
0.0
 10
56.974052
 20
92.900617
 30
0.0
 10
56.974052
 20
92.988405
 30
0.0
  0
LWPOLYLINE
  5
19d
100
AcDbEntity
  8
Laag_1
 62
7
100
AcDbPolyline
 90
2
 70
0
 10
101.815890
 20
92.829892
 30
0.0
 10
57.132570
 20
92.829892
 30
0.0
  0
SPLINE
  5
19e
100
AcDbEntity
  8
Laag_1
 62
7
100
AcDbSpline
 70
8
 71
3
 72
8
 73
4
 74
0
 40
0
 40
0
 40
0
 40
0
 40
1
 40
1
 40
1
 40
1
 10
56.974052
 20
137.671335
 30
0.0
 10
56.974052
 20
137.759122
 30
0.0
 10
57.044785
 20
137.829855
 30
0.0
 10
57.132570
 20
137.829855
 30
0.0
  0
LWPOLYLINE
  5
19f
100
AcDbEntity
  8
Laag_1
 62
7
100
AcDbPolyline
 90
2
 70
0
 10
56.974052
 20
92.988405
 30
0.0
 10
56.974052
 20
137.671335
 30
0.0
  0
LWPOLYLINE
  5
1a0
100
AcDbEntity
  8
Laag_1
 62
7
100
AcDbPolyline
 90
1
 70
1
 10
57.132570
 20
137.829855
 30
0.0
  0
ENDSEC
  0
SECTION
  2
OBJECTS
  0
DICTIONARY
  5
C
330
0
100
AcDbDictionary
  3
ACAD_GROUP
350
D
  3
ACAD_MLINESTYLE
350
17
  0
DICTIONARY
  5
D
330
C
100
AcDbDictionary
  0
DICTIONARY
  5
1A
330
C
100
AcDbDictionary
  0
DICTIONARY
  5
17
330
C
100
AcDbDictionary
  3
STANDARD
350
18
  0
DICTIONARY
  5
19
330
C
100
AcDbDictionary
  0
ENDSEC
  0
EOF
